<svg xmlns="http://www.w3.org/2000/svg" xmlns:xlink="http://www.w3.org/1999/xlink" version="1.1" width="41.551902770996094" height="29.114200592041016" viewBox="0.06589996814727783 0.4205000400543213 41.551902770996094 29.114200592041016">
  <!-- Exported by Scratch - http://scratch.mit.edu/ -->
  <g id="Head">
    <g id="Head_1_">
      <path id="Head_Fill" fill="#000000" stroke="#000000" d="M 37.3537 19.0839 C 36.6411 15.9628 33.0494 15.4147 33.0494 15.4147 C 33.0494 15.4147 33.1346 12.8242 31.7771 10.4055 C 30.8785 8.8045 27.7341 6.5121 27.7341 6.5121 L 26.3524 0.9205 L 22.7554 4.4643 L 21.3737 4.9992 C 20.6286 4.93 19.0896 4.8482 18.2341 4.8893 C 15.9447 4.9983 13.7671 5.875 13.7671 5.875 L 7.5325 1.7483 L 8.6135 10.9032 C 8.9263 10.5226 3.5046 17.101 6.9302 22.6287 C 8.5371 25.2236 11.6393 27.2454 14.4821 28.4126 C 16.4733 29.2274 18.8654 28.6135 21.0135 28.6179 C 22.7525 28.7321 24.6444 29.0173 26.2561 28.7796 C 27.8842 28.538 29.3928 27.9909 31.124 27.2749 C 35.7218 25.3703 38.0654 22.2051 37.3537 19.0839 Z M 14.7542 6.8622 L 13.769 5.875 M 21.4918 4.9257 C 22.4601 5.0869 23.5895 5.587 23.5895 5.587 " stroke-width="0.4841269552707672"/>
      <path id="Muzzle" fill="#000000" d="M 32.8485 15.5363 L 31.4537 14.0321 L 27.0418 15.3203 C 27.0418 15.3252 27.0394 16.1041 26.3544 16.7403 C 26.0416 17.0308 25.588 17.2912 24.9272 17.435 C 22.8111 17.8954 19.4991 16.3326 19.4991 16.3326 L 15.7307 17.9869 C 15.7307 17.9869 13.434 18.2396 12.2237 19.418 C 11.8204 19.8111 11.5377 20.3064 11.5014 20.9299 C 11.2627 24.9956 15.7036 27.3456 18.8035 28.4833 C 19.6642 28.7989 19.9595 28.8953 20.4843 29.0347 C 20.4843 29.0347 24.0785 28.9403 25.4132 28.75 C 26.8811 28.5409 29.082 27.8989 30.8132 27.1834 C 35.4114 25.2793 37.8819 22.3305 37.1693 19.2093 C 36.4557 16.0862 32.8485 15.5363 32.8485 15.5363 Z " stroke-width="0.4841269552707672"/>
    </g>
    <g id="L_Eye">
      <path id="Eyeball_1_" fill="#FFFFFF" stroke="#000000" d="M 19.047 12.0031 C 20.4635 14.172 20.3144 16.7776 18.7168 17.8199 C 17.1177 18.8651 14.6734 17.9516 13.2583 15.7827 C 11.8407 13.6138 11.9879 11.0092 13.5865 9.9649 C 15.1851 8.9212 17.629 9.8332 19.047 12.0031 " stroke-width="0.4841269552707672"/>
      <path id="Pupil_1_" d="M 18.1813 14.8536 C 18.1813 15.377 17.7926 15.8011 17.3094 15.8011 C 16.8292 15.8011 16.4361 15.376 16.4361 14.8536 C 16.4361 14.3308 16.8292 13.9062 17.3094 13.9062 C 17.7916 13.9062 18.1813 14.3308 18.1813 14.8536 " stroke-width="0.4841269552707672" fill="undefined"/>
    </g>
    <g id="R_Eye">
      <path id="Eyeball" fill="#FFFFFF" stroke="#000000" d="M 30.5319 10.5115 C 31.948 12.6799 32.1213 15.0715 30.7701 15.9545 C 29.4179 16.8381 27.2936 15.6873 25.8785 13.5175 C 24.4585 11.3486 24.3879 9.0954 25.74 8.2119 C 27.0893 7.3293 29.1149 8.3417 30.5319 10.5115 " stroke-width="0.4841269552707672"/>
      <path id="Pupil" d="M 30.2894 13.8927 C 30.2894 14.4155 29.9011 14.8396 29.4179 14.8396 C 28.9372 14.8396 28.5446 14.415 28.5446 13.8927 C 28.5446 13.3698 28.9372 12.9447 29.4179 12.9447 C 29.9011 12.9447 30.2894 13.3698 30.2894 13.8927 " stroke-width="0.4841269552707672" fill="undefined"/>
    </g>
    <path id="Nose" fill="#000000" stroke="#000000" d="M 24.8071 16.5089 C 25.7047 16.5089 27.0128 16.3714 27.0806 16.7843 C 27.1508 17.1983 26.2532 18.8191 25.6345 18.8879 C 25.0138 18.9566 22.6692 17.7487 22.6358 16.9906 C 22.6 16.2324 23.9788 16.5089 24.8071 16.5089 " stroke-width="0.4841269552707672"/>
    <path id="Whisker_3_" d="M 6.5139 18.67 C 6.5028 18.6618 5.3607 17.818 3.6082 17.0424 C 1.6658 16.1821 0.5761 15.9483 0.5659 15.9458 L 0.6845 15.377 C 0.7305 15.3867 1.8372 15.622 3.8434 16.5108 C 5.6594 17.3149 6.8126 18.1685 6.8605 18.2043 L 6.5139 18.67 L 6.5139 18.67 Z " stroke-width="0.4841269552707672" fill="undefined"/>
    <path id="Whisker_2_" d="M 3.5501 20.9222 C 2.5649 20.9222 1.0849 20.7886 1.0142 20.7823 L 1.066 20.2037 C 1.0859 20.2057 3.0451 20.3814 3.9161 20.3325 C 4.7972 20.2822 6.5362 20.0527 6.5531 20.0503 L 6.6291 20.6259 C 6.5575 20.6356 4.8524 20.8602 3.9485 20.912 C 3.8313 20.9193 3.6958 20.9222 3.5501 20.9222 L 3.5501 20.9222 Z " stroke-width="0.4841269552707672" fill="undefined"/>
    <path id="Whisker_1_" d="M 35.4521 18.1244 L 35.3582 17.5507 C 35.3804 17.5473 37.5484 17.1905 38.6314 16.8134 C 39.877 16.3806 40.7257 15.6442 40.7349 15.637 L 41.1178 16.0736 C 41.0801 16.1066 40.1748 16.8923 38.8221 17.3619 C 37.6921 17.756 35.5426 18.1094 35.4521 18.1244 L 35.4521 18.1244 Z " stroke-width="0.4841269552707672" fill="undefined"/>
    <path id="Whisker" d="M 39.8223 21.7573 C 39.4292 21.7573 38.9 21.7403 38.2784 21.6784 C 36.8948 21.5399 35.5751 21.0108 35.5194 20.988 L 35.7372 20.4497 C 35.7503 20.455 37.0376 20.9701 38.336 21.1003 C 39.6296 21.2296 40.5233 21.1541 40.5316 21.1536 L 40.5819 21.7321 C 40.5611 21.7341 40.2856 21.7573 39.8223 21.7573 L 39.8223 21.7573 Z " stroke-width="0.4841269552707672" fill="undefined"/>
    <path id="Mouth" fill="#FFFFFF" stroke="#000000" stroke-width="0.9682539105415344" d="M 18.5178 20.0474 C 18.5178 20.0474 23.5271 21.5259 25.4006 21.9335 C 27.2728 22.3411 30.6539 22.7488 30.6539 22.7488 C 30.6539 22.7488 26.7862 27.7087 22.2654 26.4499 C 17.7442 25.1927 17.8255 22.3421 18.5178 20.0474 Z "/>
  </g>
</svg>