<svg version="1.1" xmlns="http://www.w3.org/2000/svg" xmlns:xlink="http://www.w3.org/1999/xlink" width="461.84375" height="248.73175" viewBox="0,0,461.84375,248.73175"><g transform="translate(-5.875,-93.02825)"><g data-paper-data="{&quot;isPaintingLayer&quot;:true}" fill="none" fill-rule="nonzero" stroke="none" stroke-width="none" stroke-linecap="none" stroke-linejoin="none" stroke-miterlimit="10" stroke-dasharray="" stroke-dashoffset="0" font-family="none" font-weight="none" font-size="none" text-anchor="none" style="mix-blend-mode: normal"><g id="ID0.36224168399348855" stroke-linecap="butt" stroke-linejoin="miter"><path d="M231.838,210.967c0,0 -8.832,6.201 -17.07,8.412l0.086,0.215c1.247,1.824 5.869,7.498 -0.334,9.496c-5.333,1.718 -15.12,-13.104 -10.821,-15.901c2.626,-1.713 4.892,-0.252 4.892,-0.252c0,0 3.475,-1.069 6.001,-2.345c4.304,-2.162 5.784,-3.453 5.784,-3.453c0,0 4.185,-4.307 6.856,-4.137c2.669,0.17 8.058,4.713 4.606,7.965zM212.496,220.09l2.271,-0.711" id="Back_Leg" fill="#faa51d" stroke="#000000" stroke-width="1"/><g id="Tail" stroke-width="1"><path d="M226.788,200.487c0.809,0.473 2.451,1.325 0.09,4.744c-2.361,3.42 -9.267,4.049 -10.079,4.075c-3.093,0.083 -6.909,0.079 -11.091,-1.312c-12.135,-4.029 -12.209,-17.107 -8.353,-19.195c3.854,-2.086 5.597,6.008 11.048,10.914c2.437,2.193 5.327,3.053 7.742,3.504c3.416,0.638 9.833,-3.201 10.643,-2.73z" id="Tail_1_" fill="#faa51d" stroke="#000000"/><path d="M202.884,193.473c1.172,1.828 2.513,3.828 4.176,5.64c-0.993,-0.164 -4.016,-0.482 -5.853,1.061c-1.717,1.443 -0.467,3.834 -0.742,4.379c-3.864,-3.42 -4.827,-7.478 -4.968,-9.072c-0.262,-2.977 0.557,-5.596 1.994,-6.374c1.834,-0.991 3.11,0.815 5.393,4.366z" id="Tail_Tip" fill="#ffffff" stroke="none"/></g><path d="M245.728,193.083c0.933,-3.549 1.905,-2.791 1.905,-2.791c0.541,0.408 1.139,0.912 1.729,1.506c1.796,1.8 3.345,5.547 6.856,4.287c3.509,-1.259 5.666,-6.093 9.716,-2.405c4.047,3.69 -3.612,8.375 -6.489,9.817c-2.886,1.436 -5.402,2.785 -8.911,-0.724c-3.51,-3.511 -4.744,-3.677 -4.744,-3.677c-2.007,-1.469 -0.997,-2.472 -0.062,-6.013z" id="R_Arm" fill="#faa51d" stroke="#000000" stroke-width="1"/><g id="Front_Leg_x2F_Body_1_" stroke-width="1"><path d="M236.595,202.728c0,0 7.648,7.713 11.125,10.771c2.123,1.862 6.727,5.795 6.727,5.795c0,0 16.698,-2.879 14.775,6.91c-0.561,2.882 -19.534,0.694 -19.534,0.694c0,0 -7.212,-5.829 -12.044,-10.603c-5.864,-5.797 -10.765,-9.639 -10.765,-9.639c-8.534,-8.291 -1.662,-11.805 1.057,-16.562c2.719,-4.755 5.924,-2.914 9.517,-2.233c3.591,0.678 6.117,0.485 7.67,0.776c3.836,0.72 2.776,4.775 1.901,7.296c0,0 -1.403,3.651 -2.699,5.577c-1.555,2.313 -2.763,3.802 -3.951,4.714" id="Front_Leg_x2F_Body" fill="#faa51d" stroke="#000000"/><path d="M245.646,197.838c-0.713,2.06 -2.293,4.438 -5.292,7.934l-3.062,-3.089c0,0 -6.087,-3.956 -3.442,-6.61c1.526,-1.537 3.8,-4.178 8.74,-1.522c2.178,1.174 2.914,2.346 3.056,3.287z" id="Belly" fill="#ffffff" stroke="none"/></g><path d="M222.368,196.295c1.261,1.975 9.99,7.918 3.06,11.156c-6.927,3.237 -10.796,-6.658 -11.789,-10.17c-0.989,-3.511 2.16,-4.408 4.319,-6.209c4.012,-3.341 6.48,-6.746 11.52,-4.945c5.04,1.797 1.351,5.847 -1.077,7.646c-1.964,1.455 -4.105,3.086 -4.854,3.657" id="L_Arm" fill="#faa51d" stroke="#000000" stroke-width="1"/><g id="Head"><g id="Head_1_" stroke-width="1"><path d="M266.434,184.376c-3.576,1.479 -7.034,2.589 -10.055,3.108c-2.552,0.438 -7.674,0.979 -10.32,0.979c-3.167,0 -9.938,-0.377 -14,-1.737c-5.44,-1.823 -12.28,-6.587 -15.599,-11.947c-7.076,-11.418 4.123,-25.006 3.477,-24.22l-2.233,-18.91l12.878,8.524c0,0 4.498,-1.811 9.227,-2.036c1.767,-0.085 4.946,0.084 6.485,0.227l2.854,-1.105l7.43,-7.32l2.854,11.55c0,0 6.495,4.735 8.351,8.042c2.804,4.996 2.628,10.347 2.628,10.347c0,0 7.419,1.132 8.891,7.579c1.47,6.447 -3.371,12.985 -12.868,16.919zM230.586,140.173l2.035,2.039M250.871,139.578c0,0 -2.333,-1.033 -4.333,-1.366" id="Head_Fill" fill="#faa51d" stroke="#000000"/><path d="M278.921,167.716c1.472,6.447 -3.631,12.538 -13.129,16.471c-3.576,1.478 -8.122,2.804 -11.154,3.236c-2.757,0.393 -10.181,0.588 -10.181,0.588c-1.084,-0.288 -1.694,-0.487 -3.472,-1.139c-6.403,-2.35 -15.576,-7.204 -15.083,-15.602c0.075,-1.288 0.659,-2.311 1.492,-3.123c2.5,-2.434 7.244,-2.956 7.244,-2.956l7.784,-3.417c0,0 6.841,3.228 11.212,2.277c1.365,-0.297 2.302,-0.835 2.948,-1.435c1.415,-1.314 1.42,-2.923 1.42,-2.933l9.113,-2.661l2.881,3.107c0,0 7.451,1.136 8.925,7.587z" id="Muzzle" fill="#ffffff" stroke="none"/></g><g id="L_Eye" stroke-width="1"><path d="M241.488,152.831c2.926,4.48 2.618,9.862 -0.682,12.015c-3.303,2.159 -8.352,0.272 -11.275,-4.208c-2.928,-4.48 -2.624,-9.86 0.678,-12.017c3.302,-2.156 8.35,-0.272 11.279,4.21" id="Eyeball_1_" fill="#ffffff" stroke="#000000"/><path d="M239.7,158.719c0,1.081 -0.803,1.957 -1.801,1.957c-0.992,0 -1.804,-0.878 -1.804,-1.957c0,-1.08 0.812,-1.957 1.804,-1.957c0.996,0 1.801,0.877 1.801,1.957" id="Pupil_1_" fill="#000000" stroke="none"/></g><g id="R_Eye" stroke-width="1"><path d="M265.211,149.75c2.925,4.479 3.283,9.419 0.492,11.243c-2.793,1.825 -7.181,-0.552 -10.104,-5.034c-2.933,-4.48 -3.079,-9.134 -0.286,-10.959c2.787,-1.823 6.971,0.268 9.898,4.75" id="Eyeball" fill="#ffffff" stroke="#000000"/><path d="M264.71,156.734c0,1.08 -0.802,1.956 -1.8,1.956c-0.993,0 -1.804,-0.877 -1.804,-1.956c0,-1.08 0.811,-1.958 1.804,-1.958c0.998,0 1.8,0.878 1.8,1.958" id="Pupil" fill="#000000" stroke="none"/></g><path d="M253.386,162.138c1.854,0 4.556,-0.284 4.696,0.569c0.145,0.855 -1.709,4.203 -2.987,4.345c-1.282,0.142 -6.125,-2.353 -6.194,-3.919c-0.074,-1.566 2.774,-0.995 4.485,-0.995" id="Nose" fill="#5e4a42" stroke="#000000" stroke-width="1"/><path d="M215.6,166.602c-0.023,-0.017 -2.382,-1.76 -6.002,-3.362c-4.012,-1.777 -6.263,-2.26 -6.284,-2.265l0.245,-1.175c0.095,0.02 2.381,0.506 6.525,2.342c3.751,1.661 6.133,3.424 6.232,3.498l-0.716,0.962z" id="Whisker_3_" fill="#000000" stroke="none" stroke-width="1"/><path d="M209.478,171.254c-2.035,0 -5.092,-0.276 -5.238,-0.289l0.107,-1.195c0.041,0.004 4.088,0.367 5.887,0.266c1.82,-0.104 5.412,-0.578 5.447,-0.583l0.157,1.189c-0.148,0.02 -3.67,0.484 -5.537,0.591c-0.242,0.015 -0.522,0.021 -0.823,0.021z" id="Whisker_2_" fill="#000000" stroke="none" stroke-width="1"/><path d="M275.374,165.475l-0.194,-1.185c0.046,-0.007 4.524,-0.744 6.761,-1.523c2.573,-0.894 4.326,-2.415 4.345,-2.43l0.791,0.902c-0.078,0.068 -1.948,1.691 -4.742,2.661c-2.334,0.814 -6.774,1.544 -6.961,1.575z" id="Whisker_1_" fill="#000000" stroke="none" stroke-width="1"/><path d="M284.401,172.979c-0.812,0 -1.905,-0.035 -3.189,-0.163c-2.858,-0.286 -5.584,-1.379 -5.699,-1.426l0.45,-1.112c0.027,0.011 2.686,1.075 5.368,1.344c2.672,0.267 4.518,0.111 4.535,0.11l0.104,1.195c-0.043,0.004 -0.612,0.052 -1.569,0.052z" id="Whisker" fill="#000000" stroke="none" stroke-width="1"/><path d="M240.395,169.447c0,0 10.347,3.054 14.217,3.896c3.867,0.842 10.851,1.684 10.851,1.684c0,0 -7.989,10.245 -17.327,7.645c-9.339,-2.597 -9.171,-8.485 -7.741,-13.225z" id="Mouth" fill="none" stroke="#231f20" stroke-width="1.2"/></g></g><path d="M104.5648,199.9508c0,0 5.6754,7.8133 1.6382,10.7526c-2.1677,1.5872 -5.1766,-1.5529 -6.0079,-2.689c-1.2035,-1.6493 -1.6002,-2.0463 -1.8568,-4.1142c-0.2557,-2.0634 -1.2741,-9.6507 -0.8611,-12.3974c0.6496,-4.3042 3.6233,-11.4675 5.7801,-1.4431c0,0 0.6795,5.677 1.2208,9.4716l0.0867,0.4195v0v0v0v0v0v0v0v0v0v0v0v0v0v0v0v0v0v0v0v0v0v0v0v0v0v0v0v0v0v0v0v0v0v0v0v0v0zM103.3368,198.3744l1.228,1.5764" id="R_Arm_2_" fill="#f05a28" stroke="#000000" stroke-width="0.90192" stroke-linecap="round" stroke-linejoin="miter"/><g id="Body_1_" stroke-width="0.90192"><path d="M101.1945,190.9707c-0.3904,2.5847 -1.4304,9.3159 -1.2632,10.6465l-0.2431,-0.5429c0.4988,1.4044 1.003,3.4021 0.843,5.479c-0.3108,4.0322 -2.5327,6.1928 -4.8937,7.3461l-0.0271,0.1314l-2.0258,8.0501c0.0388,-0.0009 0.3831,0.0198 2.8065,0.253c3.0703,0.2934 1.6409,2.1363 1.6409,2.1363l-5.7233,-0.1018l-0.2927,-0.0036l-11.5649,-0.2061c-0.1419,-0.469 -0.0289,-1.9194 0.7039,-5.5879c0.2828,-1.4413 0.5448,-2.681 0.7735,-3.6947l0.0018,-0.0072c-3.9071,-3.0257 -3.4381,-7.708 -2.2472,-11.0209c0.759,-2.1192 5.0916,-18.1159 5.0916,-18.1159c0,0 1.8831,-6.1433 9.6764,-4.0052c0,0 8.9707,1.4872 6.7443,9.2402c0,0.0027 -0.0009,0.0027 -0.0009,0.0036v0v0v0v0v0v0v0v0v0v0v0v0v0v0v0v0v0v0v0v0v0v0v0v0v0v0v0v0v0v0v0v0v0v0v0v0v0zM89.7823,214.9545c0,0 2.2969,0.3691 5.8543,-1.0533M99.9304,201.6181c-0.2033,-0.9291 -1.4132,-2.5694 -1.4132,-2.5694M82.6296,212.0286c0,0 -0.2611,0.8121 -0.6993,2.843" id="Body_2_" fill="#f05a28" stroke="#000000" stroke-linecap="round" stroke-linejoin="round"/><path d="M92.5608,224.264c-0.0072,0 -0.0144,0 -0.019,0c-0.2503,-0.0117 -0.4436,-0.2214 -0.4328,-0.469c0.01,-0.2233 -0.0497,-0.3943 -0.1861,-0.5402c-0.5747,-0.6067 -2.3159,-0.6338 -3.3568,-0.65c-0.3126,-0.0045 -0.5909,-0.009 -0.8096,-0.0234c-0.1364,-0.0099 -0.262,-0.081 -0.3397,-0.1926c-0.0777,-0.1126 -0.1012,-0.2539 -0.0624,-0.3853c0.3732,-1.255 0.7346,-2.5243 1.0961,-3.7928l0.4572,-1.6025c0.0686,-0.2394 0.3162,-0.3817 0.5584,-0.3088c0.2403,0.0676 0.3786,0.3178 0.3108,0.5564l-0.4572,1.5998c-0.3081,1.0839 -0.6171,2.1696 -0.9334,3.2445c0.0623,0.0009 0.1274,0.0018 0.1934,0.0036c1.3354,0.0189 3.1643,0.0477 4.001,0.9318c0.3072,0.3231 0.4518,0.7265 0.4328,1.1946c-0.0126,0.2449 -0.2123,0.4339 -0.4527,0.4339v0v0v0v0v0v0v0v0v0v0v0v0v0v0v0v0v0v0v0v0v0v0v0v0v0v0v0v0v0v0v0v0v0v0v0v0v0v0z" id="Leg_Separation" fill="#000000" stroke="none" stroke-linecap="butt" stroke-linejoin="miter"/></g><path d="M86.4355,193.9965l-2.9646,4.8623l0.0135,-0.0847c0.0958,3.4165 -0.1364,9.3492 -2.8661,10.3215c-1.4701,0.5203 -4.9263,1.3576 -4.6119,-8.0402c0.2521,-7.5703 7.0362,-14.2601 9.6638,-16.5728c0,0 2.3384,1.2963 2.4306,3.7982c0.0912,2.5036 -1.6671,5.7121 -1.6653,5.7157v0v0v0v0v0v0v0v0v0v0v0v0v0v0v0v0v0v0v0v0v0v0v0v0v0v0v0v0v0v0v0v0v0v0v0v0v0zM83.4844,198.7741c0,-1.4494 -0.403,-2.3496 -0.403,-2.3496" id="L_Arm_2_" fill="#f05a28" stroke="#000000" stroke-width="0.90192" stroke-linecap="round" stroke-linejoin="miter"/><path d="M55.6001,129.1465c0,0 0.8403,-3.4318 7.9912,-10.7257c7.1473,-7.2903 14.8846,-9.8011 20.016,-11.8969c5.1314,-2.0958 8.5767,-12.5676 8.5767,-12.5676c0,0 4.7248,5.8553 9.5806,11.1794c4.9552,5.4295 16.4939,10.1882 28.8584,22.5875c1.4755,1.4845 2.7297,3.0383 3.7842,4.6327l0.2141,0.1864c2.7613,2.3865 12.557,11.9076 11.3001,25.7698c-0.9596,10.5618 -5.7793,13.8991 -8.1168,14.7948l-0.019,0.0774c1.2036,-2.3757 1.9201,-4.8974 2.259,-7.4568c1.1177,-8.4642 -3.4607,-13.963 -6.3955,-21.3253c-3.805,-9.5463 -14.2133,-14.9172 -27.6901,-14.6498c-25.6498,0.5059 -31.2989,14.8731 -31.2989,14.8731l-0.019,0.1864c4.7582,8.8045 6.6585,28.3337 -3.0848,34.1782c-10.495,6.2865 -26.0347,4.0926 -32.0868,-20.1982c-5.5398,-22.2309 11.048,-29.2349 15.9273,-29.1773l0.2033,-0.4681v0v0v0v0v0v0v0v0v0v0v0v0v0v0v0v0v0v0v0v0v0v0v0v0v0v0v0v0v0v0v0v0v0v0v0v0v0zM134.4063,132.3559c0,0 6.7298,10.6527 4.5395,23.8172M55.3968,129.6137c4.7185,0.127 7.881,3.4921 7.881,3.4921M74.6402,144.8101c-0.7942,-1.2343 -1.3481,-2.2507 -1.3481,-2.2507" id="Head_2_" fill="#f05a28" stroke="#000000" stroke-width="0.90192" stroke-linecap="round" stroke-linejoin="miter"/><path d="M139.2593,169.5698c0,0 2.1234,-3.8378 3.5565,-10.8742c1.4313,-7.04 -0.4789,-16.6124 -0.4789,-16.6124c2.3719,4.2861 4.1691,9.7867 3.5881,16.2289c-0.9307,10.2899 -5.7232,13.7991 -8.1186,14.7948l1.4529,-3.5371v0v0v0v0v0v0v0v0v0v0v0v0v0v0v0v0v0v0v0v0v0v0v0v0v0v0v0v0v0v0v0v0v0v0v0v0v0z" id="R_Ear" fill="#404041" stroke="#000000" stroke-width="0.90192" stroke-linecap="butt" stroke-linejoin="miter"/><g id="L_Ear" stroke="#231f20" stroke-width="0.90192" stroke-linejoin="miter"><path d="M40.0216,160.9562v0v0v0v0v0v0v0v0v0v0v0v0v0v0v0v0v0v0v0v0v0v0v0v0v0v0v0v0v0v0v0v0v0v0v0v0v0c-1.0825,-4.1682 -2.0249,-10.6681 -1.1566,-15.723c0.8927,-5.2152 3.9712,-8.5948 7.3596,-9.414c6.344,-1.5404 14.0126,7.5711 17.1345,20.3458c2.9384,12.0418 0.796,23.0385 -4.7718,25.5565c0,0 -1.8234,0.2322 -5.5028,-1.7816c-3.6766,-2.0094 -6.8554,-5.4619 -8.152,-7.6945c-1.3002,-2.23 -3.8257,-7.1139 -4.9109,-11.2892z" id="Outer_Ear" fill="#404041" stroke-linecap="butt"/><path d="M43.963,150.3331c2.4405,-1.0416 6.5825,3.1473 9.2526,9.36c2.6673,6.2082 2.8544,12.0913 0.4165,13.132c-2.4423,1.0398 -6.5825,-3.1509 -9.2508,-9.3617c-2.6718,-6.21 -2.8571,-12.0887 -0.4183,-13.1303v0v0v0v0v0v0v0v0v0v0v0v0v0v0v0v0v0v0v0v0v0v0v0v0v0v0v0v0v0v0v0v0v0v0v0v0v0zM54.6965,171.8106c-10.0495,-6.346 -9.9375,-21.6341 -9.9375,-21.6341" id="Inner_Ear" fill="#929497" stroke-linecap="round"/></g><path d="M70.7205,179.5636v0v0v0v0v0v0v0v0v0v0v0v0v0v0v0v0v0v0v0v0v0v0v0v0v0v0v0v0v0v0v0v0v0v0v0v0v0l-0.0542,-0.0685c0.3,-0.162 0.5964,-0.3312 0.8891,-0.5059c9.7559,-5.8517 7.8358,-25.426 3.0667,-34.2098l0.0389,-0.1548c0,0 5.6492,-14.369 31.3034,-14.8731c13.4769,-0.2674 23.8833,5.1035 27.6892,14.6498c2.9339,7.3623 7.5132,12.8611 6.3946,21.3253c-1.1684,8.8081 -6.8157,17.2219 -21.366,20.6519c-14.5511,3.4417 -13.9647,1.5971 -18.8431,3.6857c-4.8766,2.0994 -5.1287,3.0203 -5.1287,3.0203c0,0 1.5623,-3.0464 -4.6877,-4.603c-9.437,-2.3434 -18.1266,-8.1176 -19.3022,-8.9179z" id="Face" fill="#e6e7e8" stroke="#000000" stroke-width="0.90192" stroke-linecap="round" stroke-linejoin="miter"/><path d="M122.9292,170.3198l-19.8535,2.4629" id="ID0.3291591238230467" fill="none" stroke="#000000" stroke-width="1.49292" stroke-linecap="round" stroke-linejoin="miter"/><path d="M97.6394,153.2182l-6.5677,-3.6215" id="ID0.7908265655860305" fill="none" stroke="#000000" stroke-width="1.41598" stroke-linecap="round" stroke-linejoin="miter"/><path d="M96.5263,149.0928l-4.2935,5.2085" id="ID0.7908265655860305" fill="none" stroke="#000000" stroke-width="1.27438" stroke-linecap="round" stroke-linejoin="miter"/><path d="M119.2263,145.8928l-4.2935,5.2085" id="ID0.7908265655860305" fill="none" stroke="#000000" stroke-width="1.27438" stroke-linecap="round" stroke-linejoin="miter"/><path d="M120.2894,150.0682l-6.5677,-3.6215" id="ID0.7908265655860305" fill="none" stroke="#000000" stroke-width="1.41598" stroke-linecap="round" stroke-linejoin="miter"/><text transform="translate(7.5,260.01)" font-size="22" xml:space="preserve" data-paper-data="{&quot;origPos&quot;:null}" id="ID0.9097513346932828" fill="#ffffff" fill-rule="nonzero" stroke="none" stroke-width="1" stroke-linecap="butt" stroke-linejoin="miter" stroke-miterlimit="10" stroke-dasharray="" stroke-dashoffset="0" font-family="Sans Serif" font-weight="400" text-anchor="start" style="mix-blend-mode: normal"><tspan x="0" dy="0">At first, we blamed him for what happened </tspan><tspan x="0" dy="24.86px">to us. It is our fault that he is out of service.</tspan><tspan x="0" dy="24.86px">At the end we understood that it wasn't his </tspan><tspan x="0" dy="24.86px">fault, but the damage was done.</tspan></text></g></g></svg>