<svg version="1.1" xmlns="http://www.w3.org/2000/svg" xmlns:xlink="http://www.w3.org/1999/xlink" width="32.21925" height="32.05955" viewBox="0,0,32.21925,32.05955"><g transform="translate(-272.8591,-66.19453)"><g data-paper-data="{&quot;isPaintingLayer&quot;:true}" fill-rule="nonzero" stroke-width="0.5" stroke-linecap="butt" stroke-linejoin="miter" stroke-miterlimit="10" stroke-dasharray="" stroke-dashoffset="0" style="mix-blend-mode: normal"><path d="M284.6998,92.2432c0,0 -2.7863,1.9562 -5.3852,2.6537l0.0271,0.0679c0.3934,0.5754 1.8516,2.3654 -0.1053,2.9957c-1.6825,0.542 -4.77,-4.134 -3.4138,-5.0164c0.8284,-0.5404 1.5433,-0.0795 1.5433,-0.0795c0,0 1.0963,-0.3372 1.8932,-0.7397c1.3578,-0.6821 1.8247,-1.0894 1.8247,-1.0894c0,0 1.3203,-1.3587 2.1629,-1.3051c0.842,0.0536 2.5421,1.4868 1.4531,2.5128zM278.5978,95.1212l0.7165,-0.2243" fill="#000000" stroke="#000000"/><g fill="#000000"><path d="M283.1066,88.937c0.2553,0.1492 0.7733,0.418 0.0284,1.4966c-0.7448,1.0789 -2.9235,1.2774 -3.1797,1.2856c-0.9757,0.0261 -2.1796,0.0249 -3.4989,-0.414c-3.8283,-1.271 -3.8517,-5.3968 -2.6352,-6.0555c1.2159,-0.6581 1.7657,1.8954 3.4854,3.4431c0.7688,0.6918 1.6805,0.9631 2.4424,1.1054c1.0777,0.2013 3.1021,-1.0098 3.3576,-0.8612z" stroke="#000000"/><path d="M275.5655,86.7242c0.3697,0.5767 0.7928,1.2077 1.3174,1.7793c-0.3133,-0.0517 -1.2669,-0.1521 -1.8465,0.3347c-0.5416,0.4553 -0.1473,1.2096 -0.234,1.3815c-1.219,-1.0789 -1.5229,-2.3591 -1.5673,-2.862c-0.0827,-0.9392 0.1757,-1.7654 0.629,-2.0108c0.5786,-0.3127 0.9812,0.2571 1.7014,1.3773z" stroke="none"/></g><path d="M289.0817,86.6012c0.2944,-1.1196 0.601,-0.8805 0.601,-0.8805c0.1707,0.1287 0.3594,0.2877 0.5455,0.4751c0.5666,0.5679 1.0553,1.7499 2.1629,1.3524c1.107,-0.3971 1.7875,-1.9222 3.0652,-0.7587c1.2767,1.1641 -1.1395,2.6421 -2.0472,3.0971c-0.9104,0.453 -1.7042,0.8786 -2.8112,-0.2285c-1.1073,-1.1076 -1.4966,-1.16 -1.4966,-1.16c-0.6332,-0.4634 -0.3145,-0.7798 -0.0196,-1.8969z" fill="#000000" stroke="#000000"/><g fill="#000000"><path d="M286.2005,89.644c0,0 2.4128,2.4332 3.5097,3.3979c0.6697,0.5875 2.1222,1.8282 2.1222,1.8282c0,0 5.2678,-0.9082 4.6611,2.18c-0.1769,0.9092 -6.1625,0.2189 -6.1625,0.2189c0,0 -2.2752,-1.8389 -3.7996,-3.345c-1.8499,-1.8288 -3.3961,-3.0409 -3.3961,-3.0409c-2.6922,-2.6156 -0.5243,-3.7242 0.3335,-5.2249c0.8578,-1.5001 1.8689,-0.9193 3.0024,-0.7044c1.1329,0.2139 1.9298,0.153 2.4197,0.2448c1.2102,0.2271 0.8757,1.5064 0.5997,2.3017c0,0 -0.4426,1.1518 -0.8515,1.7594c-0.4905,0.7297 -0.8716,1.1994 -1.2464,1.4872" stroke="#000000"/><path d="M289.0559,88.1013c-0.225,0.6499 -0.7234,1.4001 -1.6695,2.503l-0.966,-0.9745c0,0 -1.9203,-1.2481 -1.0859,-2.0853c0.4814,-0.4849 1.1988,-1.3181 2.7573,-0.4802c0.6871,0.3704 0.9193,0.7401 0.9641,1.037z" stroke="none"/></g><path d="M281.7122,87.6145c0.3978,0.6231 3.1516,2.4979 0.9654,3.5194c-2.1853,1.0212 -3.4059,-2.1004 -3.7192,-3.2083c-0.312,-1.1077 0.6815,-1.3907 1.3626,-1.9588c1.2657,-1.054 2.0443,-2.1282 3.6343,-1.5601c1.59,0.5669 0.4262,1.8446 -0.3398,2.4122c-0.6196,0.459 -1.295,0.9735 -1.5313,1.1537" fill="#000000" stroke="#000000"/><g><g fill="#000000"><path d="M295.614,83.8543c-1.1281,0.4666 -2.2191,0.8168 -3.1721,0.9805c-0.8051,0.1382 -2.421,0.3089 -3.2557,0.3089c-0.9991,0 -3.1352,-0.119 -4.4167,-0.548c-1.7162,-0.5751 -3.874,-2.078 -4.9211,-3.769c-2.2323,-3.6021 1.3007,-7.8888 1.0969,-7.6408l-0.7045,-5.9657l4.0627,2.6891c0,0 1.4191,-0.5713 2.9109,-0.6423c0.5575,-0.0268 1.5604,0.0265 2.0459,0.0716l0.9004,-0.3486l2.344,-2.3092l0.9003,3.6437c0,0 2.0491,1.4938 2.6346,2.5371c0.8846,1.5761 0.829,3.2642 0.829,3.2642c0,0 2.3406,0.3571 2.8049,2.391c0.4638,2.0339 -1.0634,4.0964 -4.0595,5.3375zM284.3048,69.9093l0.642,0.6433M290.7042,69.7216c0,0 -0.736,-0.3259 -1.3669,-0.4309" stroke="#000000"/><path d="M299.5534,78.5985c0.4643,2.0339 -1.1455,3.9554 -4.1419,5.1962c-1.1282,0.4663 -2.5623,0.8846 -3.5189,1.0209c-0.8697,0.124 -3.2118,0.1855 -3.2118,0.1855c-0.342,-0.0909 -0.5344,-0.1536 -1.0954,-0.3593c-2.0199,-0.7414 -4.9138,-2.2727 -4.7583,-4.9221c0.0237,-0.4063 0.2079,-0.7291 0.4707,-0.9852c0.7887,-0.7679 2.2853,-0.9326 2.2853,-0.9326l2.4557,-1.078c0,0 2.1582,1.0184 3.5371,0.7184c0.4306,-0.0937 0.7262,-0.2634 0.93,-0.4527c0.4464,-0.4146 0.448,-0.9222 0.448,-0.9253l2.8749,-0.8395l0.9089,0.9802c0,0 2.3506,0.3584 2.8157,2.3935z" stroke="none"/></g><g><path d="M287.7441,73.9026c0.9231,1.4134 0.8259,3.1113 -0.2151,3.7905c-1.042,0.6811 -2.6349,0.0858 -3.557,-1.3275c-0.9237,-1.4134 -0.8278,-3.1106 0.2139,-3.7911c1.0417,-0.6802 2.6342,-0.0858 3.5582,1.3281" fill="#ffffff" stroke="#000000"/><path d="M287.1801,75.7602c0,0.341 -0.2534,0.6173 -0.5682,0.6173c-0.313,0 -0.5691,-0.2769 -0.5691,-0.6173c0,-0.3408 0.2561,-0.6174 0.5691,-0.6174c0.3142,0 0.5682,0.2766 0.5682,0.6174" fill="#000000" stroke="none"/></g><g><path d="M295.2282,72.9307c0.9227,1.413 1.0357,2.9714 0.1552,3.5469c-0.8811,0.5757 -2.2654,-0.1742 -3.1876,-1.5882c-0.9253,-1.4133 -0.9713,-2.8815 -0.0902,-3.4573c0.8792,-0.5751 2.1992,0.0846 3.1226,1.4986" fill="#ffffff" stroke="#000000"/><path d="M295.0701,75.1339c0,0.3408 -0.253,0.6171 -0.5678,0.6171c-0.3133,0 -0.5692,-0.2767 -0.5692,-0.6171c0,-0.3407 0.2559,-0.6177 0.5692,-0.6177c0.3148,0 0.5678,0.277 0.5678,0.6177" fill="#000000" stroke="none"/></g><path d="M291.4977,76.8388c0.5849,0 1.4373,-0.0896 1.4814,0.1795c0.0458,0.2697 -0.5391,1.3259 -0.9423,1.3707c-0.4044,0.0448 -1.9323,-0.7423 -1.954,-1.2363c-0.0234,-0.4941 0.8751,-0.3139 1.4149,-0.3139" fill="#000000" stroke="#000000"/><path d="M279.5771,78.2471c-0.0073,-0.0054 -0.7515,-0.5553 -1.8935,-1.0607c-1.2657,-0.5606 -1.9758,-0.7129 -1.9825,-0.7145l0.0773,-0.3707c0.03,0.0063 0.7512,0.1596 2.0585,0.7388c1.1834,0.524 1.9348,1.0802 1.9661,1.1036l-0.2259,0.3035z" fill="#000000" stroke="none"/><path d="M277.6457,79.7147c-0.642,0 -1.6064,-0.0871 -1.6524,-0.0912l0.0337,-0.377c0.013,0.0012 1.2897,0.1158 1.8572,0.0839c0.5742,-0.0328 1.7074,-0.1823 1.7184,-0.1839l0.0496,0.3751c-0.0467,0.0063 -1.1578,0.1527 -1.7468,0.1864c-0.0764,0.0048 -0.1647,0.0067 -0.2597,0.0067z" fill="#000000" stroke="none"/><path d="M298.4344,77.8915l-0.0612,-0.3738c0.0145,-0.0022 1.4272,-0.2347 2.1329,-0.4805c0.8117,-0.282 1.3647,-0.7619 1.3707,-0.7666l0.2496,0.2846c-0.0246,0.0214 -0.6146,0.5334 -1.496,0.8394c-0.7363,0.2568 -2.137,0.4871 -2.196,0.4969z" fill="#000000" stroke="none"/><path d="M301.2822,80.2589c-0.2562,0 -0.601,-0.0111 -1.0061,-0.0515c-0.9016,-0.0902 -1.7616,-0.435 -1.7979,-0.4498l0.142,-0.3509c0.0085,0.0035 0.8473,0.3392 1.6934,0.424c0.843,0.0843 1.4254,0.0351 1.4307,0.0348l0.0328,0.3769c-0.0135,0.0013 -0.193,0.0165 -0.4949,0.0165z" fill="#000000" stroke="none"/><path d="M287.3993,79.1446c0,0 3.2642,0.9635 4.4851,1.2291c1.22,0.2656 3.4233,0.5312 3.4233,0.5312c0,0 -2.5204,3.2321 -5.4663,2.4119c-2.9462,-0.8193 -2.8932,-2.6769 -2.4421,-4.1722z" fill="#ffffff" stroke="#000000"/></g><path d="M284.84021,91.28922c0,0 -2.60855,1.83148 -5.04166,2.4845l0.0254,0.0635c0.3683,0.53872 1.73342,2.21455 -0.09865,2.80466c-1.57511,0.50741 -4.46572,-3.87029 -3.196,-4.69639c0.77559,-0.50594 1.44486,-0.07443 1.44486,-0.07443c0,0 1.02635,-0.31573 1.77241,-0.6926c1.27119,-0.63855 1.70832,-1.01985 1.70832,-1.01985c0,0 1.23605,-1.27208 2.02493,-1.22187c0.78829,0.05021 2.37995,1.39199 1.36039,2.35248zM279.12751,93.98371l0.67074,-0.21" fill="#000000" stroke="#000000"/><g fill="#000000"><path d="M283.34868,88.19393c0.23894,0.1397 0.72391,0.39134 0.02658,1.40115c-0.69733,1.0101 -2.73703,1.19588 -2.97685,1.20356c-0.91352,0.02451 -2.04059,0.02333 -3.27575,-0.3875c-3.5841,-1.18997 -3.60595,-5.05259 -2.46707,-5.66928c1.13829,-0.6161 1.65308,1.77447 3.26305,3.22347c0.71977,0.64771 1.57334,0.90171 2.28661,1.03491c1.00892,0.18843 2.9042,-0.94542 3.14343,-0.80631z" stroke="#000000"/><path d="M276.28859,86.12233c0.34615,0.5399 0.74222,1.13061 1.23339,1.66578c-0.29328,-0.04844 -1.18613,-0.14236 -1.72869,0.31337c-0.50712,0.42619 -0.13793,1.13238 -0.21915,1.29335c-1.14124,-1.0101 -1.42566,-2.20864 -1.46731,-2.67943c-0.07738,-0.87926 0.16451,-1.65279 0.58893,-1.88257c0.54168,-0.29269 0.91854,0.24071 1.59283,1.28951z" stroke="none"/></g><path d="M288.94265,86.00714c0.27556,-1.0482 0.56265,-0.82433 0.56265,-0.82433c0.15979,0.1205 0.33641,0.26936 0.51066,0.4448c0.53045,0.53163 0.98795,1.63832 2.02493,1.26617c1.03639,-0.37185 1.67346,-1.79958 2.86964,-0.71032c1.19529,1.08985 -1.06681,2.47357 -1.91654,2.89947c-0.85239,0.42413 -1.59549,0.82256 -2.63188,-0.21383c-1.03669,-1.03698 -1.40115,-1.08601 -1.40115,-1.08601c-0.59277,-0.43387 -0.29447,-0.73011 -0.01831,-1.77595z" fill="#000000" stroke="#000000"/><g fill="#000000"><path d="M286.2452,88.85581c0,0 2.25885,2.27805 3.28579,3.18124c0.62703,0.54995 1.98683,1.71156 1.98683,1.71156c0,0 4.93179,-0.85032 4.36383,2.04088c-0.16569,0.8512 -5.7694,0.20497 -5.7694,0.20497c0,0 -2.13008,-1.72161 -3.55722,-3.13162c-1.73194,-1.71216 -3.17946,-2.8469 -3.17946,-2.8469c-2.52053,-2.44876 -0.49087,-3.48663 0.31219,-4.89162c0.80306,-1.4044 1.74966,-0.86066 2.81086,-0.65952c1.06061,0.20025 1.80667,0.14325 2.26535,0.22919c1.13297,0.21265 0.8199,1.41031 0.56146,2.15489c0,0 -0.41438,1.07833 -0.79715,1.64718c-0.45927,0.68315 -0.81606,1.12293 -1.16694,1.39229" stroke="#000000"/><path d="M288.91843,87.41154c-0.21059,0.60843 -0.67724,1.31077 -1.563,2.34332l-0.90437,-0.91234c0,0 -1.79781,-1.16841 -1.0166,-1.95228c0.45071,-0.45396 1.12234,-1.23398 2.58138,-0.44953c0.64328,0.34674 0.86066,0.6929 0.9026,0.97082z" stroke="none"/></g><path d="M282.04323,86.95581c0.37244,0.58332 2.95057,2.3386 0.90378,3.29495c-2.0459,0.95605 -3.18862,-1.96645 -3.4819,-3.00373c-0.2921,-1.03698 0.63796,-1.30191 1.27563,-1.83384c1.18495,-0.98677 1.91388,-1.99244 3.40245,-1.46052c1.48857,0.53075 0.39902,1.72692 -0.31809,2.25826c-0.58007,0.42974 -1.21242,0.91146 -1.43364,1.0801" fill="#000000" stroke="#000000"/><g><g fill="#000000"><path d="M295.05821,83.43551c-1.05618,0.43683 -2.07751,0.76467 -2.96976,0.91795c-0.75374,0.12936 -2.26653,0.28915 -3.04803,0.28915c-0.93538,0 -2.93521,-0.11135 -4.13493,-0.51303c-1.60671,-0.53843 -3.62692,-1.94548 -4.6072,-3.52857c-2.08991,-3.37233 1.21774,-7.38557 1.02694,-7.15342l3.14402,-3.06753c0,0 1.32849,-0.53488 2.72521,-0.60134c0.52189,-0.0251 1.46081,0.02481 1.91536,0.06704l0.84293,-0.32636l3.0374,1.24934c0,0 1.91831,1.39849 2.46648,2.37522c0.82817,1.47558 0.77618,3.05601 0.77618,3.05601c0,0 2.19122,0.33434 2.62597,2.23847c0.43417,1.90413 -0.99563,3.83515 -3.80059,4.99706zM284.47043,70.38007l0.60104,0.60222M290.46164,70.20434c0,0 -0.68906,-0.3051 -1.27976,-0.40345" stroke="#000000"/><path d="M298.74627,78.51495c0.43476,1.90413 -1.07242,3.70312 -3.87768,4.86474c-1.05618,0.43653 -2.39885,0.82817 -3.29436,0.95576c-0.81429,0.11607 -3.00698,0.17367 -3.00698,0.17367c-0.32016,-0.08506 -0.50033,-0.14384 -1.02546,-0.33641c-1.89114,-0.69408 -4.6004,-2.12772 -4.45479,-4.60808c0.02215,-0.38041 0.19464,-0.68256 0.44067,-0.92238c0.73838,-0.71889 2.13953,-0.87306 2.13953,-0.87306l2.29902,-1.00922c0,0 2.0205,0.9534 3.31149,0.67252c0.40316,-0.08772 0.6799,-0.24662 0.8707,-0.42383c0.41792,-0.38809 0.4194,-0.86331 0.4194,-0.86627l2.69154,-0.78593l0.85091,0.91766c0,0 2.20067,0.33552 2.63602,2.24084z" stroke="none"/></g><g><path d="M287.69036,74.11864c0.8642,1.32318 0.77323,2.91276 -0.20143,3.54865c-0.97555,0.63766 -2.46678,0.08034 -3.33009,-1.24284c-0.86479,-1.32318 -0.775,-2.91217 0.20025,-3.54924c0.97525,-0.63678 2.46619,-0.08034 3.33127,1.24343" fill="#ffffff" stroke="#000000"/><path d="M287.16227,75.85767c0,0.31928 -0.23717,0.578 -0.53193,0.578c-0.29299,0 -0.53281,-0.25932 -0.53281,-0.578c0,-0.31898 0.23983,-0.578 0.53281,-0.578c0.29417,0 0.53193,0.25902 0.53193,0.578" fill="#000000" stroke="none"/></g><g><path d="M294.69699,73.20866c0.8639,1.32288 0.96964,2.78192 0.14531,3.32064c-0.82492,0.53902 -2.12092,-0.16303 -2.98424,-1.4868c-0.86627,-1.32318 -0.90939,-2.69774 -0.08447,-3.23676c0.82315,-0.53843 2.0589,0.07915 2.92339,1.40292" fill="#ffffff" stroke="#000000"/><path d="M294.54902,75.2714c0,0.31898 -0.23687,0.57771 -0.53163,0.57771c-0.29328,0 -0.53281,-0.25902 -0.53281,-0.57771c0,-0.31898 0.23953,-0.5783 0.53281,-0.5783c0.29476,0 0.53163,0.25932 0.53163,0.5783" fill="#000000" stroke="none"/></g><path d="M291.20445,76.86748c0.54758,0 1.34562,-0.08388 1.38697,0.16806c0.04283,0.25253 -0.50476,1.24136 -0.88222,1.2833c-0.37864,0.04194 -1.80903,-0.69496 -1.82941,-1.15748c-0.02186,-0.46252 0.81931,-0.29388 1.32465,-0.29388" fill="#000000" stroke="#000000"/><path d="M280.04429,78.18593c-0.00679,-0.00502 -0.70353,-0.51982 -1.7727,-0.99297c-1.18495,-0.52484 -1.84979,-0.6675 -1.85599,-0.66897l0.07236,-0.34704c0.02806,0.00591 0.70323,0.14945 1.92717,0.69171c1.10787,0.49058 1.81139,1.01129 1.84063,1.03314l-0.21147,0.28413z" fill="#000000" stroke="none"/><path d="M278.23614,79.55991c-0.60104,0 -1.50393,-0.08152 -1.54705,-0.08536l0.0316,-0.35295c0.01211,0.00118 1.2074,0.10839 1.73874,0.07856c0.53754,-0.03072 1.59844,-0.17071 1.60878,-0.17219l0.04637,0.35117c-0.04371,0.00591 -1.08394,0.14295 -1.63536,0.17455c-0.07148,0.00443 -0.15417,0.0062 -0.24307,0.0062z" fill="#000000" stroke="none"/><path d="M297.69865,77.85307l-0.0573,-0.34999c0.01359,-0.00207 1.33617,-0.21974 1.99687,-0.44982c0.75994,-0.26404 1.27769,-0.71327 1.2833,-0.71771l0.23362,0.26641c-0.02304,0.02008 -0.57535,0.49944 -1.40056,0.78593c-0.68935,0.24042 -2.00071,0.45602 -2.05594,0.46518z" fill="#000000" stroke="none"/><path d="M300.36479,80.06939c-0.23983,0 -0.56265,-0.01034 -0.94188,-0.04814c-0.84412,-0.08447 -1.64925,-0.40729 -1.68321,-0.42117l0.13291,-0.32843c0.00797,0.00325 0.79332,0.3175 1.58545,0.39695c0.78918,0.07886 1.3344,0.03278 1.33942,0.03249l0.03072,0.35295c-0.0127,0.00118 -0.18076,0.01536 -0.46341,0.01536z" fill="#000000" stroke="none"/><path d="M287.36754,79.0262c0,0 3.05601,0.902 4.19902,1.15069c1.14213,0.24869 3.20486,0.49737 3.20486,0.49737c0,0 -2.35957,3.02588 -5.11756,2.25797c-2.75829,-0.76703 -2.70867,-2.50606 -2.28632,-3.90603z" fill="#ffffff" stroke="#000000"/></g><path d="M284.58949,90.84075c0,0 -2.61696,1.83739 -5.05793,2.49252l0.02548,0.0637c0.36949,0.54046 1.73902,2.2217 -0.09896,2.81372c-1.5802,0.50905 -4.48014,-3.88279 -3.20632,-4.71155c0.77809,-0.50758 1.44952,-0.07467 1.44952,-0.07467c0,0 1.02966,-0.31676 1.77813,-0.69484c1.2753,-0.64062 1.71383,-1.02315 1.71383,-1.02315c0,0 1.24004,-1.27619 2.03147,-1.22581c0.79083,0.05037 2.38762,1.39649 1.36478,2.36007zM278.85835,93.54395l0.67292,-0.21068" fill="#000000" stroke="#000000"/><g fill="#000000"><path d="M283.09315,87.73546c0.23971,0.14016 0.72624,0.39261 0.02666,1.40568c-0.69957,1.01336 -2.74586,1.19974 -2.98646,1.20744c-0.91647,0.0246 -2.04717,0.02341 -3.28632,-0.38875c-3.59567,-1.19382 -3.61759,-5.0689 -2.47504,-5.68759c1.14196,-0.61809 1.65842,1.7802 3.27358,3.23388c0.7221,0.6498 1.57842,0.90462 2.294,1.03826c1.01218,0.18904 2.91357,-0.94847 3.15358,-0.80892z" stroke="#000000"/><path d="M276.01027,85.65717c0.34727,0.54165 0.74461,1.13426 1.23737,1.67116c-0.29423,-0.04859 -1.18996,-0.14281 -1.73428,0.31438c-0.50875,0.42757 -0.13837,1.13604 -0.21986,1.29752c-1.14492,-1.01336 -1.43027,-2.21577 -1.47204,-2.68808c-0.07764,-0.88211 0.16504,-1.65813 0.59082,-1.88865c0.54343,-0.29364 0.92151,0.24149 1.59798,1.29367z" stroke="none"/></g><path d="M288.70518,85.54162c0.27645,-1.05159 0.56446,-0.82699 0.56446,-0.82699c0.1603,0.12089 0.33749,0.27023 0.51231,0.44624c0.53217,0.53335 0.99115,1.64361 2.03147,1.27026c1.03974,-0.37305 1.67886,-1.80539 2.8789,-0.71261c1.19915,1.09336 -1.07025,2.48156 -1.92272,2.90884c-0.85514,0.42549 -1.60065,0.8252 -2.64038,-0.21453c-1.04003,-1.04033 -1.40568,-1.08951 -1.40568,-1.08951c-0.59468,-0.43527 -0.29541,-0.73247 -0.01837,-1.78169z" fill="#000000" stroke="#000000"/><g fill="#000000"><path d="M285.99902,88.39949c0,0 2.26614,2.28541 3.2964,3.19151c0.62905,0.55172 1.99325,1.71709 1.99325,1.71709c0,0 4.9477,-0.85307 4.37791,2.04747c-0.16623,0.85396 -5.78803,0.20564 -5.78803,0.20564c0,0 -2.13696,-1.72717 -3.5687,-3.14173c-1.73754,-1.71768 -3.18974,-2.85609 -3.18974,-2.85609c-2.52867,-2.45667 -0.49245,-3.49789 0.3132,-4.90742c0.80565,-1.40893 1.75532,-0.86343 2.81994,-0.66165c1.06403,0.2009 1.81251,0.14371 2.27267,0.22993c1.13663,0.21334 0.82254,1.41485 0.56328,2.16184c0,0 -0.41572,1.08182 -0.79974,1.6525c-0.46075,0.68535 -0.81869,1.12655 -1.1707,1.39678" stroke="#000000"/><path d="M288.68089,86.95055c-0.21127,0.61039 -0.67944,1.315 -1.56805,2.35088l-0.90729,-0.91528c0,0 -1.80361,-1.17219 -1.01989,-1.95858c0.45216,-0.45543 1.12596,-1.23797 2.58971,-0.45098c0.64535,0.34787 0.86343,0.69513 0.90551,0.97396z" stroke="none"/></g><path d="M281.78348,86.49335c0.37364,0.5852 2.96009,2.34615 0.9067,3.30559c-2.05251,0.95914 -3.19892,-1.97281 -3.49315,-3.01343c-0.29305,-1.04033 0.64002,-1.30612 1.27975,-1.83976c1.18878,-0.98996 1.92007,-1.99888 3.41345,-1.46524c1.49338,0.53246 0.4003,1.7325 -0.31912,2.26556c-0.58194,0.43112 -1.21634,0.9144 -1.43826,1.08359" fill="#000000" stroke="#000000"/><g><g fill="#000000"><path d="M294.50607,82.86626c-1.05958,0.43823 -2.08421,0.76714 -2.97935,0.92091c-0.75617,0.12979 -2.27385,0.29009 -3.05787,0.29009c-0.9384,0 -2.94469,-0.1117 -4.14827,-0.51469c-1.61191,-0.54016 -3.63864,-1.95176 -4.62207,-3.53996c-2.09666,-3.38322 1.22167,-7.40942 1.03025,-7.17652l3.15418,-3.07743c0,0 1.33278,-0.53661 2.73401,-0.60328c0.52357,-0.02519 1.46553,0.02489 1.92154,0.06725l3.89286,0.92596c0,0 1.9245,1.403 2.47445,2.38289c0.83083,1.48033 0.77869,3.06587 0.77869,3.06587c0,0 2.19829,0.33542 2.63446,2.2457c0.43557,1.91029 -0.99885,3.84753 -3.81286,5.01319zM284.31395,69.76867l0.60298,0.60417M290.3245,69.59237c0,0 -0.69128,-0.30608 -1.28389,-0.40475" stroke="#000000"/><path d="M305.06106,77.4527c0.43616,1.91028 -7.50107,4.1922 -10.31538,5.35756c-1.05959,0.43795 -2.40659,0.83084 -3.30499,0.95885c-0.81692,0.11645 -3.01669,0.17423 -3.01669,0.17423c-0.3212,-0.08534 -0.50194,-0.1443 -1.02877,-0.33749c-1.89724,-0.69632 -4.61525,-2.13459 -4.46918,-4.62296c0.02222,-0.38164 0.19526,-0.68476 0.44209,-0.92536c0.74076,-0.72121 2.14644,-0.87588 2.14644,-0.87588l2.30644,-1.01247c0,0 2.02703,0.95648 3.32218,0.67469c0.40445,-0.08801 0.68209,-0.24741 0.87351,-0.4252c0.41927,-0.38935 0.42075,-0.8661 0.42075,-0.86907l2.70023,-0.78847l0.85366,0.92062c0,0 8.63296,-0.14051 9.06971,1.77096z" stroke="none"/></g><g fill="#ffffff"><path d="M287.54427,73.51931c0.86699,1.32745 0.77573,2.92217 -0.20208,3.56011c-0.97869,0.63972 -2.47474,0.0806 -3.34085,-1.24685c-0.86758,-1.32746 -0.7775,-2.92158 0.2009,-3.56071c0.97841,-0.63884 2.47415,-0.08059 3.34203,1.24745" stroke="#000000"/><path d="M287.01447,75.26396c0,0.3203 -0.23794,0.57987 -0.53365,0.57987c-0.29393,0 -0.53453,-0.26016 -0.53453,-0.57987c0,-0.32001 0.2406,-0.57987 0.53453,-0.57987c0.29512,0 0.53365,0.25986 0.53365,0.57987" stroke="none"/></g><g fill="#ffffff"><path d="M294.57352,72.60639c0.86669,1.32715 0.97277,2.7909 0.14578,3.33136c-0.82758,0.54076 -2.12777,-0.16357 -2.99387,-1.49161c-0.86906,-1.32745 -0.91233,-2.70645 -0.08475,-3.24721c0.82581,-0.54016 2.06555,0.07941 2.93283,1.40745" stroke="#000000"/><path d="M294.42507,74.67578c0,0.32001 -0.23763,0.57957 -0.53335,0.57957c-0.29423,0 -0.53454,-0.25986 -0.53454,-0.57957c0,-0.32001 0.24031,-0.58017 0.53454,-0.58017c0.29572,0 0.53335,0.26015 0.53335,0.58017" stroke="none"/></g><path d="M291.06971,76.27702c0.54935,0 1.34997,-0.08415 1.39145,0.16859c0.04297,0.25334 -0.50639,1.24537 -0.88506,1.28745c-0.37986,0.04208 -1.81487,-0.6972 -1.83531,-1.16122c-0.02193,-0.46402 0.82195,-0.29482 1.32893,-0.29482" fill="#000000" stroke="#000000"/><path d="M279.87351,77.59973c-0.00682,-0.00504 -0.7058,-0.5215 -1.77843,-0.99617c-1.18878,-0.52654 -1.85576,-0.66965 -1.86198,-0.67113l0.07259,-0.34816c0.02815,0.00593 0.70551,0.14993 1.9334,0.69395c1.11145,0.49217 1.81724,1.01455 1.84658,1.03648l-0.21216,0.28504z" fill="#000000" stroke="none"/><path d="M278.05953,78.97814c-0.60298,0 -1.50879,-0.08178 -1.55205,-0.08563l0.0317,-0.35408c0.01215,0.00118 1.2113,0.10874 1.74435,0.07881c0.53928,-0.03081 1.6036,-0.17126 1.61398,-0.17275l0.04652,0.35231c-0.04386,0.00593 -1.08744,0.14341 -1.64065,0.17511c-0.0717,0.00445 -0.15467,0.00622 -0.24386,0.00622z" fill="#000000" stroke="none"/><path d="M297.58487,77.26579l-0.05748,-0.35112c0.01364,-0.00207 1.34049,-0.22045 2.00332,-0.45128c0.7624,-0.2649 1.28182,-0.71557 1.28745,-0.72002l0.23438,0.26727c-0.02311,0.02014 -0.57721,0.50105 -1.40509,0.78847c-0.69157,0.24119 -2.00717,0.45749 -2.06258,0.46668z" fill="#000000" stroke="none"/><path d="M300.25963,79.48927c-0.2406,0 -0.56446,-0.01037 -0.94492,-0.04829c-0.84684,-0.08475 -1.65457,-0.4086 -1.68865,-0.42254l0.13334,-0.32949c0.008,0.00325 0.79587,0.31853 1.59057,0.39823c0.79172,0.07912 1.33871,0.03289 1.34375,0.0326l0.03081,0.35409c-0.01274,0.00118 -0.18134,0.0154 -0.4649,0.0154z" fill="#000000" stroke="none"/><path d="M291.13278,80.35119c0,0 2.39791,0.10972 3.54461,0.35921c1.14582,0.24949 3.59691,-1.72757 3.59691,-1.72757c0,0 -1.2221,4.467 -3.989,3.69661c-2.7672,-0.76951 -3.57623,-0.92375 -3.15251,-2.32824z" fill="#ffffff" stroke="#000000"/></g></g></g></svg>