<svg version="1.1" xmlns="http://www.w3.org/2000/svg" xmlns:xlink="http://www.w3.org/1999/xlink" width="36.52888" height="31.78784" viewBox="0,0,36.52888,31.78784"><g transform="translate(-109.50395,-203.37398)"><g data-paper-data="{&quot;isPaintingLayer&quot;:true}" fill-rule="nonzero" stroke-linecap="butt" stroke-linejoin="miter" stroke-miterlimit="10" stroke-dasharray="" stroke-dashoffset="0" style="mix-blend-mode: normal"><path d="M123.6998,229.2432c0,0 -2.7863,1.9562 -5.3852,2.6537l0.0271,0.0679c0.3934,0.5754 1.8516,2.3654 -0.1053,2.9957c-1.6825,0.542 -4.77,-4.134 -3.4138,-5.0164c0.8284,-0.5404 1.5433,-0.0795 1.5433,-0.0795c0,0 1.0963,-0.3372 1.8932,-0.7397c1.3578,-0.6821 1.8247,-1.0894 1.8247,-1.0894c0,0 1.3203,-1.3587 2.1629,-1.3051c0.842,0.0536 2.5421,1.4868 1.4531,2.5128zM117.5978,232.1212l0.7165,-0.2243" fill="#000000" stroke="#000000" stroke-width="0.31548"/><g fill="#000000" stroke-width="0.31548"><path d="M122.1066,225.937c0.2553,0.1492 0.7733,0.418 0.0284,1.4966c-0.7448,1.0789 -2.9235,1.2774 -3.1797,1.2856c-0.9757,0.0261 -2.1796,0.0249 -3.4989,-0.414c-3.8283,-1.271 -3.8517,-5.3968 -2.6352,-6.0555c1.2159,-0.6581 1.7657,1.8954 3.4854,3.4431c0.7688,0.6918 1.6805,0.9631 2.4424,1.1054c1.0777,0.2013 3.1021,-1.0098 3.3576,-0.8612z" stroke="#000000"/><path d="M114.5655,223.7242c0.3697,0.5767 0.7928,1.2077 1.3174,1.7793c-0.3133,-0.0517 -1.2669,-0.1521 -1.8465,0.3347c-0.5416,0.4553 -0.1473,1.2096 -0.234,1.3815c-1.219,-1.0789 -1.5229,-2.3591 -1.5673,-2.862c-0.0827,-0.9392 0.1757,-1.7654 0.629,-2.0108c0.5786,-0.3127 0.9812,0.2571 1.7014,1.3773z" stroke="none"/></g><path d="M128.0817,223.6012c0.2944,-1.1196 0.601,-0.8805 0.601,-0.8805c0.1707,0.1287 0.3594,0.2877 0.5455,0.4751c0.5666,0.5679 1.0553,1.7499 2.1629,1.3524c1.107,-0.3971 1.7875,-1.9222 3.0652,-0.7587c1.2767,1.1641 -1.1395,2.6421 -2.0472,3.0971c-0.9104,0.453 -1.7042,0.8786 -2.8112,-0.2285c-1.1073,-1.1076 -1.4966,-1.16 -1.4966,-1.16c-0.6332,-0.4634 -0.3145,-0.7798 -0.0196,-1.8969z" fill="#000000" stroke="#000000" stroke-width="0.31548"/><g fill="#000000" stroke-width="0.31548"><path d="M125.2005,226.644c0,0 2.4128,2.4332 3.5097,3.3979c0.6697,0.5875 2.1222,1.8282 2.1222,1.8282c0,0 5.2678,-0.9082 4.6611,2.18c-0.1769,0.9092 -6.1625,0.2189 -6.1625,0.2189c0,0 -2.2752,-1.8389 -3.7996,-3.345c-1.8499,-1.8288 -3.3961,-3.0409 -3.3961,-3.0409c-2.6922,-2.6156 -0.5243,-3.7242 0.3335,-5.2249c0.8578,-1.5001 1.8689,-0.9193 3.0024,-0.7044c1.1329,0.2139 1.9298,0.153 2.4197,0.2448c1.2102,0.2271 0.8757,1.5064 0.5997,2.3017c0,0 -0.4426,1.1518 -0.8515,1.7594c-0.4905,0.7297 -0.8716,1.1994 -1.2464,1.4872" stroke="#000000"/><path d="M128.0559,225.1013c-0.225,0.6499 -0.7234,1.4001 -1.6695,2.503l-0.966,-0.9745c0,0 -1.9203,-1.2481 -1.0859,-2.0853c0.4814,-0.4849 1.1988,-1.3181 2.7573,-0.4802c0.6871,0.3704 0.9193,0.7401 0.9641,1.037z" stroke="none"/></g><path d="M120.7122,224.6145c0.3978,0.6231 3.1516,2.4979 0.9654,3.5194c-2.1853,1.0212 -3.4059,-2.1004 -3.7192,-3.2083c-0.312,-1.1077 0.6815,-1.3907 1.3626,-1.9588c1.2657,-1.054 2.0443,-2.1282 3.6343,-1.5601c1.59,0.5669 0.4262,1.8446 -0.3398,2.4122c-0.6196,0.459 -1.295,0.9735 -1.5313,1.1537" fill="#000000" stroke="#000000" stroke-width="0.31548"/><g><g fill="#000000" stroke-width="0.31548"><path d="M134.614,220.8543c-1.1281,0.4666 -2.2191,0.8168 -3.1721,0.9805c-0.8051,0.1382 -2.421,0.3089 -3.2557,0.3089c-0.9991,0 -3.1352,-0.119 -4.4167,-0.548c-1.7162,-0.5751 -3.874,-2.078 -4.9211,-3.769c-2.2323,-3.6021 1.3007,-7.8888 1.0969,-7.6408l-0.7045,-5.9657l4.0627,2.6891c0,0 1.4191,-0.5713 2.9109,-0.6423c0.5575,-0.0268 1.5604,0.0265 2.0459,0.0716l0.9004,-0.3486l2.344,-2.3092l0.9003,3.6437c0,0 2.0491,1.4938 2.6346,2.5371c0.8846,1.5761 0.829,3.2642 0.829,3.2642c0,0 2.3406,0.3571 2.8049,2.391c0.4638,2.0339 -1.0634,4.0964 -4.0595,5.3375zM123.3048,206.9093l0.642,0.6433M129.7042,206.7216c0,0 -0.736,-0.3259 -1.3669,-0.4309" stroke="#000000"/><path d="M138.5534,215.5985c0.4643,2.0339 -1.1455,3.9554 -4.1419,5.1962c-1.1282,0.4663 -2.5623,0.8846 -3.5189,1.0209c-0.8697,0.124 -3.2118,0.1855 -3.2118,0.1855c-0.342,-0.0909 -0.5344,-0.1536 -1.0954,-0.3593c-2.0199,-0.7414 -4.9138,-2.2727 -4.7583,-4.9221c0.0237,-0.4063 0.2079,-0.7291 0.4707,-0.9852c0.7887,-0.7679 2.2853,-0.9326 2.2853,-0.9326l2.4557,-1.078c0,0 2.1582,1.0184 3.5371,0.7184c0.4306,-0.0937 0.7262,-0.2634 0.93,-0.4527c0.4464,-0.4146 0.448,-0.9222 0.448,-0.9253l2.8749,-0.8395l0.9089,0.9802c0,0 2.3506,0.3584 2.8157,2.3935z" stroke="none"/></g><g stroke-width="0.31548"><path d="M126.7441,210.9026c0.9231,1.4134 0.8259,3.1113 -0.2151,3.7905c-1.042,0.6811 -2.6349,0.0858 -3.557,-1.3275c-0.9237,-1.4134 -0.8278,-3.1106 0.2139,-3.7911c1.0417,-0.6802 2.6342,-0.0858 3.5582,1.3281" fill="#ffffff" stroke="#000000"/><path d="M126.1801,212.7602c0,0.341 -0.2534,0.6173 -0.5682,0.6173c-0.313,0 -0.5691,-0.2769 -0.5691,-0.6173c0,-0.3408 0.2561,-0.6174 0.5691,-0.6174c0.3142,0 0.5682,0.2766 0.5682,0.6174" fill="#000000" stroke="none"/></g><g stroke-width="0.31548"><path d="M134.2282,209.9307c0.9227,1.413 1.0357,2.9714 0.1552,3.5469c-0.8811,0.5757 -2.2654,-0.1742 -3.1876,-1.5882c-0.9253,-1.4133 -0.9713,-2.8815 -0.0902,-3.4573c0.8792,-0.5751 2.1992,0.0846 3.1226,1.4986" fill="#ffffff" stroke="#000000"/><path d="M134.0701,212.1339c0,0.3408 -0.253,0.6171 -0.5678,0.6171c-0.3133,0 -0.5692,-0.2767 -0.5692,-0.6171c0,-0.3407 0.2559,-0.6177 0.5692,-0.6177c0.3148,0 0.5678,0.277 0.5678,0.6177" fill="#000000" stroke="none"/></g><path d="M130.4977,213.8388c0.5849,0 1.4373,-0.0896 1.4814,0.1795c0.0458,0.2697 -0.5391,1.3259 -0.9423,1.3707c-0.4044,0.0448 -1.9323,-0.7423 -1.954,-1.2363c-0.0234,-0.4941 0.8751,-0.3139 1.4149,-0.3139" fill="#000000" stroke="#000000" stroke-width="0.31548"/><path d="M118.5771,215.2471c-0.0073,-0.0054 -0.7515,-0.5553 -1.8935,-1.0607c-1.2657,-0.5606 -1.9758,-0.7129 -1.9825,-0.7145l0.0773,-0.3707c0.03,0.0063 0.7512,0.1596 2.0585,0.7388c1.1834,0.524 1.9348,1.0802 1.9661,1.1036z" fill="#000000" stroke="none" stroke-width="0.31548"/><path d="M116.6457,216.7147c-0.642,0 -1.6064,-0.0871 -1.6524,-0.0912l0.0337,-0.377c0.013,0.0012 1.2897,0.1158 1.8572,0.0839c0.5742,-0.0328 1.7074,-0.1823 1.7184,-0.1839l0.0496,0.3751c-0.0467,0.0063 -1.1578,0.1527 -1.7468,0.1864c-0.0764,0.0048 -0.1647,0.0067 -0.2597,0.0067z" fill="#000000" stroke="none" stroke-width="0.31548"/><path d="M137.4344,214.8915l-0.0612,-0.3738c0.0145,-0.0022 1.4272,-0.2347 2.1329,-0.4805c0.8117,-0.282 1.3647,-0.7619 1.3707,-0.7666l0.2496,0.2846c-0.0246,0.0214 -0.6146,0.5334 -1.496,0.8394c-0.7363,0.2568 -2.137,0.4871 -2.196,0.4969z" fill="#000000" stroke="none" stroke-width="0.31548"/><path d="M140.2822,217.2589c-0.2562,0 -0.601,-0.0111 -1.0061,-0.0515c-0.9016,-0.0902 -1.7616,-0.435 -1.7979,-0.4498l0.142,-0.3509c0.0085,0.0035 0.8473,0.3392 1.6934,0.424c0.843,0.0843 1.4254,0.0351 1.4307,0.0348l0.0328,0.3769c-0.0135,0.0013 -0.193,0.0165 -0.4949,0.0165z" fill="#000000" stroke="none" stroke-width="0.31548"/><path d="M126.3993,216.1446c0,0 3.2642,0.9635 4.4851,1.2291c1.22,0.2656 3.4233,0.5312 3.4233,0.5312c0,0 -2.5204,3.2321 -5.4663,2.4119c-2.9462,-0.8193 -2.8932,-2.6769 -2.4421,-4.1722z" fill="#ffffff" stroke="#000000" stroke-width="0.63095"/></g><path d="M123.47184,228.34738c0,0 -2.90795,1.87642 -5.62032,2.54546l0.02832,0.06506c0.41058,0.55194 1.93238,2.26889 -0.10997,2.87348c-1.7559,0.51986 -4.97828,-3.96526 -3.56283,-4.81163c0.86461,-0.51835 1.6107,-0.07625 1.6107,-0.07625c0,0 1.14415,-0.32348 1.97584,-0.70959c1.4171,-0.65422 1.90439,-1.04487 1.90439,-1.04487c0,0 1.37792,-1.30329 2.25735,-1.25185c0.87877,0.05144 2.65311,1.42615 1.51653,2.4102zM117.10347,231.10799l0.74773,-0.21515" fill="#000000" stroke="#000000" stroke-width="1"/><g fill="#000000" stroke-width="1"><path d="M121.80912,225.17615c0.26636,0.14313 0.80699,0.40094 0.02963,1.43553c-0.77736,1.03489 -3.05117,1.22522 -3.31852,1.23309c-1.01837,0.02512 -2.2748,0.02391 -3.65173,-0.39701c-3.99546,-1.21917 -4.01983,-5.17656 -2.75024,-5.80839c1.26893,-0.63122 1.84282,1.81801 3.63757,3.30256c0.80239,0.6636 1.75392,0.92383 2.54906,1.06031c1.12472,0.19306 3.23753,-0.96862 3.50422,-0.8261z" stroke="#000000"/><path d="M113.9387,223.05372c0.38588,0.55315 0.82741,1.15835 1.37495,1.70666c-0.32695,-0.04963 -1.32227,-0.14585 -1.92711,0.32106c-0.56532,0.43665 -0.15376,1.16016 -0.2443,1.32508c-1.27223,-1.03489 -1.5893,-2.26283 -1.63572,-2.74518c-0.08626,-0.90084 0.18339,-1.69334 0.65653,-1.92877c0.60385,-0.29988 1.02397,0.24662 1.77565,1.32115z" stroke="none"/></g><path d="M128.04514,222.9357c0.30719,-1.07392 0.62722,-0.84455 0.62722,-0.84455c0.17812,0.12346 0.37502,0.27597 0.56928,0.45571c0.59134,0.54468 1.10135,1.67852 2.25735,1.29724c1.15534,-0.38097 1.86554,-1.84374 3.19901,-0.72775c1.33248,1.11659 -1.18926,2.53427 -2.13651,2.97061c-0.95022,0.43453 -1.77862,0.84274 -2.93396,-0.21908c-1.15567,-1.06242 -1.56197,-1.11266 -1.56197,-1.11266c-0.66081,-0.44452 -0.32826,-0.74802 -0.02041,-1.81953z" fill="#000000" stroke="#000000" stroke-width="1"/><g fill="#000000" stroke-width="1"><path d="M125.03809,225.85427c0,0 2.51811,2.33395 3.66292,3.25929c0.699,0.56344 2.21487,1.75356 2.21487,1.75356c0,0 5.49784,-0.87118 4.86469,2.09096c-0.18471,0.87209 -6.43159,0.21 -6.43159,0.21c0,0 -2.37456,-1.76385 -3.9655,-3.20846c-1.93073,-1.75417 -3.54439,-2.91675 -3.54439,-2.91675c-2.80983,-2.50885 -0.54722,-3.57218 0.34802,-5.01164c0.89523,-1.43886 1.95048,-0.88177 3.13348,-0.6757c1.18234,0.20516 2.01403,0.14676 2.52536,0.23482c1.26301,0.21787 0.914,1.44491 0.62591,2.20776c0,0 -0.46194,1.10479 -0.88865,1.68759c-0.51199,0.69991 -0.90972,1.15048 -1.30087,1.42645" stroke="#000000"/><path d="M128.01814,224.37456c-0.23476,0.62335 -0.75497,1.34293 -1.7424,2.40082l-1.00817,-0.93473c0,0 -2.00415,-1.19708 -1.13328,-2.00018c0.50244,-0.46509 1.25115,-1.26426 2.87766,-0.46056c0.71711,0.35525 0.95944,0.7099 1.00619,0.99464z" stroke="none"/></g><path d="M120.35383,223.90765c0.41519,0.59763 3.28922,2.39598 1.00751,3.37579c-2.28072,0.97951 -3.5546,-2.0147 -3.88154,-3.07743c-0.32563,-1.06242 0.71118,-1.33386 1.42204,-1.87884c1.32096,-1.01098 2.13355,-2.04133 3.79297,-1.49635c1.65943,0.54377 0.44482,1.7693 -0.3546,2.31367c-0.64665,0.44028 -1.35158,0.93382 -1.59819,1.1066" fill="#000000" stroke="#000000" stroke-width="1"/><g><g fill="#000000" stroke-width="1"><path d="M134.86262,220.30097c-1.1774,0.44754 -2.31595,0.78343 -3.31062,0.94048c-0.84025,0.13254 -2.52667,0.29624 -3.39787,0.29624c-1.04274,0 -3.2721,-0.11408 -4.60952,-0.52561c-1.79113,-0.55164 -4.04321,-1.99322 -5.13599,-3.61515c-2.32978,-3.45507 1.3575,-7.56679 1.14481,-7.32895l3.50488,-3.14279c0,0 1.48097,-0.54801 3.038,-0.61609c0.58179,-0.02572 1.62848,0.02542 2.13519,0.06869l0.93968,-0.33437l3.38602,1.27999c0,0 2.13849,1.43281 2.74958,2.4335c0.92322,1.51178 0.86527,3.13099 0.86527,3.13099c0,0 2.44272,0.34254 2.92737,2.2934c0.484,1.95086 -1.10991,3.92925 -4.23681,5.11967zM123.05962,206.92519l0.67003,0.617M129.73848,206.74515c0,0 -0.76814,-0.31258 -1.42665,-0.41335" stroke="#000000"/><path d="M138.97398,215.25968c0.48466,1.95086 -1.19551,3.79399 -4.32274,4.98411c-1.1774,0.44724 -2.67418,0.84849 -3.67247,0.97921c-0.90775,0.11892 -3.35211,0.17793 -3.35211,0.17793c-0.35691,-0.08715 -0.55775,-0.14737 -1.14316,-0.34466c-2.1082,-0.71111 -5.12842,-2.17992 -4.9661,-4.72115c0.02469,-0.38975 0.21698,-0.69931 0.49124,-0.94502c0.82313,-0.73653 2.3851,-0.89448 2.3851,-0.89448l2.56289,-1.03398c0,0 2.25241,0.97679 3.69157,0.68902c0.44943,-0.08987 0.75794,-0.25267 0.97063,-0.43423c0.46589,-0.39761 0.46754,-0.8845 0.46754,-0.88752l3.00047,-0.80522l0.94857,0.94017c0,0 2.45325,0.34375 2.93857,2.29582z" stroke="none"/></g><g stroke-width="1"><path d="M126.64912,210.75549c0.96339,1.35564 0.86198,2.98423 -0.22455,3.63573c-1.08752,0.65331 -2.74991,0.08231 -3.71231,-1.27334c-0.96405,-1.35564 -0.86396,-2.98363 0.22323,-3.63633c1.08719,-0.6524 2.74925,-0.08231 3.71362,1.27394" fill="#ffffff" stroke="#000000"/><path d="M126.06042,212.53719c0,0.32711 -0.26439,0.59219 -0.59298,0.59219c-0.32662,0 -0.59397,-0.26568 -0.59397,-0.59219c0,-0.32681 0.26735,-0.59219 0.59397,-0.59219c0.32793,0 0.59298,0.26538 0.59298,0.59219" fill="#000000" stroke="none"/></g><g stroke-width="1"><path d="M134.45995,209.82318c0.96306,1.35534 1.08093,2.85018 0.16199,3.40212c-0.9196,0.55224 -2.36435,-0.16703 -3.32675,-1.52328c-0.96569,-1.35564 -1.01376,-2.76394 -0.09417,-3.31618c0.91762,-0.55164 2.29521,0.0811 3.25893,1.43734" fill="#ffffff" stroke="#000000"/><path d="M134.29499,211.93653c0,0.32681 -0.26406,0.59188 -0.59265,0.59188c-0.32695,0 -0.59397,-0.26538 -0.59397,-0.59188c0,-0.32681 0.26702,-0.59249 0.59397,-0.59249c0.32859,0 0.59265,0.26568 0.59265,0.59249" fill="#000000" stroke="none"/></g><path d="M130.56655,213.57178c0.61043,0 1.50007,-0.08594 1.54616,0.17218c0.04774,0.25872 -0.56269,1.27182 -0.98347,1.31479c-0.4221,0.04297 -2.01666,-0.71202 -2.03938,-1.18589c-0.02436,-0.47387 0.91334,-0.30109 1.47669,-0.30109" fill="#000000" stroke="#000000" stroke-width="1"/><path d="M118.12546,214.92258c-0.00757,-0.00514 -0.78428,-0.53257 -1.97617,-1.01734c-1.32096,-0.53772 -2.0621,-0.68387 -2.06901,-0.68539l0.08067,-0.35555c0.03128,0.00605 0.78395,0.15312 2.14836,0.70869c1.23502,0.50262 2.0193,1.0361 2.05189,1.05849l-0.23574,0.2911z" fill="#000000" stroke="none" stroke-width="1"/><path d="M116.10979,216.33027c-0.67003,0 -1.67655,-0.08352 -1.72462,-0.08745l0.03523,-0.36161c0.0135,0.00121 1.34598,0.11105 1.9383,0.08049c0.59924,-0.03147 1.78191,-0.1749 1.79343,-0.17642l0.05169,0.35979c-0.04873,0.00605 -1.20835,0.14646 -1.82306,0.17884c-0.07968,0.00454 -0.17187,0.00635 -0.27097,0.00635z" fill="#000000" stroke="none" stroke-width="1"/><path d="M137.80613,214.58155l-0.06387,-0.35858c0.01515,-0.00212 1.48953,-0.22513 2.22607,-0.46086c0.84716,-0.27052 1.42434,-0.73078 1.4306,-0.73532l0.26044,0.27294c-0.02568,0.02058 -0.64138,0.51169 -1.56131,0.80522c-0.76847,0.24632 -2.23035,0.46721 -2.29192,0.47659z" fill="#000000" stroke="none" stroke-width="1"/><path d="M140.77828,216.85225c-0.26735,0 -0.62722,-0.01059 -1.04998,-0.04932c-0.941,-0.08654 -1.83854,-0.41728 -1.8764,-0.43151l0.14816,-0.33649c0.00889,0.00333 0.88437,0.32529 1.76742,0.40669c0.87976,0.08079 1.48756,0.03359 1.49315,0.03329l0.03424,0.36161c-0.01416,0.00121 -0.2015,0.01574 -0.5166,0.01574z" fill="#000000" stroke="none" stroke-width="1"/><path d="M126.28925,215.78347c0,0 3.40676,0.92414 4.68097,1.17893c1.27321,0.25479 3.57271,0.50958 3.57271,0.50958c0,0 -2.63039,3.10013 -5.70494,2.31337c-3.07488,-0.78585 -3.01956,-2.56755 -2.54873,-4.00187z" fill="#ffffff" stroke="#000000" stroke-width="2"/></g><path d="M123.19235,227.88791c0,0 -2.91733,1.88248 -5.63846,2.55368l0.0284,0.06527c0.4119,0.55372 1.93862,2.27621 -0.11032,2.88276c-1.76157,0.52154 -4.99435,-3.97806 -3.57433,-4.82716c0.8674,-0.52003 1.61589,-0.0765 1.61589,-0.0765c0,0 1.14784,-0.32453 1.98222,-0.71189c1.42167,-0.65634 1.91053,-1.04826 1.91053,-1.04826c0,0 1.38237,-1.3075 2.26464,-1.25589c0.8816,0.05161 2.66167,1.43075 1.52142,2.41798zM116.80341,230.65743l0.75015,-0.21585" fill="#000000" stroke="#000000" stroke-width="3.10516"/><g fill="#000000" stroke-width="3.10516"><path d="M121.52427,224.70643c0.26723,0.1436 0.8096,0.40224 0.02972,1.44017c-0.77986,1.03823 -3.06102,1.22918 -3.32924,1.23707c-1.02166,0.0252 -2.28214,0.02398 -3.66351,-0.39828c-4.00836,-1.22311 -4.03281,-5.19328 -2.75912,-5.82715c1.27303,-0.63325 1.84877,1.82388 3.64931,3.31323c0.80498,0.66574 1.75959,0.92682 2.5573,1.06373c1.12835,0.19368 3.24798,-0.97175 3.51553,-0.82876z" stroke="#000000"/><path d="M113.62844,222.57715c0.38712,0.55494 0.83007,1.16209 1.37939,1.71217c-0.328,-0.04978 -1.32654,-0.14631 -1.93333,0.3221c-0.56714,0.43806 -0.15426,1.16391 -0.24509,1.32936c-1.27633,-1.03823 -1.59443,-2.27014 -1.641,-2.75404c-0.08655,-0.90375 0.18398,-1.69881 0.65864,-1.93499c0.6058,-0.30084 1.02728,0.24741 1.78139,1.32541z" stroke="none"/></g><path d="M127.78042,222.45875c0.30818,-1.07739 0.62925,-0.84728 0.62925,-0.84728c0.1787,0.12386 0.37623,0.27686 0.57111,0.45719c0.59325,0.54644 1.10491,1.68394 2.26464,1.30143c1.15907,-0.3822 1.87156,-1.84969 3.20933,-0.7301c1.33678,1.12019 -1.19309,2.54245 -2.1434,2.98021c-0.95329,0.43593 -1.78436,0.84545 -2.94343,-0.2198c-1.1594,-1.06585 -1.56701,-1.11624 -1.56701,-1.11624c-0.66294,-0.44596 -0.32932,-0.75044 -0.02048,-1.82541z" fill="#000000" stroke="#000000" stroke-width="3.10516"/><g fill="#000000" stroke-width="3.10516"><path d="M124.76366,225.38675c0,0 2.52624,2.34148 3.67475,3.26982c0.70125,0.56526 2.22202,1.75922 2.22202,1.75922c0,0 5.51558,-0.874 4.88039,2.09771c-0.18531,0.87491 -6.45236,0.21068 -6.45236,0.21068c0,0 -2.38223,-1.76955 -3.9783,-3.21882c-1.93697,-1.75983 -3.55584,-2.92616 -3.55584,-2.92616c-2.8189,-2.51695 -0.54897,-3.58371 0.34915,-5.02783c0.89812,-1.4435 1.95678,-0.88462 3.1436,-0.67788c1.18616,0.20582 2.02054,0.14723 2.53351,0.23557c1.26709,0.21857 0.91695,1.44957 0.62793,2.21488c0,0 -0.46344,1.10836 -0.89153,1.69305c-0.51364,0.70217 -0.91265,1.15419 -1.30506,1.43106" stroke="#000000"/><path d="M127.75334,223.90226c-0.23552,0.62536 -0.75742,1.34727 -1.74802,2.40857l-1.01142,-0.93774c0,0 -2.01062,-1.20095 -1.13695,-2.00664c0.50406,-0.4666 1.25519,-1.26834 2.88695,-0.46205c0.71942,0.3564 0.96253,0.71219 1.00944,0.99786z" stroke="none"/></g><path d="M120.06428,223.43384c0.41653,0.59956 3.29984,2.40372 1.01076,3.3867c-2.28809,0.98267 -3.56607,-2.02121 -3.89408,-3.08737c-0.32668,-1.06585 0.71348,-1.33817 1.42663,-1.8849c1.32522,-1.01425 2.14044,-2.04792 3.80523,-1.50119c1.66478,0.54553 0.44625,1.77501 -0.35575,2.32115c-0.64873,0.4417 -1.35594,0.93683 -1.60334,1.11018" fill="#000000" stroke="#000000" stroke-width="3.10516"/><g stroke-width="0.5"><g fill="#000000"><path d="M134.24711,219.71775c-1.1812,0.44899 -2.32343,0.78596 -3.32131,0.94351c-0.84296,0.13297 -2.53483,0.29721 -3.40884,0.29721c-1.0461,0 -3.28267,-0.11444 -4.6244,-0.52731c-1.79691,-0.55342 -4.05627,-1.99965 -5.15258,-3.62682c-2.3373,-3.46623 1.36189,-7.59122 1.1485,-7.3526l3.5162,-3.15294c0,0 1.48575,-0.54978 3.04781,-0.61808c0.58366,-0.02581 1.63373,0.0255 2.14208,0.0689l4.33967,0.94868c0,0 2.14539,1.43743 2.75846,2.44136c0.92619,1.51666 0.86806,3.14109 0.86806,3.14109c0,0 2.45061,0.34365 2.93683,2.3008c0.48556,1.95716 -1.11349,3.94193 -4.25049,5.1362zM122.88518,206.29879l0.67219,0.61899M129.5856,206.11816c0,0 -0.77062,-0.31359 -1.43125,-0.41468" stroke="#000000"/><path d="M146.01356,214.17136c0.48622,1.95715 -8.36202,4.29506 -11.49934,5.48902c-1.18121,0.44869 -2.68281,0.85123 -3.68432,0.98237c-0.91068,0.11931 -3.36294,0.17851 -3.36294,0.17851c-0.35806,-0.08743 -0.55955,-0.14784 -1.14685,-0.34578c-2.115,-0.7134 -5.14497,-2.18696 -4.98213,-4.73639c0.02477,-0.391 0.21768,-0.70156 0.49283,-0.94807c0.82579,-0.73891 2.3928,-0.89738 2.3928,-0.89738l2.57116,-1.03732c0,0 2.25968,0.97995 3.70349,0.69125c0.45088,-0.09017 0.76038,-0.25348 0.97377,-0.43563c0.4674,-0.3989 0.46904,-0.88735 0.46904,-0.8904l3.01015,-0.80781l0.95164,0.94321c0,0 9.62382,-0.14396 10.1107,1.81441z" stroke="none"/></g><g fill="#ffffff"><path d="M126.48626,210.14146c0.9665,1.36002 0.86476,2.99387 -0.22527,3.64747c-1.09102,0.65542 -2.75878,0.08257 -3.7243,-1.27745c-0.96716,-1.36003 -0.86674,-2.99326 0.22395,-3.64807c1.0907,-0.65452 2.75813,-0.08257 3.72562,1.27805" stroke="#000000"/><path d="M125.89566,211.92891c0,0.32816 -0.26525,0.5941 -0.5949,0.5941c-0.32767,0 -0.59589,-0.26655 -0.59589,-0.5941c0,-0.32786 0.26822,-0.5941 0.59589,-0.5941c0.32899,0 0.5949,0.26623 0.5949,0.5941" stroke="none"/></g><g fill="#ffffff"><path d="M134.32231,209.20614c0.96617,1.35972 1.08442,2.85938 0.16251,3.4131c-0.92257,0.55402 -2.37198,-0.16758 -3.33749,-1.5282c-0.96881,-1.36002 -1.01704,-2.77286 -0.09447,-3.32688c0.92059,-0.55342 2.30262,0.08136 3.26945,1.44199" stroke="#000000"/><path d="M134.15682,211.32631c0,0.32786 -0.26491,0.59379 -0.59457,0.59379c-0.328,0 -0.59589,-0.26623 -0.59589,-0.59379c0,-0.32786 0.26789,-0.5944 0.59589,-0.5944c0.32966,0 0.59457,0.26654 0.59457,0.5944" stroke="none"/></g><path d="M130.41634,212.96684c0.61241,0 1.50491,-0.08622 1.55115,0.17273c0.0479,0.25956 -0.56451,1.27593 -0.98665,1.31904c-0.42346,0.04311 -2.02317,-0.71431 -2.04596,-1.18971c-0.02445,-0.4754 0.91629,-0.30205 1.48146,-0.30205" fill="#000000" stroke="#000000"/><path d="M117.93509,214.32199c-0.00761,-0.00516 -0.78681,-0.5343 -1.98255,-1.02062c-1.32522,-0.53946 -2.06876,-0.68608 -2.07569,-0.6876l0.08092,-0.35671c0.03138,0.00607 0.78648,0.15361 2.15531,0.71098c1.23901,0.50424 2.02581,1.03945 2.05852,1.06191l-0.23651,0.29203z" fill="#000000" stroke="none"/><path d="M115.9129,215.73423c-0.67219,0 -1.68196,-0.08378 -1.73018,-0.08773l0.03534,-0.36277c0.01354,0.00121 1.35033,0.11141 1.94456,0.08074c0.60117,-0.03157 1.78766,-0.17546 1.79922,-0.17698l0.05186,0.36096c-0.04889,0.00607 -1.21225,0.14693 -1.82895,0.17941c-0.07993,0.00456 -0.17243,0.00637 -0.27184,0.00637z" fill="#000000" stroke="none"/><path d="M137.67929,213.97987l-0.06408,-0.35974c0.0152,-0.00212 1.49435,-0.22586 2.23326,-0.46235c0.8499,-0.2714 1.42894,-0.73313 1.43521,-0.73769l0.26128,0.27383c-0.02576,0.02064 -0.64346,0.51334 -1.56636,0.80781c-0.77095,0.24711 -2.23754,0.46872 -2.29932,0.47813z" fill="#000000" stroke="none"/><path d="M140.66104,216.2579c-0.26822,0 -0.62925,-0.01063 -1.05338,-0.04948c-0.94403,-0.08682 -1.84447,-0.41863 -1.88246,-0.4329l0.14865,-0.33757c0.00891,0.00333 0.88722,0.32634 1.77313,0.408c0.88259,0.08106 1.49236,0.0337 1.49798,0.0334l0.03435,0.36278c-0.0142,0.00121 -0.20216,0.01578 -0.51826,0.01578z" fill="#000000" stroke="none"/><path d="M130.48665,217.14097c0,0 2.67313,0.11242 3.95144,0.36802c1.27733,0.25561 4.00975,-1.76996 4.00975,-1.76996c0,0 -1.36237,4.57661 -4.44684,3.78731c-3.08481,-0.78839 -3.9867,-0.94642 -3.51434,-2.38537z" fill="#ffffff" stroke="#000000"/></g></g></g></svg>