<svg version="1.1" xmlns="http://www.w3.org/2000/svg" xmlns:xlink="http://www.w3.org/1999/xlink" width="435.80841" height="474.22881" viewBox="0,0,435.80841,474.22881"><g transform="translate(-13.67391,69.86442)"><g data-paper-data="{&quot;isPaintingLayer&quot;:true}" fill-rule="nonzero" stroke-miterlimit="10" stroke-dasharray="" stroke-dashoffset="0" style="mix-blend-mode: normal"><path d="M259.5918,357.5881c4.9769,-1.4499 11.0902,0 11.0902,0c0,0 2.7071,16.4498 3.5356,22.3991c0.8314,5.9579 3.9125,15.2818 3.9125,15.2818c0,0 1.5564,0.9321 1.122,3.3659c-0.4488,2.428 -5.7968,2.8998 -12.497,4.1743c-6.6915,1.26 -12.1662,0.1783 -13.2191,-2.2181c-1.0615,-2.3791 0.9177,-3.4925 0.9177,-3.4925c0,0 3.1185,-19.6459 0.2791,-26.4065c0.0201,0.0201 -1.4931,-11.2628 4.859,-13.104v0v0v0v0v0v0z" fill="#73ff00" stroke="#231f20" stroke-width="2.87684" stroke-linecap="round" stroke-linejoin="round"/><path d="M238.1277,359.4293v0v0v0v0v0v0c8.9728,4.1167 9.9279,12.3675 9.9394,12.3819c-1.7836,7.0943 3.9068,23.5757 3.9068,23.5757c0,0 2.126,0.7796 1.4614,3.2969c-0.6789,2.523 -5.909,4.4389 -12.7271,4.226c-6.8095,-0.2272 -12.1633,0.1324 -12.9832,-2.2065c-0.8199,-2.3389 0.5783,-3.4954 0.5783,-3.4954c0,0 0.1582,-5.6299 0.0517,-11.6483c-0.1122,-5.9982 -1.096,-22.4739 -1.096,-22.4739c0,0 4.9913,-6.3549 10.8687,-3.6564z" fill="#73ff00" stroke="#231f20" stroke-width="2.87684" stroke-linecap="round" stroke-linejoin="round"/><g stroke-width="2.87684"><path d="M272.7947,336.4807v0v0v0v0v0v0c1.3262,8.9527 -0.8055,25.4428 -11.0586,31.231c-10.1495,5.7134 -20.9117,4.9482 -32.0653,-2.664c-9.2432,-6.3146 -9.0217,-24.3524 -8.0551,-34.4501v0c0,0 0.0604,-23.3513 19.715,-26.2282c19.6488,-2.8768 28.7741,15.0373 30.296,26.2167c0.4775,1.9735 0.8803,3.9786 1.168,5.8946z" fill="#73ff00" stroke="#000000" stroke-linecap="butt" stroke-linejoin="miter"/><path d="M267.3776,362.1364v0v0v0v0v0v0l-0.0518,0.4545c-1.5046,2.0829 -3.3601,3.8492 -5.5897,5.1093c-9.4015,5.2934 -19.3237,5.0287 -29.5998,-1.0903l-0.1064,-0.4603c0,0 -5.4488,-29.7005 13.4895,-31.0267c21.5043,-1.4903 21.9934,22.0423 21.8582,27.0135z" fill="#e6e7e8" stroke="#231f20" stroke-linecap="round" stroke-linejoin="round"/></g><path d="M228.1421,339.51c0,0 -3.5298,-0.7825 -6.8324,0.5639c-3.0495,1.2399 -4.9597,2.3101 -4.9597,2.3101c-0.3769,0.3452 -0.6674,0.7106 -0.771,1.1105l0.3711,0.2301l3.3889,2.4539c0,0 5.069,-2.0339 5.7422,1.0069c0.3826,1.7175 -1.0069,3.3055 -2.2929,4.3757c1.1364,2.477 1.3263,5.1668 -0.6616,7.7243c-8.8406,11.3722 -24.9681,-7.0051 -23.7081,-20.4629c0.4316,-4.649 8.7888,-9.5051 16.8813,-13.1501c0,0 12.8883,-5.863 15.9521,-5.863" fill="#73ff00" stroke="#000000" stroke-width="2.87684" stroke-linecap="round" stroke-linejoin="miter"/><path d="M262.8771,319.8066c3.061,0 15.9521,5.863 15.9521,5.863c8.0897,3.6449 16.4498,8.501 16.8813,13.15c1.2601,13.4579 -14.8704,31.8351 -23.708,20.463c-1.9879,-2.5576 -1.7981,-5.2474 -0.6617,-7.7244c-1.286,-1.073 -2.6755,-2.6582 -2.2929,-4.3756c0.6732,-3.0409 5.7422,-1.0069 5.7422,-1.0069l3.3889,-2.454l0.3711,-0.2301c-0.1006,-0.3999 -0.3941,-0.7653 -0.7709,-1.1105c0,0 -1.9103,-1.0702 -4.9626,-2.3101c-3.3026,-1.3463 -6.8325,-0.5638 -6.8325,-0.5638" fill="#73ff00" stroke="#000000" stroke-width="2.87684" stroke-linecap="round" stroke-linejoin="miter"/><path d="M387.1595,240.0951l-1.7088,4.951c-9.4792,24.994 -22.9543,39.3782 -22.9543,39.3782c0,0 0.4833,-4.462 0.2244,-11.6311l-0.4201,-0.1467c-1.2169,3.7744 -3.2076,8.642 -6.5275,14.6546c-7.2612,13.2047 -28.6016,24.2748 -28.6016,24.2748c0,0 1.3263,-4.5396 2.1577,-11.9676l-0.3021,-1.1364c-2.3159,1.7779 -4.7151,3.4177 -7.1346,5.0086c-0.7134,0.4718 -1.4269,0.9321 -2.1518,1.378c-2.2066,1.3722 -4.4534,2.6812 -6.7462,3.901c-0.9062,0.4775 -1.8527,0.9206 -2.7647,1.378c-1.6743,0.8372 -3.3716,1.6254 -5.0949,2.3935c-1.2629,0.5524 -2.5402,1.1076 -3.8377,1.6197c-1.3463,0.5408 -2.7243,1.027 -4.0966,1.5333c-2.5259,0.9034 -5.0891,1.7463 -7.707,2.523c-0.8545,0.2532 -1.7118,0.5064 -2.5777,0.7423c-1.8671,0.5149 -3.7514,1.0155 -5.6674,1.4585l0.0087,0.0058c-9.6202,2.2381 -19.8244,3.6996 -30.7477,4.3756c-11.8181,0.725 -22.5343,0.6071 -32.54,-0.0891v0c-7.917,-0.5524 -15.3278,-1.5018 -22.3444,-2.7877c-0.3394,-0.0604 -0.6818,-0.1237 -1.0241,-0.1812c-2.1692,-0.4143 -4.3038,-0.8516 -6.3981,-1.3205c-0.7307,-0.1726 -1.4298,-0.3539 -2.1577,-0.5322c-2.7819,-0.6588 -5.4861,-1.3838 -8.1529,-2.1577c-1.6859,-0.489 -3.3602,-0.9896 -4.9971,-1.5218c-0.9724,-0.305 -1.9476,-0.63 -2.8999,-0.9551c-2.6006,-0.8976 -5.1783,-1.8096 -7.6782,-2.7934l-0.4344,0.42c0.9436,6.7606 3.2738,10.3911 5.1351,12.1259c3.7946,3.5356 11.0989,4.3756 11.0989,4.3756c0,0 -22.3272,3.1243 -34.4847,-14.1109c-1.2917,-1.8354 -2.5949,-3.7341 -3.832,-5.7536l-0.5322,-1.1565c-2.6409,-0.8832 -5.3164,-2.057 -7.9573,-3.5673c-16.1046,-9.2778 -18.127,-16.9302 -18.127,-16.9302l0.3366,2.8049c1.5506,7.3101 3.0638,11.9274 3.0638,11.9274c0,0 -19.2748,-12.1978 -27.8593,-30.4773c-6.9217,-14.7639 -7.4712,-23.6936 -7.5172,-25.204l-0.6473,-5.3624c-0.4171,-21.0239 0.889,-44.5997 3.7773,-67.7956l0.1784,-0.6185c2.5748,-17.9314 0.0777,-47.6405 23.8691,-78.0343c44.5882,-56.9471 90.1343,-54.9678 117.3751,-97.0531c20.0343,-30.9606 14.8877,-66.4666 14.8877,-66.4666c0,0 12.287,17.3963 17.1949,27.612c4.741,9.9567 9.8157,22.7903 9.8157,22.7903l0.164,-0.1093c0.1122,-0.374 0.2129,-0.7566 0.2992,-1.1393c1.3406,-5.9579 0.8084,-14.7668 0.8084,-14.7668c0,0 11.7145,34.3322 30.6268,56.8406c18.8951,22.4912 46.2136,28.9267 80.7098,105.9713c4.2922,9.5742 8.2824,17.6322 10.417,26.559l0.9667,5.1409c3.012,16.0643 1.8325,60.4482 -4.4908,79.6224v0v0v0v0v0v0zM166.2153,164.6384c0,0 -22.3416,23.2103 -20.8686,55.5c1.3032,28.5728 8.7082,37.3989 12.6984,39.6083c4.1023,2.2584 10.463,0.9206 10.463,0.9206c0,0 -17.9917,9.5281 -32.6579,-3.4004c-9.81,-8.642 -20.486,-19.7898 -23.475,-51.2423M352.1311,216.0993c0,0 2.7762,7.9487 -3.9931,24.5539c-7.6121,18.7109 -23.6735,24.502 -23.6735,24.502c0,0 13.3486,-28.8288 2.1461,-55.9286c-4.8848,-11.8382 -19.971,-20.6615 -35.7188,-26.887c-21.3404,-8.4522 -43.8948,-12.1345 -43.8948,-12.1345M362.3985,272.3272c-1.2025,3.8204 -3.2191,8.8089 -6.6368,14.9797c-7.2612,13.2076 -28.6045,24.2748 -28.6045,24.2748c0,0 3.8608,-13.245 2.5461,-31.4813M116.9264,229.2033c-2.1922,4.0679 -3.878,8.4292 -4.8216,13.0321c-5.9263,28.7166 4.5022,60.3504 4.5022,60.3504c0,0 -19.269,-12.1921 -27.8593,-30.4773c-7.615,-16.2311 -7.5172,-25.4197 -7.5172,-25.4197M385.442,245.0605c-9.4849,24.994 -22.9543,39.3782 -22.9543,39.3782c0,0 2.7819,-25.3507 -8.4435,-52.4535c-0.5121,-1.2255 -1.0788,-2.4165 -1.6858,-3.573M247.0056,170.2051c0,0 3.8204,1.0155 13.9009,9.039c10.0804,8.0235 13.7887,16.7778 13.7887,16.7778c0,0 -29.7696,-7.8423 -46.2452,-13.7657c-16.4613,-5.9292 -72.0102,-21.0585 -72.0102,-21.0585M152.7488,289.5479c8.0695,12.6754 16.4641,19.5712 16.4641,19.5712c0,0 -19.7437,6.1133 -37.8822,-4.3268c-16.1045,-9.2778 -18.127,-16.9302 -18.127,-16.9302M329.0099,298.4834c-21.2771,16.3692 -47.0967,24.3927 -78.4888,26.326c-37.4363,2.3072 -64.7951,-3.1645 -88.1838,-12.3388M161.6727,310.7992c0.7077,8.1069 3.3142,12.31 5.3596,14.2087c3.7974,3.5356 11.1017,4.3728 11.1017,4.3728c0,0 -22.3329,3.1329 -34.4875,-14.1052c-1.2917,-1.8412 -2.5949,-3.7312 -3.832,-5.7537M249.1632,171.166c0,0 81.5354,9.9452 81.5354,54.4499" fill="#73ff00" stroke="#000000" stroke-width="2.87684" stroke-linecap="round" stroke-linejoin="round"/><path d="M346.6766,244.8562c-3.0408,32.0049 -39.8327,65.3964 -93.6757,68.5436c-47.5311,2.8049 -117.7778,-18.57 -127.9705,-57.9309c-1.0126,-3.9557 -1.5506,-7.7761 -1.6973,-11.4498l1.0328,0.7623c3.6075,5.2819 7.6092,9.0822 11.4843,12.497c14.6662,12.9228 32.6579,3.3947 32.6579,3.3947c0,0 -6.3607,1.3435 -10.463,-0.912c-3.9902,-2.2123 -11.3952,-11.0384 -12.6984,-39.6112c-1.473,-32.2983 20.8686,-55.5 20.8686,-55.5l0.0777,-0.7422c16.7202,4.6317 50.0311,13.9843 62.1512,18.3485c16.4786,5.932 46.2424,13.7657 46.2424,13.7657c0,0 -3.7083,-8.7543 -13.7887,-16.7778c-5.046,-4.0161 -8.5184,-6.2715 -10.7278,-7.5287l2.0742,0.3251c0,0 62.8647,9.2893 74.3779,37.1861c11.2024,27.1055 -2.1375,55.9286 -2.1375,55.9286c0,0 13.6765,-4.9366 21.7546,-20.3853l0.4373,0.0863v0v0v0v0v0v0z" fill="#e6e7e8" stroke="#000000" stroke-width="2.87684" stroke-linecap="round" stroke-linejoin="round"/><g stroke="#000000" stroke-width="2.87684" stroke-linecap="round" stroke-linejoin="miter"><path d="M368.9502,186.4333c0,0 28.964,-32.4392 30.5779,-33.9783c1.6168,-1.5305 13.5902,-16.2139 48.0922,-21.2282c0,0 -22.1574,98.5404 -73.7795,121.0833c-0.0028,-0.0029 4.9079,-28.1988 -4.8906,-65.8768v0v0v0v0v0v0zM369.1458,187.2245c-0.7422,-3.1128 -2.9948,-8.6162 -2.9948,-8.6162M371.3639,259.8647c0,0 1.9792,-4.7266 2.4683,-7.5575" fill="#be1e2d"/><path d="M394.4131,236.8212c0,0 -5.1754,-3.9729 -5.7709,-17.0424c-0.3826,-8.1069 3.1789,-22.891 3.1789,-22.891l-0.2934,0.4718c2.2583,-2.6122 4.6403,-5.6645 6.7979,-9.0132c3.6565,-5.6645 7.9344,-14.1598 11.8555,-22.5342l0.607,-1.1537c0,0 10.3681,-15.1638 31.8581,-17.0826l0.2474,0.1352c-4.5281,14.9797 -11.913,36.9501 -20.0918,51.9586c-9.1714,16.8381 -19.7898,29.0647 -28.7799,37.4593l0.3912,-0.3078v0v0v0v0v0v0zM382.8712,205.806c0,0 7.5402,-7.3705 8.9499,-8.9182" fill="#929497"/></g><g stroke="#000000" stroke-width="2.87684" stroke-linecap="round" stroke-linejoin="miter"><path d="M89.3127,252.3072c-51.6134,-22.5429 -73.7766,-121.0804 -73.7766,-121.0804c34.5077,5.0172 46.4811,19.7006 48.0921,21.2282c1.6111,1.5333 30.5809,33.9755 30.5809,33.9755c-9.8072,37.6808 -4.8964,65.8767 -4.8964,65.8767v0v0v0v0v0v0zM96.9996,178.6083c0,0 -2.2497,5.5034 -2.9948,8.6162M89.3127,252.3072c0.4919,2.8309 2.4741,7.5575 2.4741,7.5575" fill="#be1e2d"/><path d="M69.1201,237.1319c-8.9901,-8.4004 -19.6028,-20.6269 -28.7799,-37.4593c-8.1817,-15.0085 -15.5637,-36.9789 -20.0918,-51.9587l0.2474,-0.1352c21.4928,1.9218 31.8581,17.0827 31.8581,17.0827l0.607,1.1536c3.9211,8.3774 8.199,16.8727 11.8555,22.5343c2.1576,3.3487 4.5396,6.401 6.7979,9.0132l-0.2876,-0.4718c0,0 3.5615,14.784 3.1789,22.891c-0.5955,13.0695 -5.7652,17.0424 -5.7652,17.0424l0.3797,0.3078v0v0v0v0v0v0zM71.3295,196.8878c1.4097,1.5448 8.9499,8.9182 8.9499,8.9182" fill="#929497"/></g><path d="M207.6151,285.3296c-3.9016,-1.5269 20.1618,-22.2115 43.9894,-22.4728c23.3367,-0.2455 50.8077,16.429 43.1925,16.8944l-87.1819,5.2596z" fill="#ffffff" stroke="#000000" stroke-width="3.18764" stroke-linecap="round" stroke-linejoin="miter"/><path d="M219.5159,282.9027c0,0 0.0128,0.6248 0,0c-0.0542,-2.4959 -0.1052,-4.995 -0.1593,-7.4909" fill="none" stroke="#000000" stroke-width="3.18764" stroke-linecap="round" stroke-linejoin="miter"/><path d="M232.4787,268.5945l0.7969,14.0256" fill="none" stroke="#000000" stroke-width="3.18764" stroke-linecap="round" stroke-linejoin="miter"/><path d="M249.3732,263.0161l1.275,18.0102" fill="none" stroke="#000000" stroke-width="3.18764" stroke-linecap="round" stroke-linejoin="miter"/><path d="M264.5144,264.2912l1.2751,17.0538" fill="none" stroke="#000000" stroke-width="3.18764" stroke-linecap="round" stroke-linejoin="miter"/><path d="M277.7431,268.9133l1.1157,11.1567" fill="none" stroke="#000000" stroke-width="3.18764" stroke-linecap="round" stroke-linejoin="miter"/><path d="M294.521,233.9638c4.1822,0.0797 8.8744,0.255 12.91,2.072c1.2049,0.6216 1.1443,2.837 0.7969,4.3033c-0.6567,2.719 -1.5811,5.4476 -4.1344,7.322c-2.5533,1.8775 -6.0788,3.0378 -9.9709,3.0378c-3.8921,0 -7.4176,-1.1603 -9.9709,-3.0378c-2.5533,-1.8744 -3.5224,-4.5902 -4.1344,-7.322c-0.3666,-1.6448 -0.271,-4.1631 1.275,-4.7815c4.0452,-1.8392 8.7915,-1.6799 13.2287,-1.5938z" fill="#666666" stroke="none" stroke-width="3.18764" stroke-linecap="round" stroke-linejoin="miter"/><path d="M285.5916,238.586c1.3543,-1.9691 3.2968,-3.2582 5.3496,-3.752c2.0471,-0.4931 4.199,-0.1902 5.9699,1.0278c1.7709,1.218 2.8236,3.119 3.0955,5.2071c0.2732,2.0936 -0.1705,4.703 -1.5899,6.3378c-1.2784,1.4749 -3.6574,1.6603 -5.7127,1.9095c-1.5777,0.134 -3.3705,-0.006 -4.8889,-0.7935c-1.5596,-0.7877 -3.4852,-1.8785 -3.8134,-3.5989c-0.4235,-2.2063 0.2356,-4.3687 1.5899,-6.3378z" fill="#ff0000" stroke="none" stroke-width="4.06184" stroke-linecap="round" stroke-linejoin="miter"/><path d="M196.771,235.4138c4.1822,0.0797 8.8744,0.255 12.91,2.072c1.2049,0.6216 1.1443,2.837 0.7969,4.3033c-0.6567,2.719 -1.5811,5.4476 -4.1344,7.322c-2.5533,1.8775 -6.0788,3.0378 -9.9709,3.0378c-3.8921,0 -7.4176,-1.1603 -9.9709,-3.0378c-2.5533,-1.8744 -3.5224,-4.5902 -4.1344,-7.322c-0.3666,-1.6448 -0.271,-4.1631 1.275,-4.7815c4.0452,-1.8392 8.7915,-1.6799 13.2287,-1.5938z" fill="#666666" stroke="none" stroke-width="3.18764" stroke-linecap="round" stroke-linejoin="miter"/><path d="M311.6844,223.7855v0v0v0v0v0v0c0.0689,2.6147 -1.0964,4.4483 -2.1288,5.627c0.4917,0.718 0.8438,1.5499 0.8243,2.4861c-0.0434,2.3775 -1.9702,4.2733 -4.3958,4.2259c-9.2283,-0.1927 -20.7291,1.5734 -22.4786,4.4023c-0.6349,1.0185 -1.6243,1.6803 -2.7161,1.9258c-1.0694,0.2404 -2.2247,0.0726 -3.2295,-0.5537c-2.022,-1.2556 -2.6517,-3.9123 -1.3917,-5.9412c3.3964,-5.4578 12.7014,-7.429 20.3506,-8.1227c0.292,-0.3929 0.7241,-1.1594 0.5799,-2.0499c-0.26,-1.5633 0.6516,-3.1217 2.3552,-3.3219c1.5558,-0.2672 3.0412,0.7788 3.3115,2.3486c0.1663,0.9887 0.7613,2.0875 -0.0236,2.6886c-3.1462,2.3999 -6.68,3.8106 -9.8957,5.4949c-1.098,0.4149 -2.4969,0.5142 -1.4665,0.0348c4.1126,-1.9183 8.1759,-3.4393 12.4584,-5.5462c1.0699,-0.5266 0.469,-0.9959 0.9421,-1.3441c0.0769,-0.0645 1.1765,-0.9574 1.1534,-2.2143c-0.0382,-1.5866 1.1907,-2.9273 2.8054,-2.9454c1.5879,-0.0327 2.8947,1.2157 2.9455,2.8054z" fill="#000000" stroke="none" stroke-width="2.87684" stroke-linecap="butt" stroke-linejoin="miter"/><path d="M190.0019,240.0662c1.3881,-1.975 3.3732,-3.2502 5.4677,-3.7167c2.0887,-0.4659 4.281,-0.1224 6.0816,1.1431c1.8005,1.2655 2.8663,3.2119 3.1355,5.3349c0.2705,2.1287 -0.1919,4.7687 -1.6451,6.4034c-1.3088,1.4749 -3.7346,1.623 -5.8307,1.8413c-1.6088,0.1094 -3.4358,-0.0628 -4.9806,-0.8872c-1.5868,-0.8254 -3.5456,-1.9645 -3.8734,-3.7155c-0.4233,-2.2455 0.2569,-4.4283 1.645,-6.4033z" fill="#ff0000" stroke="none" stroke-width="4.13394" stroke-linecap="round" stroke-linejoin="miter"/><path d="M212.5869,234.0162v0v0v0v0v0v0c2.1113,1.1006 2.9245,3.7005 1.817,5.8162c-1.1018,2.1169 -3.6905,2.9325 -5.8209,1.8395c-0.1206,-0.0695 -12.4688,-6.3885 -26.0609,-5.355c-0.4178,0.0295 -0.8188,0.0067 -1.2129,-0.0763c-1.8269,-0.3851 -3.2647,-1.9465 -3.4115,-3.9003c-0.0949,-1.1401 0.2959,-2.2132 0.9759,-3.0401c-0.6422,-0.8586 -1.2051,-1.9122 -1.4632,-3.2543c-0.3038,-1.5576 0.7123,-3.0722 2.2789,-3.377c1.5427,-0.2893 3.0683,0.7026 3.3754,2.2726c0.242,1.2506 1.5745,1.8754 1.5902,1.8846c0.3942,0.1801 0.7176,0.4453 0.9778,0.7589c0.4345,0.0033 0.8735,-0.0012 1.2993,0.0151c-0.2959,-0.7445 -0.5435,-1.564 -0.5963,-2.513c-0.0789,-1.5925 1.1362,-2.9358 2.7277,-3.0237c1.6045,-0.094 2.9396,1.1459 3.0208,2.7271c0.0648,1.2691 1.1549,1.9134 1.2699,2.0935c0.4955,0.369 0.1567,0.8327 0.8846,1.3683c8.2286,1.9697 18.0306,5.597 18.3482,5.7639z" fill="#000000" stroke="none" stroke-width="2.87684" stroke-linecap="butt" stroke-linejoin="miter"/></g></g></svg>