<svg xmlns="http://www.w3.org/2000/svg" xmlns:xlink="http://www.w3.org/1999/xlink" version="1.1" width="105.84198776972272" height="124.16558853876569" viewBox="0.07182137125741395 0.7738727723957196 105.84198776972272 124.16558853876569">
  <!-- Exported by Scratch - http://scratch.mit.edu/ -->
  <g id="ID0.7129885391332209">
    <path id="Back_Leg" fill="#B2B2B2" stroke="#000000" d="M 46.2054 101.6452 C 46.2054 101.6452 35.2894 109.3093 25.1076 112.042 L 25.2139 112.3078 C 26.7552 114.5621 32.4678 121.5749 24.8011 124.0444 C 18.2098 126.1678 6.1135 107.8484 11.4269 104.3915 C 14.6725 102.2743 17.4731 104.08 17.4731 104.08 C 17.4731 104.08 21.7681 102.7588 24.8901 101.1817 C 30.2097 98.5096 32.0389 96.9139 32.0389 96.9139 C 32.0389 96.9139 37.2113 91.5907 40.5126 91.8008 C 43.8113 92.0109 50.4719 97.6258 46.2054 101.6452 Z M 22.2996 112.9208 L 25.1064 112.042 " stroke-width="1.2359550844353748"/>
    <g id="Tail">
      <path id="Tail_1_" fill="#B2B2B2" stroke="#000000" d="M 26.8096 92.0665 C 23.8247 91.5091 20.2528 90.4462 17.2408 87.7357 C 10.5036 81.6721 8.3493 71.6683 3.586 74.2465 C -1.1799 76.8272 -1.0884 92.991 13.9099 97.9707 C 19.0787 99.6899 23.7951 99.6948 27.6179 99.5922 C 28.6215 99.5601 37.157 98.7827 40.0751 94.5557 C 42.9931 90.33 40.9637 89.277 39.9638 88.6924 C 38.9627 88.1102 31.0316 92.8551 26.8096 92.0665 Z " stroke-width="1.2359550844353748"/>
      <path id="Tail_Tip" fill="#FFFFFF" d="M 3.754 74.6272 C 1.978 75.5888 0.9657 78.8257 1.2896 82.5052 C 1.4638 84.4753 2.654 89.4908 7.4298 93.7178 C 7.7697 93.0442 6.2247 90.089 8.3469 88.3055 C 10.6173 86.3984 14.3536 86.7915 15.5809 86.9942 C 13.5255 84.7546 11.8681 82.2827 10.4196 80.0234 C 7.5979 75.6345 6.0208 73.4024 3.754 74.6272 Z " stroke-width="1.2359550844353748"/>
    </g>
    <path id="R_Arm" fill="#B2B2B2" stroke="#000000" d="M 63.4494 86.9731 C 63.4494 86.9731 64.9746 87.1783 69.3128 91.5178 C 73.6498 95.8547 76.7594 94.1874 80.3264 92.4126 C 83.8822 90.6303 93.3484 84.8399 88.3465 80.2792 C 83.3409 75.721 80.6749 81.6956 76.338 83.2517 C 71.9985 84.809 70.084 80.1779 67.8643 77.9531 C 67.1351 77.219 66.396 76.5961 65.7273 76.0918 C 65.7273 76.0918 64.526 75.1549 63.3728 79.5414 C 62.2172 83.9179 60.9689 85.1575 63.4494 86.9731 Z " stroke-width="1.2359550844353748"/>
    <g id="Front_Leg_x2F_Body_1_">
      <path id="Front_Leg_x2F_Body" fill="#B2B2B2" stroke="#000000" d="M 56.7555 95.783 C 58.2238 94.6558 59.7169 92.8155 61.6388 89.9567 C 63.2406 87.5763 64.9746 83.0638 64.9746 83.0638 C 66.0561 79.948 67.3662 74.9362 62.6251 74.0463 C 60.7056 73.6866 57.5836 73.9252 53.1453 73.0872 C 48.7045 72.2455 44.7433 69.9701 41.3827 75.8471 C 38.0221 81.7265 29.5287 86.0697 40.0763 96.317 C 40.0763 96.317 46.1337 101.0655 53.3813 108.2303 C 59.3535 114.1308 68.2672 121.3352 68.2672 121.3352 C 68.2672 121.3352 91.717 124.0394 92.4103 120.4774 C 94.7871 108.3787 74.1491 111.937 74.1491 111.937 C 74.1491 111.937 68.4588 107.076 65.8348 104.7746 C 61.5374 100.9951 52.0848 91.4621 52.0848 91.4621 " stroke-width="1.2359550844353748"/>
      <path id="Belly" fill="#FFFFFF" d="M 59.4944 81.3557 C 53.3888 78.073 50.5782 81.3372 48.6921 83.2369 C 45.423 86.5171 52.9463 91.4065 52.9463 91.4065 L 56.7308 95.2244 C 60.4374 90.9035 62.3902 87.9644 63.2715 85.4183 C 63.096 84.2553 62.1863 82.8067 59.4944 81.3557 Z " stroke-width="1.2359550844353748"/>
    </g>
    <path id="L_Arm" fill="#B2B2B2" stroke="#000000" d="M 35.9581 84.914 C 36.8838 84.2083 39.53 82.1925 41.9574 80.3942 C 44.9583 78.1707 49.5178 73.1651 43.2885 70.944 C 37.0593 68.7181 34.009 72.9265 29.0503 77.0558 C 26.3819 79.2818 22.4899 80.3905 23.7122 84.7299 C 24.9396 89.0706 29.7215 101.3003 38.2829 97.2996 C 46.8481 93.2975 36.0594 85.9522 34.5009 83.5112 " stroke-width="1.2359550844353748"/>
    <g id="Head_1_">
      <path id="Head_Fill" fill="#B2B2B2" stroke="#000000" d="M 104.8688 47.8688 C 103.0494 39.9006 93.8799 38.5015 93.8799 38.5015 C 93.8799 38.5015 94.0974 31.8879 90.6318 25.713 C 88.3379 21.6257 80.3103 15.7735 80.3103 15.7735 L 76.7829 1.4982 L 67.5998 10.5454 L 64.0724 11.9111 C 62.1702 11.7344 58.2411 11.5255 56.0572 11.6306 C 50.2124 11.9087 44.653 14.147 44.653 14.147 L 28.7364 3.6117 L 31.4963 26.9836 C 32.2947 26.0121 18.4533 42.8063 27.1989 56.9184 C 31.301 63.5431 39.7549 69.4312 46.4785 71.6844 C 51.499 73.3653 59.8676 73.8312 63.7819 73.8312 C 67.0522 73.8312 73.3828 73.1626 76.537 72.6212 C 80.2708 71.9798 84.5447 70.6079 88.9645 68.7799 C 100.7024 63.9176 106.6856 55.837 104.8688 47.8688 Z M 47.1731 16.6671 L 44.658 14.147 M 64.3739 11.7233 C 66.8458 12.1348 69.7293 13.4116 69.7293 13.4116 " stroke-width="1.2359550844353748"/>
      <path id="Muzzle" fill="#FFFFFF" d="M 93.367 38.8117 L 89.8062 34.9716 L 78.5429 38.2605 C 78.5429 38.2728 78.5367 40.2615 76.7879 41.8855 C 75.9894 42.6271 74.8314 43.292 73.1443 43.6591 C 67.7419 44.8345 59.2867 40.8448 59.2867 40.8448 L 49.6661 45.0681 C 49.6661 45.0681 43.8027 45.7133 40.7128 48.7216 C 39.6833 49.7252 38.9615 50.9896 38.8688 52.5815 C 38.2594 62.961 49.5969 68.9603 57.5107 71.8648 C 59.7082 72.6707 60.4621 72.9166 61.8019 73.2726 C 61.8019 73.2726 70.9776 73.0316 74.3852 72.5458 C 78.1326 72.0119 83.7512 70.373 88.171 68.5463 C 99.9101 63.6853 106.2172 56.1571 104.3979 48.1889 C 102.5761 40.2157 93.367 38.8117 93.367 38.8117 Z " stroke-width="1.2359550844353748"/>
    </g>
    <g id="L_Eye">
      <path id="Eyeball_1_" fill="#FFFFFF" stroke="#000000" d="M 58.1324 29.7917 C 61.7488 35.3288 61.3681 41.9807 57.2894 44.6417 C 53.2071 47.3101 46.1597 43.5219 43.354 39.4408 C 40.6201 35.4635 40.033 27.1146 43.6247 24.686 C 47.4228 22.2894 58.1324 29.7917 58.1324 29.7917 " stroke-width="1.2359550844353748"/>
      <path id="Pupil_1_" d="M 55.9225 37.069 C 55.9225 38.4051 54.93 39.4878 53.6965 39.4878 C 52.4705 39.4878 51.4669 38.4026 51.4669 37.069 C 51.4669 35.7342 52.4705 34.6502 53.6965 34.6502 C 54.9275 34.6502 55.9225 35.7342 55.9225 37.069 " stroke-width="1.2359550844353748" fill="undefined"/>
    </g>
    <g id="R_Eye">
      <path id="Eyeball" fill="#FFFFFF" stroke="#000000" d="M 87.4529 25.9837 C 87.4529 25.9837 92.1706 34.6515 90.3438 38.5287 C 89.0683 41.4381 83.8798 41.4529 81.0124 40.0736 C 77.8545 38.5534 76.0117 34.6836 75.2034 31.2983 C 74.7078 29.1008 76.6235 26.9972 77.4899 24.9949 C 78.2722 23.1867 78.3328 19.5604 80.209 19.7421 C 83.3137 20.0548 87.4529 25.9837 87.4529 25.9837 " stroke-width="1.2359550844353748"/>
      <path id="Pupil" d="M 86.8337 34.6156 C 86.8337 35.9505 85.8425 37.0331 84.609 37.0331 C 83.3817 37.0331 82.3793 35.9492 82.3793 34.6156 C 82.3793 33.2808 83.3817 32.1956 84.609 32.1956 C 85.8425 32.1956 86.8337 33.2808 86.8337 34.6156 " stroke-width="1.2359550844353748" fill="undefined"/>
    </g>
    <path id="Nose" fill="#5E4A42" stroke="#000000" d="M 72.8378 41.2947 C 75.1292 41.2947 78.4688 40.9437 78.6418 41.998 C 78.821 43.0547 76.5296 47.1927 74.95 47.3682 C 73.3655 47.5437 67.3798 44.46 67.2945 42.5245 C 67.203 40.589 70.723 41.2947 72.8378 41.2947 " stroke-width="1.2359550844353748"/>
    <path id="ID0.18181932624429464" fill="none" stroke="#000000" stroke-width="1.4486543346641272" stroke-linecap="round" d="M 27.418 34.5919 L 25.9693 37.1271 L 24.5207 41.473 L 24.3396 44.7325 L 24.5207 48.7163 L 26.8747 51.0704 L 29.4099 52.338 L 32.1261 51.9758 L 34.6613 38.3947 L 32.1261 38.3947 L 29.591 37.1271 L 27.418 34.5919 Z "/>
    <path id="ID0.14710577484220266" fill="none" stroke="#000000" d="M 32.4427 39.3855 C 32.6696 39.3855 32.875 39.4776 33.0239 39.6266 C 33.1728 39.7755 33.2649 39.9808 33.2649 40.2078 C 33.2649 40.4347 33.1728 40.64 33.0239 40.7889 C 32.875 40.9379 32.6696 41.03 32.4427 41.03 C 32.2158 41.03 32.0105 40.9379 31.8615 40.7889 C 31.7126 40.64 31.6205 40.4347 31.6205 40.2078 C 31.6205 39.9808 31.7126 39.7755 31.8615 39.6266 C 32.0105 39.4776 32.2158 39.3855 32.4427 39.3855 Z " stroke-width="0.4698338200242347"/>
    <path id="ID0.09315776498988271" fill="none" stroke="#000000" stroke-linecap="round" d="M 32.4427 39.409 L 32.4427 40.9125 Z " stroke-width="0.4698338200242347"/>
    <path id="ID0.14710577484220266" fill="none" stroke="#000000" d="M 31.0408 49.7384 C 31.1978 49.9022 31.2734 50.1142 31.2689 50.3248 C 31.2644 50.5353 31.1799 50.7439 31.0161 50.9009 C 30.8522 51.0579 30.6403 51.1335 30.4297 51.129 C 30.2191 51.1245 30.0106 51.04 29.8536 50.8762 C 29.6966 50.7123 29.621 50.5004 29.6255 50.2898 C 29.6299 50.0792 29.7145 49.8707 29.8783 49.7136 C 30.0421 49.5566 30.2541 49.4811 30.4647 49.4855 C 30.6753 49.49 30.8838 49.5745 31.0408 49.7384 Z " stroke-width="0.4698338235223031"/>
    <path id="ID0.09315776498988271" fill="none" stroke="#000000" stroke-linecap="round" d="M 31.0239 49.7546 L 29.9384 50.7949 Z " stroke-width="0.4698338235223031"/>
    <path id="ID0.9625102812424302" fill="none" stroke="#000000" stroke-width="1.4486543346641272" stroke-linecap="round" d="M 79.3885 20.1416 L 75.0425 30.0649 "/>
    <g id="ID0.8435089820995927">
      <path id="ID0.8404736882075667" fill="#FFFFFF" stroke="#000000" stroke-width="0.8448937691123198" d="M 72.5323 54.2585 C 77.8162 53.6593 81.7445 53.2716 86.2277 54.1072 C 87.7365 54.388 89.1654 55.913 89.3119 57.415 C 89.4899 58.7744 88.2777 60.2699 86.9848 60.7838 C 82.7471 62.4688 78.8873 63.1038 73.6034 63.703 C 68.3195 64.3022 64.4182 64.5308 59.908 63.8544 C 58.5599 63.6527 57.0788 62.4988 56.9582 61.169 C 56.7568 59.6596 57.7348 57.8013 59.1509 57.1777 C 63.3244 55.3388 67.2484 54.8577 72.5323 54.2585 Z "/>
      <path id="ID0.6830179141834378" fill="none" stroke="#000000" stroke-width="0.8448937691123198" stroke-linecap="round" d="M 56.9835 61.0173 L 89.3214 57.499 "/>
      <path id="ID0.720943711232394" fill="none" stroke="#000000" stroke-width="0.8448937691123198" stroke-linecap="round" d="M 60.9736 56.4621 L 61.7717 63.8756 "/>
      <path id="ID0.14236313942819834" fill="none" stroke="#000000" stroke-width="0.8448937691123198" stroke-linecap="round" d="M 66.0604 55.205 L 67.102 64.0151 "/>
      <path id="ID0.3628630032762885" fill="none" stroke="#000000" stroke-width="0.8448937691123198" stroke-linecap="round" d="M 71.7152 54.4574 L 72.8464 63.6826 "/>
      <path id="ID0.07688325829803944" fill="none" stroke="#000000" stroke-width="0.8448937691123198" stroke-linecap="round" d="M 75.9199 54.0444 L 76.96 63.2161 "/>
      <path id="ID0.43129883660003543" fill="none" stroke="#000000" stroke-width="0.8448937691123198" stroke-linecap="round" d="M 80.5959 53.6629 L 81.6137 62.2632 "/>
      <path id="ID0.2841416848823428" fill="none" stroke="#000000" stroke-width="0.8448937691123198" stroke-linecap="round" d="M 86.1105 61.0517 L 85.2783 54.0885 "/>
    </g>
    <path id="ID0.43284247629344463" fill="none" stroke="#000000" stroke-width="0.7243271673320636" stroke-linecap="round" d="M 31.2207 99.6003 L 33.6834 103.6928 L 24.9191 107.3144 L 22.7461 102.6787 "/>
    <path id="ID0.9875291283242404" fill="none" stroke="#000000" stroke-width="0.7243271673320636" stroke-linecap="round" d="M 60.4111 100.3246 L 55.8478 105.9382 L 64.3224 113.109 L 68.8133 108.1836 "/>
    <path id="ID0.09315776498988271" fill="none" stroke="#000000" stroke-linecap="round" d="M 61.2984 102.3737 L 59.9686 103.0753 Z " stroke-width="0.46983380678664516"/>
    <path id="ID0.14710577484220266" fill="none" stroke="#000000" d="M 61.3192 102.3628 C 61.4251 102.5635 61.4394 102.788 61.3772 102.9893 C 61.315 103.1905 61.1763 103.3678 60.9756 103.4737 C 60.7749 103.5795 60.5504 103.5939 60.3491 103.5317 C 60.1479 103.4695 59.9707 103.3308 59.8648 103.1301 C 59.7589 102.9294 59.7445 102.7049 59.8067 102.5036 C 59.869 102.3024 60.0076 102.1251 60.2083 102.0193 C 60.409 101.9134 60.6336 101.899 60.8348 101.9612 C 61.036 102.0234 61.2133 102.1621 61.3192 102.3628 Z " stroke-width="0.46983380678664516"/>
    <path id="ID0.09315776498988271" fill="none" stroke="#000000" stroke-linecap="round" d="M 66.9393 107.2225 L 66.9393 108.726 Z " stroke-width="0.4698338200242347"/>
    <path id="ID0.14710577484220266" fill="none" stroke="#000000" d="M 66.9393 107.199 C 67.1663 107.199 67.3716 107.2911 67.5205 107.4401 C 67.6695 107.589 67.7615 107.7943 67.7615 108.0212 C 67.7615 108.2482 67.6695 108.4535 67.5205 108.6024 C 67.3716 108.7514 67.1663 108.8435 66.9393 108.8435 C 66.7124 108.8435 66.5071 108.7514 66.3582 108.6024 C 66.2092 108.4535 66.1171 108.2482 66.1171 108.0212 C 66.1171 107.7943 66.2092 107.589 66.3582 107.4401 C 66.5071 107.2911 66.7124 107.199 66.9393 107.199 Z " stroke-width="0.4698338200242347"/>
    <g id="ID0.28120887838304043">
      <path id="ID0.14710577484220266" fill="none" stroke="#000000" d="M 25.5607 104.9412 C 25.7299 104.9412 25.8831 105.0099 25.9941 105.121 C 26.1052 105.232 26.1739 105.3852 26.1739 105.5544 C 26.1739 105.7236 26.1052 105.8768 25.9941 105.9878 C 25.8831 106.0989 25.7299 106.1676 25.5607 106.1676 C 25.3915 106.1676 25.2383 106.0989 25.1273 105.9878 C 25.0162 105.8768 24.9475 105.7236 24.9475 105.5544 C 24.9475 105.3852 25.0162 105.232 25.1273 105.121 C 25.2383 105.0099 25.3915 104.9412 25.5607 104.9412 Z " stroke-width="0.3503845470841114"/>
      <path id="ID0.09315776498988271" fill="none" stroke="#000000" stroke-linecap="round" d="M 26.0042 105.218 L 25.0125 105.7412 Z " stroke-width="0.3503845376127876"/>
    </g>
    <g id="ID0.28120887838304043">
      <path id="ID0.14710577484220266" fill="none" stroke="#000000" d="M 32.5265 103.0164 C 32.565 103.1813 32.5329 103.346 32.45 103.4794 C 32.367 103.6128 32.2335 103.7145 32.0687 103.7529 C 31.9039 103.7914 31.7392 103.7593 31.6058 103.6764 C 31.4724 103.5934 31.3707 103.4599 31.3323 103.2951 C 31.2938 103.1303 31.3259 102.9656 31.4088 102.8322 C 31.4917 102.6988 31.6253 102.5971 31.7901 102.5586 C 31.9549 102.5202 32.1196 102.5523 32.253 102.6352 C 32.3864 102.7181 32.4881 102.8516 32.5265 103.0164 Z " stroke-width="0.35038454862047635"/>
      <path id="ID0.09315776498988271" fill="none" stroke="#000000" stroke-linecap="round" d="M 32.3505 103.6064 L 31.6156 102.7596 Z " stroke-width="0.35038453292838173"/>
    </g>
  </g>
</svg>