<svg version="1.1" xmlns="http://www.w3.org/2000/svg" xmlns:xlink="http://www.w3.org/1999/xlink" width="410.98438" height="216.26283" viewBox="0,0,410.98438,216.26283"><g transform="translate(-32.375,-111.63779)"><g data-paper-data="{&quot;isPaintingLayer&quot;:true}" fill="none" fill-rule="nonzero" stroke="none" stroke-width="none" stroke-linecap="none" stroke-linejoin="none" stroke-miterlimit="10" stroke-dasharray="" stroke-dashoffset="0" font-family="none" font-weight="none" font-size="none" text-anchor="none" style="mix-blend-mode: normal"><g id="ID0.36224168399348855" stroke-linecap="butt" stroke-linejoin="miter"><path d="M231.988,210.967c0,0 -8.832,6.201 -17.07,8.412l0.086,0.215c1.247,1.824 5.869,7.498 -0.334,9.496c-5.333,1.718 -15.12,-13.104 -10.821,-15.901c2.626,-1.713 4.892,-0.252 4.892,-0.252c0,0 3.475,-1.069 6.001,-2.345c4.304,-2.162 5.784,-3.453 5.784,-3.453c0,0 4.185,-4.307 6.856,-4.137c2.669,0.17 8.058,4.713 4.606,7.965zM212.646,220.09l2.271,-0.711" id="Back_Leg" fill="#faa51d" stroke="#000000" stroke-width="1"/><g id="Tail" stroke-width="1"><path d="M226.938,200.487c0.809,0.473 2.451,1.325 0.09,4.744c-2.361,3.42 -9.267,4.049 -10.079,4.075c-3.093,0.083 -6.909,0.079 -11.091,-1.312c-12.135,-4.029 -12.209,-17.107 -8.353,-19.195c3.854,-2.086 5.597,6.008 11.048,10.914c2.437,2.193 5.327,3.053 7.742,3.504c3.416,0.638 9.833,-3.201 10.643,-2.73z" id="Tail_1_" fill="#faa51d" stroke="#000000"/><path d="M203.034,193.473c1.172,1.828 2.513,3.828 4.176,5.64c-0.993,-0.164 -4.016,-0.482 -5.853,1.061c-1.717,1.443 -0.467,3.834 -0.742,4.379c-3.864,-3.42 -4.827,-7.478 -4.968,-9.072c-0.262,-2.977 0.557,-5.596 1.994,-6.374c1.834,-0.991 3.11,0.815 5.393,4.366z" id="Tail_Tip" fill="#ffffff" stroke="none"/></g><path d="M245.878,193.083c0.933,-3.549 1.905,-2.791 1.905,-2.791c0.541,0.408 1.139,0.912 1.729,1.506c1.796,1.8 3.345,5.547 6.856,4.287c3.509,-1.259 5.666,-6.093 9.716,-2.405c4.047,3.69 -3.612,8.375 -6.489,9.817c-2.886,1.436 -5.402,2.785 -8.911,-0.724c-3.51,-3.511 -4.744,-3.677 -4.744,-3.677c-2.007,-1.469 -0.997,-2.472 -0.062,-6.013z" id="R_Arm" fill="#faa51d" stroke="#000000" stroke-width="1"/><g id="Front_Leg_x2F_Body_1_" stroke-width="1"><path d="M236.745,202.728c0,0 7.648,7.713 11.125,10.771c2.123,1.862 6.727,5.795 6.727,5.795c0,0 16.698,-2.879 14.775,6.91c-0.561,2.882 -19.534,0.694 -19.534,0.694c0,0 -7.212,-5.829 -12.044,-10.603c-5.864,-5.797 -10.765,-9.639 -10.765,-9.639c-8.534,-8.291 -1.662,-11.805 1.057,-16.562c2.719,-4.755 5.924,-2.914 9.517,-2.233c3.591,0.678 6.117,0.485 7.67,0.776c3.836,0.72 2.776,4.775 1.901,7.296c0,0 -1.403,3.651 -2.699,5.577c-1.555,2.313 -2.763,3.802 -3.951,4.714" id="Front_Leg_x2F_Body" fill="#faa51d" stroke="#000000"/><path d="M245.796,197.838c-0.713,2.06 -2.293,4.438 -5.292,7.934l-3.062,-3.089c0,0 -6.087,-3.956 -3.442,-6.61c1.526,-1.537 3.8,-4.178 8.74,-1.522c2.178,1.174 2.914,2.346 3.056,3.287z" id="Belly" fill="#ffffff" stroke="none"/></g><path d="M222.518,196.295c1.261,1.975 9.99,7.918 3.06,11.156c-6.927,3.237 -10.796,-6.658 -11.789,-10.17c-0.989,-3.511 2.16,-4.408 4.319,-6.209c4.012,-3.341 6.48,-6.746 11.52,-4.945c5.04,1.797 1.351,5.847 -1.077,7.646c-1.964,1.455 -4.105,3.086 -4.854,3.657" id="L_Arm" fill="#faa51d" stroke="#000000" stroke-width="1"/><g id="Head"><g id="Head_1_" stroke-width="1"><path d="M266.584,184.376c-3.576,1.479 -7.034,2.589 -10.055,3.108c-2.552,0.438 -7.674,0.979 -10.32,0.979c-3.167,0 -9.938,-0.377 -14,-1.737c-5.44,-1.823 -12.28,-6.587 -15.599,-11.947c-7.076,-11.418 4.123,-25.006 3.477,-24.22l-2.233,-18.91l12.878,8.524c0,0 4.498,-1.811 9.227,-2.036c1.767,-0.085 4.946,0.084 6.485,0.227l2.854,-1.105l7.43,-7.32l2.854,11.55c0,0 6.495,4.735 8.351,8.042c2.804,4.996 2.628,10.347 2.628,10.347c0,0 7.419,1.132 8.891,7.579c1.47,6.447 -3.371,12.985 -12.868,16.919zM230.736,140.173l2.035,2.039M251.021,139.578c0,0 -2.333,-1.033 -4.333,-1.366" id="Head_Fill" fill="#faa51d" stroke="#000000"/><path d="M279.071,167.716c1.472,6.447 -3.631,12.538 -13.129,16.471c-3.576,1.478 -8.122,2.804 -11.154,3.236c-2.757,0.393 -10.181,0.588 -10.181,0.588c-1.084,-0.288 -1.694,-0.487 -3.472,-1.139c-6.403,-2.35 -15.576,-7.204 -15.083,-15.602c0.075,-1.288 0.659,-2.311 1.492,-3.123c2.5,-2.434 7.244,-2.956 7.244,-2.956l7.784,-3.417c0,0 6.841,3.228 11.212,2.277c1.365,-0.297 2.302,-0.835 2.948,-1.435c1.415,-1.314 1.42,-2.923 1.42,-2.933l9.113,-2.661l2.881,3.107c0,0 7.451,1.136 8.925,7.587z" id="Muzzle" fill="#ffffff" stroke="none"/></g><g id="L_Eye" stroke-width="1"><path d="M241.638,152.831c2.926,4.48 2.618,9.862 -0.682,12.015c-3.303,2.159 -8.352,0.272 -11.275,-4.208c-2.928,-4.48 -2.624,-9.86 0.678,-12.017c3.302,-2.156 8.35,-0.272 11.279,4.21" id="Eyeball_1_" fill="#ffffff" stroke="#000000"/><path d="M239.85,158.719c0,1.081 -0.803,1.957 -1.801,1.957c-0.992,0 -1.804,-0.878 -1.804,-1.957c0,-1.08 0.812,-1.957 1.804,-1.957c0.996,0 1.801,0.877 1.801,1.957" id="Pupil_1_" fill="#000000" stroke="none"/></g><g id="R_Eye" stroke-width="1"><path d="M265.361,149.75c2.925,4.479 3.283,9.419 0.492,11.243c-2.793,1.825 -7.181,-0.552 -10.104,-5.034c-2.933,-4.48 -3.079,-9.134 -0.286,-10.959c2.787,-1.823 6.971,0.268 9.898,4.75" id="Eyeball" fill="#ffffff" stroke="#000000"/><path d="M264.86,156.734c0,1.08 -0.802,1.956 -1.8,1.956c-0.993,0 -1.804,-0.877 -1.804,-1.956c0,-1.08 0.811,-1.958 1.804,-1.958c0.998,0 1.8,0.878 1.8,1.958" id="Pupil" fill="#000000" stroke="none"/></g><path d="M253.536,162.138c1.854,0 4.556,-0.284 4.696,0.569c0.145,0.855 -1.709,4.203 -2.987,4.345c-1.282,0.142 -6.125,-2.353 -6.194,-3.919c-0.074,-1.566 2.774,-0.995 4.485,-0.995" id="Nose" fill="#5e4a42" stroke="#000000" stroke-width="1"/><path d="M215.75,166.602c-0.023,-0.017 -2.382,-1.76 -6.002,-3.362c-4.012,-1.777 -6.263,-2.26 -6.284,-2.265l0.245,-1.175c0.095,0.02 2.381,0.506 6.525,2.342c3.751,1.661 6.133,3.424 6.232,3.498z" id="Whisker_3_" fill="#000000" stroke="none" stroke-width="1"/><path d="M209.628,171.254c-2.035,0 -5.092,-0.276 -5.238,-0.289l0.107,-1.195c0.041,0.004 4.088,0.367 5.887,0.266c1.82,-0.104 5.412,-0.578 5.447,-0.583l0.157,1.189c-0.148,0.02 -3.67,0.484 -5.537,0.591c-0.242,0.015 -0.522,0.021 -0.823,0.021z" id="Whisker_2_" fill="#000000" stroke="none" stroke-width="1"/><path d="M275.524,165.475l-0.194,-1.185c0.046,-0.007 4.524,-0.744 6.761,-1.523c2.573,-0.894 4.326,-2.415 4.345,-2.43l0.791,0.902c-0.078,0.068 -1.948,1.691 -4.742,2.661c-2.334,0.814 -6.774,1.544 -6.961,1.575z" id="Whisker_1_" fill="#000000" stroke="none" stroke-width="1"/><path d="M284.551,172.979c-0.812,0 -1.905,-0.035 -3.189,-0.163c-2.858,-0.286 -5.584,-1.379 -5.699,-1.426l0.45,-1.112c0.027,0.011 2.686,1.075 5.368,1.344c2.672,0.267 4.518,0.111 4.535,0.11l0.104,1.195c-0.043,0.004 -0.612,0.052 -1.569,0.052z" id="Whisker" fill="#000000" stroke="none" stroke-width="1"/><path d="M240.545,169.447c0,0 10.347,3.054 14.217,3.896c3.867,0.842 10.851,1.684 10.851,1.684c0,0 -7.989,10.245 -17.327,7.645c-9.339,-2.597 -9.171,-8.485 -7.741,-13.225z" id="Mouth" fill="none" stroke="#231f20" stroke-width="1.2"/></g></g><g id="ID0.5118491547182202" stroke-width="0.77378"><path d="M391.9339,189.8948c0,0.0015 0.9735,-1.5406 2.107,-1.5901c1.1321,-0.0488 1.3155,1.0175 1.3155,1.0175c1.8926,7.3439 6.1778,23.5632 7.6186,25.4581c1.8695,2.4583 7.7053,11.7747 2.4846,15.3209c-5.2269,3.5462 -13.7446,-3.9563 -14.9154,-16.4862c-0.9711,-10.4615 -1.9422,-16.8374 1.3897,-23.7202z" id="R_Arm" fill="#1b75bb" stroke="#000000" stroke-linecap="butt" stroke-linejoin="miter"/><path d="M385.8381,232.0039c0.0364,-1.6071 0.4712,-3.2963 1.197,-5.6772c0,0 0.5386,-1.7 0.8543,-3.0526c0.0077,-0.034 0.1942,-1.3649 1.7325,-1.1343c1.2264,0.1834 2.1921,0.7707 2.1913,2.514c0,0.0743 -0.0866,0.2809 -0.0866,0.2809c-0.373,1.1839 -0.9131,3.3063 -0.9936,5.8451c-0.1245,3.9169 0.1826,7.751 -1.5893,7.8307c-2.6943,0.1215 -3.366,-3.8542 -3.3056,-6.6066z" id="R_Leg_1_" fill="#1b75bb" stroke="#000000" stroke-linecap="butt" stroke-linejoin="miter"/><path d="M378.6032,232.0039c0.0372,-1.6071 0.4713,-3.2963 1.1979,-5.6772c0,0 0.5377,-1.7 0.8542,-3.0526c0.0077,-0.034 0.1942,-1.3649 1.7317,-1.1343c1.2265,0.1834 2.1922,0.7707 2.1914,2.514c0,0.0743 -0.0867,0.2809 -0.0867,0.2809c-0.3729,1.1839 -0.913,3.3063 -0.9927,5.8451c-0.1254,3.9169 0.1826,7.751 -1.5902,7.8307c-2.6943,0.1215 -3.3651,-3.8542 -3.3056,-6.6066z" id="L_Leg" fill="#1b75bb" stroke="#000000" stroke-linecap="butt" stroke-linejoin="miter"/><g id="Body_1_" stroke="#000000" stroke-linecap="butt" stroke-linejoin="miter"><path d="M390.1419,224.6553c0,-0.0015 -1.7581,0.1223 -2.9837,-0.0611c-1.2249,-0.1834 -3.8558,-0.5517 -5.3871,-1.2852c-1.5305,-0.7344 -3.1779,-2.0606 -3.1779,-2.0606c-0.5804,-0.4774 -1.0493,-0.9409 -1.389,-1.3379c-1.9437,-2.2625 -3.0742,-6.9532 -3.0742,-6.9532c-0.4132,-1.977 -0.4449,-3.4758 -0.4418,-3.9919c0.1625,-0.0302 0.1408,-1.4926 0.2476,-1.5151c0.7281,-0.1555 0.1594,-1.1877 3.2437,-7.963c1.693,-3.718 0.6739,-4.7572 1.6868,-6.9787c0,0 2.7237,-2.1666 8.7817,-2.1604c1.6473,0.0016 4.9274,0.4689 6.4695,1.2729c1.3039,0.6801 1.0996,1.8021 1.4803,2.285l0.6771,5.7143l0.0634,0.1494c0.3528,2.367 0.7838,4.8593 1.2396,6.5578c1.132,4.2055 4.3649,15.0399 -4.043,17.6251c-1.18,0.3637 -2.3128,0.5889 -3.393,0.7026z" id="Body" fill="#1b75bb"/><path d="M399.1146,216.3867l-0.0503,0.1401c-1.1854,2.0861 -4.5119,2.6138 -6.3218,2.6138c-3.6151,0 -7.1226,-5.6772 -7.1226,-12.0416c0,-6.362 2.0327,-10.7091 6.5516,-11.5224c2.0637,-0.369 2.8011,1.1143 3.6809,1.8904l0.1756,0.1439c0.3915,2.8994 0.9487,6.5346 1.5569,8.7832c0.5965,2.213 1.7766,6.2707 1.5297,9.9926z" id="Belly" fill="#d0d2d3"/></g><path d="M378.9708,192.0792c0.0015,0 1.6334,-0.8164 2.6285,-0.2716c0.9951,0.547 0.5958,1.5537 0.5958,1.5537c-2.1898,7.2612 -6.9315,23.3543 -6.6831,25.7189c0.325,3.0712 0.4844,14.0658 -5.8219,14.3908c-6.3071,0.3227 -9.7009,-10.5095 -4.204,-21.8276c4.5947,-9.4517 7.0662,-15.4052 13.4847,-19.5642z" id="L_Arm" fill="#1b75bb" stroke="#000000" stroke-linecap="butt" stroke-linejoin="miter"/><g id="Head_1_"><path d="M420.5313,165.3365c0.0913,0.3258 2.2672,8.2857 -3.232,15.6575c-3.725,4.9893 -10.2147,11.3653 -26.7984,12.796c-8.1201,0.6987 -15.3479,-1.3959 -20.5439,-4.597c0.0766,0.0472 0.1486,0.0967 0.226,0.1431l-0.0743,-0.0449c-4.8276,-2.1797 -10.949,-5.5519 -15.0137,-11.1966c0,0 -2.1875,4.5638 -11.9951,4.7541c-12.3937,0.2445 -17.397,-6.6259 -18.0377,-11.8048c-0.6507,-5.2532 0.9541,-11.2747 11.428,-13.0513c8.7685,-1.4834 13.535,1.1653 14.8535,2.0652l0.1022,0.1168c0.9664,-2.9891 2.5774,-4.3657 2.5774,-4.3657l-0.1323,-0.0472c-3.6909,-1.385 -8.5472,-3.5973 -14.4898,-7.1319c-12.4401,-7.4012 -12.3171,-20.4572 -8.8761,-25.1517c3.5618,-4.8532 14.113,-10.9506 29.0184,-2.6502c8.3878,4.6674 12.6327,11.8566 14.7428,17.2444l0.4457,-0.1764c0.5749,-0.3312 1.2017,-0.6577 1.8726,-0.9664l0.0874,-0.1532c-3.2692,-7.6806 -8.2044,-23.4735 5.8467,-24.6922c13.3632,-1.1591 12.2133,14.9433 11.1355,21.7897l0.1052,0.0163c1.7263,0.1214 3.4797,0.3745 5.2323,0.7861c-0.0387,-0.0805 -2.0319,-4.2635 0.5277,-10.357c2.0057,-4.7696 10.9893,-16.2046 18.2868,-10.1288c7.6983,6.4115 3.5192,13.6634 -0.4875,18.1111c-3.4712,3.8511 -7.4639,5.425 -9.2753,6.1198l0.0511,0.0325c0.4457,0.2801 0.8914,0.5718 1.3316,0.8829c12.2529,8.623 11.2021,26.4757 11.2021,26.4757l-0.0271,-0.1269c-0.0464,-0.1996 -0.0797,-0.3157 -0.0898,-0.349zM406.2234,137.362c0.7405,0.3908 1.4647,0.8133 2.1689,1.2644M393.6401,134.3048c-0.1578,0.8589 -0.3381,1.7132 -0.5354,2.5628M378.6443,140.9144c-0.7367,-1.3928 -1.3967,-2.8274 -2.0103,-4.2782M350.7572,165.728c-0.0782,-1.717 0.082,-3.4502 0.5525,-5.1061M341.1662,157.5538M339.6024,182.6228" id="Head" fill="#1b75bb" stroke="#000000" stroke-linecap="round" stroke-linejoin="round"/><path d="M339.6658,182.7218c-9.8982,-0.9595 -14.0255,-7.0058 -14.6036,-11.6779c-0.6507,-5.2532 0.9541,-11.2747 11.428,-13.0513c1.5236,-0.2585 2.9265,-0.3916 4.2086,-0.431l0.0991,0.0062c-4.1754,8.0751 -4.57,17.5725 -1.1955,25.0542z" id="Hair1" fill="#f1f1f2" stroke="#000000" stroke-linecap="butt" stroke-linejoin="miter"/><path d="M337.4667,147.3639c-10.4824,-7.5428 -10.1938,-19.449 -6.9423,-23.8866c3.3922,-4.6241 13.138,-10.3772 26.9446,-3.7273l-0.1385,0.0456c-7.9243,2.4808 -14.78,8.7213 -17.9982,17.431c-1.2334,3.3443 -1.8215,6.7613 -1.8308,10.1002z" id="Hair2" fill="#f1f1f2" stroke="#000000" stroke-linecap="butt" stroke-linejoin="miter"/><path d="M373.2185,124.4468c-0.5834,-6.0718 1.1893,-11.6601 9.3217,-12.3642c8.2052,-0.7103 10.9398,5.0853 11.5773,11.2508l-0.0626,-0.0635c-6.8573,-2.6602 -14.3482,-2.0892 -20.8031,1.081z" id="Hair3" fill="#f1f1f2" stroke="#000000" stroke-linecap="butt" stroke-linejoin="miter"/><path d="M410.0551,113.1481c2.5527,-1.0655 5.2625,-1.0477 7.7703,1.0423c4.9306,4.1095 4.9894,8.5611 3.3389,12.4006l-0.0836,0.0062c-2.0079,-5.5426 -5.7863,-10.3385 -11.0372,-13.4213z" id="Hair4" fill="#f1f1f2" stroke="#000000" stroke-linecap="butt" stroke-linejoin="miter"/><path d="M409.7843,154.4819c6.7481,4.9143 9.1291,5.213 10.7432,10.8399c0,0 2.3871,8.1456 -3.2275,15.6729c-3.7257,4.9894 -10.2147,11.3646 -26.7983,12.7961c-16.5814,1.4268 -29.461,-8.7809 -28.8559,-16.3175c0.804,-10.0321 8.0752,-8.7221 21.9963,-17.3056c13.9195,-8.579 14.1122,-18.7696 14.1122,-18.7696c0,0 7.3393,9.6614 12.03,13.0838z" id="Face_1_" fill="#e6e7e8" stroke="#000000" stroke-linecap="butt" stroke-linejoin="miter"/><g id="L_Eye" stroke="none" stroke-linecap="butt" stroke-linejoin="miter"><path d="M386.7248,169.1389c0.1115,0.5285 -0.2244,1.0508 -0.7536,1.1645c-0.5316,0.1161 -1.0539,-0.2352 -1.1638,-0.7506c-0.0572,-0.2584 -0.0116,-0.5192 0.1292,-0.7374c0.1432,-0.2197 0.3614,-0.3729 0.6222,-0.4286c0.0704,-0.0147 0.1416,-0.0233 0.2135,-0.0233c0.4535,0 0.8543,0.3258 0.9525,0.7754z" id="Inner_Eye_1_" fill="#ffffff"/><path d="M388.2322,168.8154c0.2901,1.3572 -0.5765,2.7005 -1.936,2.9953c-0.1765,0.038 -0.3552,0.0573 -0.5339,0.0573c-1.1808,0 -2.2169,-0.838 -2.4614,-1.9878c-0.1455,-0.6585 -0.0256,-1.3333 0.3389,-1.8974c0.366,-0.5671 0.9301,-0.9579 1.5893,-1.101c1.3247,-0.2902 2.7137,0.5996 3.0031,1.9336zM384.8074,169.5536c0.1091,0.5154 0.6322,0.8659 1.163,0.7506c0.53,-0.1138 0.8659,-0.6361 0.7544,-1.1646c-0.0982,-0.4495 -0.4983,-0.7753 -0.9525,-0.7753c-0.0712,0 -0.1424,0.0085 -0.2135,0.0232c-0.2608,0.0557 -0.479,0.2082 -0.6222,0.4287c-0.1408,0.2182 -0.1864,0.479 -0.1292,0.7374z" id="Outer_Eye_1_" fill="#231f20"/></g><g id="R_Eye" stroke="none" stroke-linecap="butt" stroke-linejoin="miter"><path d="M410.6602,167.664c0.1107,0.5278 -0.2244,1.0508 -0.7537,1.1654c-0.5308,0.1153 -1.0531,-0.2353 -1.1637,-0.7514c-0.0565,-0.2584 -0.0116,-0.5192 0.1292,-0.7374c0.1439,-0.2197 0.3621,-0.373 0.6221,-0.4287c0.0712,-0.0154 0.1424,-0.0232 0.2136,-0.0232c0.4542,0 0.855,0.3258 0.9525,0.7753z" id="Inner_Eye" fill="#ffffff"/><path d="M412.1675,167.3391c0.291,1.3587 -0.5764,2.702 -1.936,2.996c-0.1764,0.0372 -0.3551,0.0565 -0.5339,0.0565c-1.1808,0 -2.2161,-0.8372 -2.4614,-1.9878c-0.1447,-0.6585 -0.0255,-1.3332 0.3389,-1.8973c0.366,-0.5672 0.9301,-0.9587 1.5902,-1.1011c1.3247,-0.2902 2.7136,0.5997 3.0022,1.9337zM408.742,168.0772c0.1107,0.5162 0.6337,0.8675 1.163,0.7506c0.53,-0.1137 0.8659,-0.6368 0.7544,-1.1645c-0.0975,-0.4496 -0.4975,-0.7754 -0.9525,-0.7754c-0.0704,0 -0.1416,0.0078 -0.2135,0.0233c-0.26,0.0557 -0.4782,0.2089 -0.6222,0.4286c-0.1408,0.2182 -0.1857,0.479 -0.1292,0.7374z" id="Outer_Eye" fill="#231f20"/></g><path d="M409.6945,173.5533c0,0 -1.3169,2.8436 -9.2544,3.9997c-7.939,1.1622 -12.7929,-2.2796 -12.7929,-2.2796" id="Mouth" fill="none" stroke="#231f20" stroke-linecap="round" stroke-linejoin="miter"/></g></g><text transform="translate(34,271.01)" font-size="22" xml:space="preserve" data-paper-data="{&quot;origPos&quot;:null}" id="ID0.44288985105231404" fill="#ffffff" fill-rule="nonzero" stroke="none" stroke-width="1" stroke-linecap="butt" stroke-linejoin="miter" stroke-miterlimit="10" stroke-dasharray="" stroke-dashoffset="0" font-family="Sans Serif" font-weight="400" text-anchor="start" style="mix-blend-mode: normal"><tspan x="0" dy="0">To stop her you just have to close the </tspan><tspan x="0" dy="24.86px">door that is between the rigth and left </tspan><tspan x="0" dy="24.86px">door</tspan></text></g></g></svg>