<svg xmlns="http://www.w3.org/2000/svg" xmlns:xlink="http://www.w3.org/1999/xlink" version="1.1" width="45.52959442138672" height="49.0684814453125" viewBox="0.08820855617523193 0.4205000400543213 45.52959442138672 49.0684814453125">
  <!-- Exported by Scratch - http://scratch.mit.edu/ -->
  <g id="ID0.4814988384023309">
    <path id="Back_Leg" fill="#000000" stroke="#000000" d="M 18.3751 40.1483 C 18.3751 40.1483 14.0993 43.1504 10.1111 44.2208 L 10.1527 44.3249 C 10.7564 45.2079 12.9941 47.9549 9.991 48.9221 C 7.4092 49.7539 2.671 42.5781 4.7523 41.224 C 6.0236 40.3947 7.1206 41.102 7.1206 41.102 C 7.1206 41.102 8.803 40.5845 10.0259 39.9668 C 12.1096 38.9201 12.8261 38.2951 12.8261 38.2951 C 12.8261 38.2951 14.8521 36.2099 16.1453 36.2922 C 17.4374 36.3745 20.0463 38.5739 18.3751 40.1483 Z M 9.0112 44.565 L 10.1106 44.2208 " stroke-width="0.4841269552707672"/>
    <g id="Tail">
      <path id="Tail_1_" fill="#000000" stroke="#000000" d="M 10.7777 36.3963 C 9.6086 36.178 8.2094 35.7616 7.0296 34.6999 C 4.3907 32.3248 3.5468 28.4063 1.681 29.4162 C -0.1858 30.427 -0.15 36.7585 5.7249 38.709 C 7.7495 39.3824 9.597 39.3844 11.0944 39.3442 C 11.4875 39.3316 14.8308 39.0271 15.9739 37.3714 C 17.1169 35.7161 16.322 35.3036 15.9303 35.0747 C 15.5382 34.8466 12.4315 36.7052 10.7777 36.3963 Z " stroke-width="0.4841269552707672"/>
      <path id="Tail_Tip" fill="#000000" d="M 1.7468 29.5653 C 1.0511 29.9419 0.6546 31.2099 0.7815 32.6511 C 0.8497 33.4228 1.316 35.3874 3.1866 37.0431 C 3.3198 36.7793 2.7146 35.6217 3.5458 34.9231 C 4.4352 34.1761 5.8987 34.3301 6.3794 34.4095 C 5.5743 33.5322 4.9251 32.564 4.3577 31.679 C 3.2525 29.9599 2.6347 29.0855 1.7468 29.5653 Z " stroke-width="0.4841269552707672"/>
    </g>
    <path id="R_Arm" fill="#000000" stroke="#000000" d="M 25.1297 34.4012 C 25.1297 34.4012 25.7271 34.4816 27.4264 36.1814 C 29.1252 37.8802 30.3432 37.2271 31.7404 36.5319 C 33.1333 35.8338 36.8412 33.5656 34.8819 31.7792 C 32.9212 29.9937 31.877 32.334 30.1782 32.9435 C 28.4784 33.5535 27.7285 31.7395 26.859 30.8681 C 26.5733 30.5805 26.2838 30.3365 26.0219 30.139 C 26.0219 30.139 25.5514 29.772 25.0997 31.4902 C 24.647 33.2045 24.158 33.6901 25.1297 34.4012 Z " stroke-width="0.4841269552707672"/>
    <g id="Front_Leg_x2F_Body_1_">
      <path id="Front_Leg_x2F_Body" fill="#000000" stroke="#000000" d="M 22.5076 37.8521 C 23.0828 37.4106 23.6676 36.6897 24.4204 35.5699 C 25.0479 34.6375 25.7271 32.8699 25.7271 32.8699 C 26.1507 31.6495 26.6639 29.6863 24.8068 29.3378 C 24.0549 29.1969 22.832 29.2903 21.0935 28.9621 C 19.354 28.6324 17.8024 27.7411 16.4861 30.0431 C 15.1697 32.3461 11.8428 34.0473 15.9744 38.0612 C 15.9744 38.0612 18.3471 39.9213 21.186 42.7277 C 23.5253 45.039 27.0168 47.8609 27.0168 47.8609 C 27.0168 47.8609 36.2021 48.9202 36.4737 47.5249 C 37.4047 42.7858 29.3208 44.1796 29.3208 44.1796 C 29.3208 44.1796 27.0918 42.2756 26.064 41.3741 C 24.3807 39.8937 20.6781 36.1596 20.6781 36.1596 " stroke-width="0.4841269552707672"/>
      <path id="Belly" fill="#000000" d="M 23.5805 32.2009 C 21.1889 30.915 20.088 32.1936 19.3492 32.9377 C 18.0687 34.2226 21.0156 36.1378 21.0156 36.1378 L 22.498 37.6333 C 23.9499 35.9408 24.7148 34.7895 25.06 33.7922 C 24.9912 33.3366 24.6349 32.7692 23.5805 32.2009 Z " stroke-width="0.4841269552707672"/>
    </g>
    <path id="L_Arm" fill="#000000" stroke="#000000" d="M 14.3612 33.5947 C 14.7239 33.3182 15.7604 32.5286 16.7112 31.8242 C 17.8867 30.9533 19.6726 28.9926 17.2326 28.1226 C 14.7926 27.2507 13.5978 28.8991 11.6555 30.5166 C 10.6102 31.3885 9.0857 31.8228 9.5645 33.5225 C 10.0453 35.2228 11.9183 40.0132 15.2719 38.4461 C 18.6269 36.8785 14.4009 34.0013 13.7905 33.0452 " stroke-width="0.4841269552707672"/>
    <g id="Head">
      <g id="Head_1_">
        <path id="Head_Fill" fill="#000000" stroke="#000000" d="M 41.3537 19.0839 C 40.6411 15.9628 37.0494 15.4147 37.0494 15.4147 C 37.0494 15.4147 37.1346 12.8242 35.7771 10.4055 C 34.8785 8.8045 31.7341 6.5121 31.7341 6.5121 L 30.3524 0.9205 L 26.7554 4.4643 L 25.3737 4.9992 C 24.6286 4.93 23.0896 4.8482 22.2341 4.8893 C 19.9447 4.9983 17.7671 5.875 17.7671 5.875 L 11.5325 1.7483 L 12.6135 10.9032 C 12.9263 10.5226 7.5046 17.101 10.9302 22.6287 C 12.5371 25.2236 15.8485 27.53 18.4821 28.4126 C 20.4487 29.071 23.7267 29.2535 25.2599 29.2535 C 26.5409 29.2535 29.0206 28.9916 30.2561 28.7796 C 31.7186 28.5283 33.3928 27.9909 35.124 27.2749 C 39.7218 25.3703 42.0654 22.2051 41.3537 19.0839 Z M 18.7542 6.8622 L 17.769 5.875 M 25.4918 4.9257 C 26.4601 5.0869 27.5895 5.587 27.5895 5.587 " stroke-width="0.4841269552707672"/>
        <path id="Muzzle" fill="#000000" d="M 36.8485 15.5363 L 35.4537 14.0321 L 31.0418 15.3203 C 31.0418 15.3252 31.0394 16.1041 30.3544 16.7403 C 30.0416 17.0308 29.588 17.2912 28.9272 17.435 C 26.8111 17.8954 23.4991 16.3326 23.4991 16.3326 L 19.7307 17.9869 C 19.7307 17.9869 17.434 18.2396 16.2237 19.418 C 15.8204 19.8111 15.5377 20.3064 15.5014 20.9299 C 15.2627 24.9956 19.7036 27.3456 22.8035 28.4833 C 23.6642 28.7989 23.9595 28.8953 24.4843 29.0347 C 24.4843 29.0347 28.0785 28.9403 29.4132 28.75 C 30.8811 28.5409 33.082 27.8989 34.8132 27.1834 C 39.4114 25.2793 41.8819 22.3305 41.1693 19.2093 C 40.4557 16.0862 36.8485 15.5363 36.8485 15.5363 Z " stroke-width="0.4841269552707672"/>
      </g>
      <g id="L_Eye">
        <path id="Eyeball_1_" fill="#FFFFFF" stroke="#000000" d="M 23.047 12.0031 C 24.4635 14.172 24.3144 16.7776 22.7168 17.8199 C 21.1177 18.8651 18.6734 17.9516 17.2583 15.7827 C 15.8407 13.6138 15.9879 11.0092 17.5865 9.9649 C 19.1851 8.9212 21.629 9.8332 23.047 12.0031 " stroke-width="0.4841269552707672"/>
        <path id="Pupil_1_" d="M 22.1813 14.8536 C 22.1813 15.377 21.7926 15.8011 21.3094 15.8011 C 20.8292 15.8011 20.4361 15.376 20.4361 14.8536 C 20.4361 14.3308 20.8292 13.9062 21.3094 13.9062 C 21.7916 13.9062 22.1813 14.3308 22.1813 14.8536 " stroke-width="0.4841269552707672" fill="undefined"/>
      </g>
      <g id="R_Eye">
        <path id="Eyeball" fill="#FFFFFF" stroke="#000000" d="M 34.5319 10.5115 C 35.948 12.6799 36.1213 15.0715 34.7701 15.9545 C 33.4179 16.8381 31.2936 15.6873 29.8785 13.5175 C 28.4585 11.3486 28.3879 9.0954 29.74 8.2119 C 31.0893 7.3293 33.1149 8.3417 34.5319 10.5115 " stroke-width="0.4841269552707672"/>
        <path id="Pupil" d="M 34.2894 13.8927 C 34.2894 14.4155 33.9011 14.8396 33.4179 14.8396 C 32.9372 14.8396 32.5446 14.415 32.5446 13.8927 C 32.5446 13.3698 32.9372 12.9447 33.4179 12.9447 C 33.9011 12.9447 34.2894 13.3698 34.2894 13.8927 " stroke-width="0.4841269552707672" fill="undefined"/>
      </g>
      <path id="Nose" fill="#000000" stroke="#000000" d="M 28.8071 16.5089 C 29.7047 16.5089 31.0128 16.3714 31.0806 16.7843 C 31.1508 17.1983 30.2532 18.8191 29.6345 18.8879 C 29.0138 18.9566 26.6692 17.7487 26.6358 16.9906 C 26.6 16.2324 27.9788 16.5089 28.8071 16.5089 " stroke-width="0.4841269552707672"/>
      <path id="Whisker_3_" d="M 10.5139 18.67 C 10.5028 18.6618 9.3607 17.818 7.6082 17.0424 C 5.6658 16.1821 4.5761 15.9483 4.5659 15.9458 L 4.6845 15.377 C 4.7305 15.3867 5.8372 15.622 7.8434 16.5108 C 9.6594 17.3149 10.8126 18.1685 10.8605 18.2043 L 10.5139 18.67 L 10.5139 18.67 Z " stroke-width="0.4841269552707672" fill="undefined"/>
      <path id="Whisker_2_" d="M 7.5501 20.9222 C 6.5649 20.9222 5.0849 20.7886 5.0142 20.7823 L 5.066 20.2037 C 5.0859 20.2057 7.0451 20.3814 7.9161 20.3325 C 8.7972 20.2822 10.5362 20.0527 10.5531 20.0503 L 10.6291 20.6259 C 10.5575 20.6356 8.8524 20.8602 7.9485 20.912 C 7.8313 20.9193 7.6958 20.9222 7.5501 20.9222 L 7.5501 20.9222 Z " stroke-width="0.4841269552707672" fill="undefined"/>
      <path id="Whisker_1_" d="M 39.4521 18.1244 L 39.3582 17.5507 C 39.3804 17.5473 41.5484 17.1905 42.6314 16.8134 C 43.877 16.3806 44.7257 15.6442 44.7349 15.637 L 45.1178 16.0736 C 45.0801 16.1066 44.1748 16.8923 42.8221 17.3619 C 41.6921 17.756 39.5426 18.1094 39.4521 18.1244 L 39.4521 18.1244 Z " stroke-width="0.4841269552707672" fill="undefined"/>
      <path id="Whisker" d="M 43.8223 21.7573 C 43.4292 21.7573 42.9 21.7403 42.2784 21.6784 C 40.8948 21.5399 39.5751 21.0108 39.5194 20.988 L 39.7372 20.4497 C 39.7503 20.455 41.0376 20.9701 42.336 21.1003 C 43.6296 21.2296 44.5233 21.1541 44.5316 21.1536 L 44.5819 21.7321 C 44.5611 21.7341 44.2856 21.7573 43.8223 21.7573 L 43.8223 21.7573 Z " stroke-width="0.4841269552707672" fill="undefined"/>
      <path id="Mouth" fill="#FFFFFF" stroke="#000000" stroke-width="0.9682539105415344" d="M 22.5178 20.0474 C 22.5178 20.0474 27.5271 21.5259 29.4006 21.9335 C 31.2728 22.3411 34.6539 22.7488 34.6539 22.7488 C 34.6539 22.7488 30.7862 27.7087 26.2654 26.4499 C 21.7442 25.1927 21.8255 22.3421 22.5178 20.0474 Z "/>
    </g>
  </g>
</svg>