<svg version="1.1" xmlns="http://www.w3.org/2000/svg" xmlns:xlink="http://www.w3.org/1999/xlink" width="430.59375" height="243.90425"><g transform="translate(-23.375,-83.99638)"><g data-paper-data="{&quot;isPaintingLayer&quot;:true}" fill="none" fill-rule="nonzero" stroke="none" stroke-width="none" stroke-linecap="none" stroke-linejoin="none" stroke-miterlimit="10" stroke-dasharray="" stroke-dashoffset="0" font-family="none" font-weight="none" font-size="none" text-anchor="none" style="mix-blend-mode: normal"><g id="ID0.36224168399348855" stroke-linecap="butt" stroke-linejoin="miter"><path d="M231.988,210.967c0,0 -8.832,6.201 -17.07,8.412l0.086,0.215c1.247,1.824 5.869,7.498 -0.334,9.496c-5.333,1.718 -15.12,-13.104 -10.821,-15.901c2.626,-1.713 4.892,-0.252 4.892,-0.252c0,0 3.475,-1.069 6.001,-2.345c4.304,-2.162 5.784,-3.453 5.784,-3.453c0,0 4.185,-4.307 6.856,-4.137c2.669,0.17 8.058,4.713 4.606,7.965zM212.646,220.09l2.271,-0.711" id="Back_Leg" fill="#faa51d" stroke="#000000" stroke-width="1"/><g id="Tail" stroke-width="1"><path d="M226.938,200.487c0.809,0.473 2.451,1.325 0.09,4.744c-2.361,3.42 -9.267,4.049 -10.079,4.075c-3.093,0.083 -6.909,0.079 -11.091,-1.312c-12.135,-4.029 -12.209,-17.107 -8.353,-19.195c3.854,-2.086 5.597,6.008 11.048,10.914c2.437,2.193 5.327,3.053 7.742,3.504c3.416,0.638 9.833,-3.201 10.643,-2.73z" id="Tail_1_" fill="#faa51d" stroke="#000000"/><path d="M203.034,193.473c1.172,1.828 2.513,3.828 4.176,5.64c-0.993,-0.164 -4.016,-0.482 -5.853,1.061c-1.717,1.443 -0.467,3.834 -0.742,4.379c-3.864,-3.42 -4.827,-7.478 -4.968,-9.072c-0.262,-2.977 0.557,-5.596 1.994,-6.374c1.834,-0.991 3.11,0.815 5.393,4.366z" id="Tail_Tip" fill="#ffffff" stroke="none"/></g><path d="M245.878,193.083c0.933,-3.549 1.905,-2.791 1.905,-2.791c0.541,0.408 1.139,0.912 1.729,1.506c1.796,1.8 3.345,5.547 6.856,4.287c3.509,-1.259 5.666,-6.093 9.716,-2.405c4.047,3.69 -3.612,8.375 -6.489,9.817c-2.886,1.436 -5.402,2.785 -8.911,-0.724c-3.51,-3.511 -4.744,-3.677 -4.744,-3.677c-2.007,-1.469 -0.997,-2.472 -0.062,-6.013z" id="R_Arm" fill="#faa51d" stroke="#000000" stroke-width="1"/><g id="Front_Leg_x2F_Body_1_" stroke-width="1"><path d="M236.745,202.728c0,0 7.648,7.713 11.125,10.771c2.123,1.862 6.727,5.795 6.727,5.795c0,0 16.698,-2.879 14.775,6.91c-0.561,2.882 -19.534,0.694 -19.534,0.694c0,0 -7.212,-5.829 -12.044,-10.603c-5.864,-5.797 -10.765,-9.639 -10.765,-9.639c-8.534,-8.291 -1.662,-11.805 1.057,-16.562c2.719,-4.755 5.924,-2.914 9.517,-2.233c3.591,0.678 6.117,0.485 7.67,0.776c3.836,0.72 2.776,4.775 1.901,7.296c0,0 -1.403,3.651 -2.699,5.577c-1.555,2.313 -2.763,3.802 -3.951,4.714" id="Front_Leg_x2F_Body" fill="#faa51d" stroke="#000000"/><path d="M245.796,197.838c-0.713,2.06 -2.293,4.438 -5.292,7.934l-3.062,-3.089c0,0 -6.087,-3.956 -3.442,-6.61c1.526,-1.537 3.8,-4.178 8.74,-1.522c2.178,1.174 2.914,2.346 3.056,3.287z" id="Belly" fill="#ffffff" stroke="none"/></g><path d="M222.518,196.295c1.261,1.975 9.99,7.918 3.06,11.156c-6.927,3.237 -10.796,-6.658 -11.789,-10.17c-0.989,-3.511 2.16,-4.408 4.319,-6.209c4.012,-3.341 6.48,-6.746 11.52,-4.945c5.04,1.797 1.351,5.847 -1.077,7.646c-1.964,1.455 -4.105,3.086 -4.854,3.657" id="L_Arm" fill="#faa51d" stroke="#000000" stroke-width="1"/><g id="Head"><g id="Head_1_" stroke-width="1"><path d="M266.584,184.376c-3.576,1.479 -7.034,2.589 -10.055,3.108c-2.552,0.438 -7.674,0.979 -10.32,0.979c-3.167,0 -9.938,-0.377 -14,-1.737c-5.44,-1.823 -12.28,-6.587 -15.599,-11.947c-7.076,-11.418 4.123,-25.006 3.477,-24.22l-2.233,-18.91l12.878,8.524c0,0 4.498,-1.811 9.227,-2.036c1.767,-0.085 4.946,0.084 6.485,0.227l2.854,-1.105l7.43,-7.32l2.854,11.55c0,0 6.495,4.735 8.351,8.042c2.804,4.996 2.628,10.347 2.628,10.347c0,0 7.419,1.132 8.891,7.579c1.47,6.447 -3.371,12.985 -12.868,16.919zM230.736,140.173l2.035,2.039M251.021,139.578c0,0 -2.333,-1.033 -4.333,-1.366" id="Head_Fill" fill="#faa51d" stroke="#000000"/><path d="M279.071,167.716c1.472,6.447 -3.631,12.538 -13.129,16.471c-3.576,1.478 -8.122,2.804 -11.154,3.236c-2.757,0.393 -10.181,0.588 -10.181,0.588c-1.084,-0.288 -1.694,-0.487 -3.472,-1.139c-6.403,-2.35 -15.576,-7.204 -15.083,-15.602c0.075,-1.288 0.659,-2.311 1.492,-3.123c2.5,-2.434 7.244,-2.956 7.244,-2.956l7.784,-3.417c0,0 6.841,3.228 11.212,2.277c1.365,-0.297 2.302,-0.835 2.948,-1.435c1.415,-1.314 1.42,-2.923 1.42,-2.933l9.113,-2.661l2.881,3.107c0,0 7.451,1.136 8.925,7.587z" id="Muzzle" fill="#ffffff" stroke="none"/></g><g id="L_Eye" stroke-width="1"><path d="M241.638,152.831c2.926,4.48 2.618,9.862 -0.682,12.015c-3.303,2.159 -8.352,0.272 -11.275,-4.208c-2.928,-4.48 -2.624,-9.86 0.678,-12.017c3.302,-2.156 8.35,-0.272 11.279,4.21" id="Eyeball_1_" fill="#ffffff" stroke="#000000"/><path d="M239.85,158.719c0,1.081 -0.803,1.957 -1.801,1.957c-0.992,0 -1.804,-0.878 -1.804,-1.957c0,-1.08 0.812,-1.957 1.804,-1.957c0.996,0 1.801,0.877 1.801,1.957" id="Pupil_1_" fill="#000000" stroke="none"/></g><g id="R_Eye" stroke-width="1"><path d="M265.361,149.75c2.925,4.479 3.283,9.419 0.492,11.243c-2.793,1.825 -7.181,-0.552 -10.104,-5.034c-2.933,-4.48 -3.079,-9.134 -0.286,-10.959c2.787,-1.823 6.971,0.268 9.898,4.75" id="Eyeball" fill="#ffffff" stroke="#000000"/><path d="M264.86,156.734c0,1.08 -0.802,1.956 -1.8,1.956c-0.993,0 -1.804,-0.877 -1.804,-1.956c0,-1.08 0.811,-1.958 1.804,-1.958c0.998,0 1.8,0.878 1.8,1.958" id="Pupil" fill="#000000" stroke="none"/></g><path d="M253.536,162.138c1.854,0 4.556,-0.284 4.696,0.569c0.145,0.855 -1.709,4.203 -2.987,4.345c-1.282,0.142 -6.125,-2.353 -6.194,-3.919c-0.074,-1.566 2.774,-0.995 4.485,-0.995" id="Nose" fill="#5e4a42" stroke="#000000" stroke-width="1"/><path d="M215.75,166.602c-0.023,-0.017 -2.382,-1.76 -6.002,-3.362c-4.012,-1.777 -6.263,-2.26 -6.284,-2.265l0.245,-1.175c0.095,0.02 2.381,0.506 6.525,2.342c3.751,1.661 6.133,3.424 6.232,3.498l-0.716,0.962z" id="Whisker_3_" fill="#000000" stroke="none" stroke-width="1"/><path d="M209.628,171.254c-2.035,0 -5.092,-0.276 -5.238,-0.289l0.107,-1.195c0.041,0.004 4.088,0.367 5.887,0.266c1.82,-0.104 5.412,-0.578 5.447,-0.583l0.157,1.189c-0.148,0.02 -3.67,0.484 -5.537,0.591c-0.242,0.015 -0.522,0.021 -0.823,0.021z" id="Whisker_2_" fill="#000000" stroke="none" stroke-width="1"/><path d="M275.524,165.475l-0.194,-1.185c0.046,-0.007 4.524,-0.744 6.761,-1.523c2.573,-0.894 4.326,-2.415 4.345,-2.43l0.791,0.902c-0.078,0.068 -1.948,1.691 -4.742,2.661c-2.334,0.814 -6.774,1.544 -6.961,1.575z" id="Whisker_1_" fill="#000000" stroke="none" stroke-width="1"/><path d="M284.551,172.979c-0.812,0 -1.905,-0.035 -3.189,-0.163c-2.858,-0.286 -5.584,-1.379 -5.699,-1.426l0.45,-1.112c0.027,0.011 2.686,1.075 5.368,1.344c2.672,0.267 4.518,0.111 4.535,0.11l0.104,1.195c-0.043,0.004 -0.612,0.052 -1.569,0.052z" id="Whisker" fill="#000000" stroke="none" stroke-width="1"/><path d="M240.545,169.447c0,0 10.347,3.054 14.217,3.896c3.867,0.842 10.851,1.684 10.851,1.684c0,0 -7.989,10.245 -17.327,7.645c-9.339,-2.597 -9.171,-8.485 -7.741,-13.225z" id="Mouth" fill="none" stroke="#231f20" stroke-width="1.2"/></g></g><g id="ID0.666665967553854"><path d="M375.4553,210.856v0v0v0v0v0c-0.2476,1.8356 -1.282,5.2116 -2.0058,6.0866c0,0 -2.987,3.2949 -5.1061,2.112c-0.9057,-0.5051 -1.3081,-1.3891 -1.3261,-2.5495c-0.3952,-0.1324 -0.9426,-0.4033 -1.1865,-0.9867c-0.406,-0.9669 1.6582,-1.7069 1.6582,-1.7069v0.0189c0.0982,-0.3024 0.2017,-0.604 0.325,-0.9227c0.7031,-1.8005 2.2506,-4.2447 3.0329,-5.6094c0,0 0.6464,-1.2036 2.2407,-1.1712c1.6961,0.0342 2.6153,2.8933 2.3677,4.7289z" id="L_Arm" fill="#be1e2d" stroke="#231f20" stroke-width="0.78672" stroke-linecap="round" stroke-linejoin="round"/><path d="M389.2677,216.0649c-1.3891,-1.5908 -2.2425,-6.2027 -2.4423,-7.1453c-0.199,-0.9425 0.3475,-3.0761 1.5997,-3.5073c1.2522,-0.4322 2.4757,0.7886 2.4757,0.7886c0.9128,1.2801 2.6944,3.5622 3.5748,5.2808c0.1531,0.3052 0.2854,0.5978 0.415,0.8858l-0.0018,-0.018c0,0 2.1273,0.5348 1.8194,1.5359c-0.1863,0.6058 -0.7004,0.9281 -1.083,1.0983c0.0946,1.1568 -0.2133,2.0804 -1.0676,2.6692c-1.9896,1.3927 -5.2899,-1.588 -5.2899,-1.588v0v0v0v0v0z" id="R_Arm" fill="#be1e2d" stroke="#231f20" stroke-width="0.78672" stroke-linecap="round" stroke-linejoin="round"/><path d="M385.1284,217.4494c1.5583,-0.4528 3.4713,0 3.4713,0c0,0 0.8472,5.1476 1.1064,7.0102c0.2602,1.8653 1.2253,4.7821 1.2253,4.7821c0,0 0.487,0.2917 0.3502,1.0533c-0.1405,0.7598 -1.8131,0.9074 -3.9107,1.3063c-2.094,0.3943 -3.8062,0.0567 -4.1357,-0.6923c-0.3322,-0.7454 0.2872,-1.0929 0.2872,-1.0929c0,0 0.9758,-6.1478 0.0873,-8.2634c0.0045,0.0045 -0.4681,-3.5262 1.5187,-4.1033v0v0v0v0v0z" id="R_Leg" fill="#be1e2d" stroke="#231f20" stroke-width="0.90024" stroke-linecap="round" stroke-linejoin="round"/><path d="M378.4117,218.0265v0v0v0v0v0c2.8087,1.2882 3.1076,3.8701 3.1085,3.8728c-0.5563,2.22 1.2235,7.3775 1.2235,7.3775c0,0 0.6661,0.2449 0.4573,1.0326c-0.2125,0.7895 -1.8482,1.3891 -3.9827,1.3216c-2.1309,-0.0694 -3.8053,0.0432 -4.0619,-0.6887c-0.2566,-0.7319 0.181,-1.0938 0.181,-1.0938c0,0 0.0495,-1.7618 0.0162,-3.6451c-0.0352,-1.8779 -0.343,-7.0327 -0.343,-7.0327c0,0 1.561,-1.9886 3.4011,-1.1442z" id="L_Leg" fill="#be1e2d" stroke="#231f20" stroke-width="0.90024" stroke-linecap="round" stroke-linejoin="round"/><g id="Body_1_" stroke-width="0.90024"><path d="M389.2452,210.8452v0v0v0v0v0c0.415,2.8016 -0.2521,7.9609 -3.4623,9.7722c-3.1752,1.7879 -6.543,1.5484 -10.0341,-0.8336c-2.8925,-1.9743 -2.8232,-7.6206 -2.5207,-10.7796v0c0,0 0.0198,-7.3081 6.1703,-8.2084c6.1486,-0.9002 9.0042,4.7074 9.4795,8.2057c0.1495,0.6158 0.2773,1.2442 0.3673,1.8437z" id="Body" fill="#be1e2d" stroke="#000000" stroke-linecap="butt" stroke-linejoin="miter"/><path d="M387.5492,218.8736v0v0v0v0v0l-0.0153,0.1431c-0.4718,0.6518 -1.0515,1.2046 -1.7501,1.5989c-2.9411,1.6564 -6.0461,1.5736 -9.2626,-0.3412l-0.0333,-0.144c0,0 -1.7033,-9.2942 4.2221,-9.7092c6.7284,-0.4681 6.8815,6.8977 6.8392,8.4524z" id="Belly" fill="#e6e7e8" stroke="#231f20" stroke-linecap="round" stroke-linejoin="round"/></g><g id="Head_3_" stroke-width="0.90024"><g id="Head_2_" stroke="#000000" stroke-linecap="round" stroke-linejoin="round"><path d="M425.0911,180.9923l-0.5347,1.5484c-2.9663,7.8213 -7.1831,12.3225 -7.1831,12.3225c0,0 0.1513,-1.3963 0.0703,-3.6397l-0.1315,-0.0459c-0.3799,1.1811 -1.0038,2.7043 -2.0408,4.5859c-2.2741,4.1321 -8.9521,7.5962 -8.9521,7.5962c0,0 0.4151,-1.4206 0.6752,-3.745l-0.0936,-0.3556c-0.7238,0.5573 -1.4746,1.0695 -2.2335,1.5682c-0.2233,0.1477 -0.4465,0.2917 -0.6734,0.4312c-0.6905,0.4295 -1.3936,0.8391 -2.1111,1.2217c-0.2835,0.1494 -0.5779,0.2881 -0.8651,0.4312c-0.5239,0.262 -1.0551,0.5095 -1.5943,0.749c-0.3961,0.1737 -0.7949,0.3466 -1.201,0.5077c-0.4204,0.1693 -0.8525,0.3214 -1.2819,0.4799c-0.7895,0.2826 -1.5907,0.5464 -2.41,0.7895c-0.2673,0.0792 -0.5347,0.1584 -0.8066,0.2322c-0.5842,0.1603 -1.173,0.3169 -1.7725,0.4556l0.0018,0.0018c-3.0096,0.7013 -6.2027,1.1586 -9.621,1.3692c-3.6982,0.2269 -7.0507,0.19 -10.1817,-0.0279v0c-2.4775,-0.1737 -4.7965,-0.4708 -6.9922,-0.8723c-0.1062,-0.0189 -0.2134,-0.0387 -0.3205,-0.0576c-0.6788,-0.1288 -1.3468,-0.2656 -2.0021,-0.4132c-0.2287,-0.0532 -0.4475,-0.1108 -0.6752,-0.1657c-0.8706,-0.207 -1.7168,-0.4339 -2.5513,-0.6752c-0.5275,-0.153 -1.0515,-0.3097 -1.5637,-0.4762c-0.3043,-0.0963 -0.6095,-0.1972 -0.9075,-0.2989c-0.8138,-0.2809 -1.6204,-0.5662 -2.4027,-0.8741l-0.136,0.1305c0.2953,2.1147 1.0245,3.2526 1.607,3.7945c1.1874,1.1064 3.4731,1.3693 3.4731,1.3693c0,0 -6.9868,0.9777 -10.7912,-4.4166c-0.4042,-0.5734 -0.812,-1.1676 -1.1991,-1.8005l-0.1666,-0.3619c-0.8264,-0.2763 -1.6636,-0.6436 -2.4901,-1.1163c-5.0395,-2.9033 -5.6724,-5.2979 -5.6724,-5.2979l0.1053,0.8777c0.4853,2.2876 0.9588,3.7315 0.9588,3.7315c0,0 -6.0316,-3.817 -8.718,-9.5371c-2.1659,-4.6174 -2.3379,-7.4144 -2.3523,-7.8844l-0.2026,-1.6798c-0.1305,-6.5781 0.2782,-13.9565 1.1821,-21.2152l0.0558,-0.1935c0.8057,-5.6112 0.0243,-14.9072 7.4693,-24.4191c13.9511,-17.8195 28.2037,-17.2001 36.7281,-30.3697c6.2702,-9.6885 4.6597,-20.8002 4.6597,-20.8002c0,0 3.845,5.4438 5.379,8.6406c1.4854,3.1157 3.0716,7.1317 3.0716,7.1317l0.0513,-0.0342c0.0351,-0.1171 0.0666,-0.2368 0.0936,-0.3565c0.4187,-1.8644 0.253,-4.621 0.253,-4.621c0,0 3.6658,10.7435 9.584,17.787c5.9146,7.04 14.4633,9.052 25.2563,33.1614c1.3432,2.996 2.5918,5.5176 3.2598,8.3129l0.3025,1.6087c0.9408,5.027 0.5708,18.915 -1.4062,24.9152v0v0v0v0v0zM355.9506,157.3807c0,0 -6.9913,7.2622 -6.5304,17.3675c0.4078,8.9412 2.7251,11.7031 3.9737,12.3945c1.2838,0.7067 3.2742,0.2881 3.2742,0.2881c0,0 -5.6301,2.9816 -10.2196,-1.0641c-3.0698,-2.7043 -6.4106,-6.1928 -7.346,-16.0324M414.1289,173.4842c0,0 0.8687,2.4865 -1.2487,7.6836c-2.382,5.8552 -7.4081,7.6665 -7.4081,7.6665c0,0 4.1762,-9.0205 0.6716,-17.5017c-1.5295,-3.7054 -6.2504,-6.4655 -11.1783,-8.4145c-6.678,-2.6432 -13.7351,-3.7955 -13.7351,-3.7955M417.3427,191.0795c-0.3763,1.1955 -1.0091,2.7556 -2.0768,4.6876c-2.2732,4.1321 -8.9512,7.5962 -8.9512,7.5962c0,0 1.2064,-4.1447 0.795,-9.8514M340.5267,177.5848c-0.686,1.273 -1.2135,2.6377 -1.5088,4.079c-1.8545,8.9863 1.4089,18.8845 1.4089,18.8845c0,0 -6.0298,-3.8153 -8.718,-9.5372c-2.3829,-5.0783 -2.3523,-7.9546 -2.3523,-7.9546M424.5519,182.547c-2.9681,7.8213 -7.184,12.3225 -7.184,12.3225c0,0 0.8706,-7.9329 -2.6413,-16.415c-0.1584,-0.3835 -0.3376,-0.7562 -0.5275,-1.1181M381.2312,159.1226c0,0 1.1956,0.3169 4.35,2.8277c3.1545,2.5108 4.3149,5.2502 4.3149,5.2502c0,0 -9.3139,-2.4531 -14.4705,-4.3076c-5.1512,-1.8563 -22.534,-6.5898 -22.534,-6.5898M351.7375,196.4683c2.5251,3.9665 5.1521,6.1244 5.1521,6.1244c0,0 -6.1784,1.913 -11.8545,-1.354c-5.0395,-2.9032 -5.6724,-5.2979 -5.6724,-5.2979M406.8945,199.2645c-6.6591,5.1233 -14.737,7.6341 -24.5623,8.239c-11.7139,0.7211 -20.2761,-0.9902 -27.5942,-3.8611M354.53,203.1184c0.2215,2.5369 1.0371,3.8522 1.6772,4.4463c1.1883,1.1064 3.474,1.3693 3.474,1.3693c0,0 -6.9886,0.9777 -10.7921,-4.4166c-0.4042,-0.5734 -0.812,-1.1676 -1.1991,-1.8005M381.9073,159.4233c0,0 25.5147,3.1122 25.5147,17.038" id="Head_1_" fill="#be1e2d"/><path d="M412.4229,182.4831c-0.9516,10.0152 -12.4648,20.4643 -29.3137,21.4492c-14.8748,0.8777 -36.8569,-5.8111 -40.0465,-18.1282c-0.3169,-1.2379 -0.4852,-2.4334 -0.5311,-3.5821l0.3232,0.2359c1.1289,1.6528 2.3811,2.8447 3.5937,3.9106c4.5895,4.0439 10.2196,1.0623 10.2196,1.0623c0,0 -1.9904,0.4204 -3.2742,-0.2863c-1.2486,-0.6914 -3.5659,-3.4533 -3.9737,-12.3945c-0.4609,-10.1071 6.5304,-17.3675 6.5304,-17.3675l0.0243,-0.2323c5.2322,1.4494 15.6561,4.3752 19.4489,5.7427c5.1566,1.8554 14.4705,4.3076 14.4705,4.3076c0,0 -1.1604,-2.7394 -4.3149,-5.2502c-1.579,-1.2558 -2.6656,-1.9625 -3.357,-2.3559l0.6482,0.1017c0,0 19.6721,2.9078 23.2749,11.6365c3.5037,8.4821 -0.6707,17.5017 -0.6707,17.5017c0,0 4.2798,-1.5439 6.8077,-6.3791l0.1404,0.0279v0v0v0v0v0z" id="Face" fill="#e6e7e8"/></g><g id="R_Ear" stroke="#000000" stroke-linecap="round" stroke-linejoin="miter"><path d="M419.3755,164.2c0,0 9.0654,-10.1502 9.5696,-10.631c0.5041,-0.4807 4.2509,-5.0737 15.0493,-6.6429c0,0 -6.9345,30.8361 -23.0876,37.8895c0,-0.0009 1.5367,-8.8242 -1.5313,-20.6156v0v0v0v0v0zM419.4385,164.4485c-0.2332,-0.975 -0.9372,-2.6972 -0.9372,-2.6972M420.1326,187.1796c0,0 0.6202,-1.4782 0.7742,-2.3649" id="Outer_Ear_1_" fill="#be1e2d"/><path d="M427.3444,179.9687c0,0 -1.6177,-1.2433 -1.8041,-5.3331c-0.1197,-2.5369 0.9948,-7.1632 0.9948,-7.1632l-0.09,0.1476c0.7067,-0.8174 1.4521,-1.7725 2.1273,-2.8204c1.1442,-1.7726 2.4828,-4.431 3.7099,-7.0516l0.1899,-0.361c0,0 3.2445,-4.7452 9.9693,-5.3457l0.0774,0.0423c-1.4169,4.6876 -3.7279,11.5628 -6.2873,16.2593c-2.8708,5.2683 -6.1927,9.0943 -9.006,11.7221l0.1188,-0.0963v0v0v0v0v0zM423.7345,170.2623c0,0 2.3595,-2.3056 2.8006,-2.7899" id="Inner_Ear_1_" fill="#929497"/></g><g id="L_Ear" stroke="#000000" stroke-linecap="round" stroke-linejoin="miter"><path d="M331.8709,184.8147c-16.1522,-7.0534 -23.0868,-37.8895 -23.0868,-37.8895c10.7985,1.5701 14.5453,6.1631 15.0494,6.6429c0.5041,0.4799 9.5696,10.631 9.5696,10.631c-3.0689,11.7923 -1.5322,20.6156 -1.5322,20.6156v0v0v0v0v0zM334.2763,161.7513c0,0 -0.704,1.7222 -0.9371,2.6972M331.8709,184.8147c0.1539,0.8867 0.7742,2.3649 0.7742,2.3649" id="Outer_Ear_2_" fill="#be1e2d"/><path d="M325.5521,180.065c-2.8133,-2.6287 -6.1343,-6.4547 -9.0061,-11.7221c-2.5603,-4.6965 -4.8703,-11.5717 -6.2873,-16.2593l0.0775,-0.0423c6.7257,0.6014 9.9693,5.3457 9.9693,5.3457l0.1899,0.361c1.227,2.6206 2.5657,5.279 3.7099,7.0516c0.6752,1.0479 1.4206,2.003 2.1273,2.8204l-0.09,-0.1476c0,0 1.1145,4.6263 0.9947,7.1632c-0.1863,4.0898 -1.8041,5.3331 -1.8041,5.3331l0.1189,0.0963v0v0v0v0v0zM326.2426,167.4724c0.4411,0.4843 2.8006,2.7899 2.8006,2.7899" id="Inner_Ear_2_" fill="#929497"/></g><path d="M368.7476,177.8009v0v0v0v0v0c0.7175,0.2007 1.1343,0.9443 0.9317,1.6618c-0.2007,0.7193 -0.9407,1.1361 -1.6636,0.939c-0.0414,-0.0126 -4.2303,-1.1514 -8.3255,0.0423c-0.126,0.036 -0.2512,0.0549 -0.3763,0.0549c-0.5851,0 -1.1253,-0.3853 -1.2972,-0.974c-0.1018,-0.3439 -0.0514,-0.6977 0.1035,-0.9948c-0.253,-0.2215 -0.4924,-0.5077 -0.6581,-0.9021c-0.1944,-0.4573 0.0198,-0.9866 0.4789,-1.1802c0.4547,-0.1881 0.9858,0.0171 1.1812,0.4781c0.1548,0.3673 0.6031,0.4726 0.6085,0.4744c0.1324,0.0297 0.2485,0.0909 0.3484,0.1701c0.1333,-0.0279 0.2674,-0.0567 0.3988,-0.0792c-0.1386,-0.2088 -0.2673,-0.4429 -0.3448,-0.731c-0.1278,-0.4816 0.1585,-0.9723 0.6401,-1.101c0.4852,-0.1332 0.9741,0.1603 1.101,0.6401c0.1017,0.3835 0.5203,0.5572 0.5239,0.559c0.1954,0.0667 0.3394,0.2017 0.4448,0.3619c3.2246,-0.1503 5.7606,0.5402 5.9047,0.5807z" id="L_Eye" fill="#231f20" stroke="none" stroke-linecap="butt" stroke-linejoin="miter"/><path d="M400.9628,176.6918v0v0v0v0v0c-0.1585,0.803 -0.6401,1.2828 -1.0335,1.5718c0.0999,0.253 0.1513,0.5312 0.081,0.8156c-0.1791,0.7229 -0.8948,1.1695 -1.6348,0.9885c-2.8043,-0.6914 -6.435,-0.9425 -7.1651,-0.1989c-0.2637,0.2673 -0.6094,0.4024 -0.9596,0.4024c-0.3448,0 -0.686,-0.1306 -0.9498,-0.3907c-0.5311,-0.5222 -0.5383,-1.3765 -0.0144,-1.9095c1.4107,-1.4331 4.3878,-1.3962 6.7699,-1.083c0.1161,-0.0999 0.3006,-0.3042 0.3186,-0.5869c0.0253,-0.4942 0.4133,-0.9084 0.9444,-0.8525c0.496,0.0252 0.8768,0.4465 0.8525,0.9443c-0.018,0.3133 -0.0954,0.578 -0.1917,0.8192c0.1179,0.0243 0.2304,0.0459 0.3358,0.0703c0.0936,-0.1441 0.2106,-0.271 0.3799,-0.3448c0.0252,-0.0144 0.424,-0.2125 0.5014,-0.5978c0.099,-0.487 0.5645,-0.812 1.0587,-0.7067c0.487,0.099 0.803,0.5699 0.7067,1.0587z" id="R_Eye" fill="#231f20" stroke="none" stroke-linecap="butt" stroke-linejoin="miter"/><path d="M390.4722,186.5918c0,0 -2.6008,6.6078 -10.7588,6.5727c-8.1598,-0.0298 -11.3898,-4.9865 -11.3898,-4.9865" id="Mouth" fill="none" stroke="#231f20" stroke-linecap="round" stroke-linejoin="miter"/></g></g><text transform="translate(25,271.01)" font-size="22" xml:space="preserve" data-paper-data="{&quot;origPos&quot;:null}" id="ID0.8197013060562313" fill="#ffffff" fill-rule="nonzero" stroke="none" stroke-width="1" stroke-linecap="butt" stroke-linejoin="miter" stroke-miterlimit="10" stroke-dasharray="" stroke-dashoffset="0" font-family="Sans Serif" font-weight="400" text-anchor="start" style="mix-blend-mode: normal"><tspan x="0" dy="0">She is Giga, one of the animatronics that</tspan><tspan x="0" dy="24.86px">will try to catch you. She will try to enter </tspan><tspan x="0" dy="24.86px">to your office through the right door.</tspan></text></g></g></svg>