<svg version="1.1" xmlns="http://www.w3.org/2000/svg" xmlns:xlink="http://www.w3.org/1999/xlink" width="240.67188" height="163.0748" viewBox="0,0,240.67188,163.0748"><g transform="translate(-119.375,-128.96645)"><g data-paper-data="{&quot;isPaintingLayer&quot;:true}" fill="none" fill-rule="nonzero" stroke="none" stroke-width="none" stroke-linecap="butt" stroke-linejoin="miter" stroke-miterlimit="10" stroke-dasharray="" stroke-dashoffset="0" font-family="none" font-weight="none" font-size="none" text-anchor="none" style="mix-blend-mode: normal"><g id="ID0.9360204124823213"><path d="M254.718,203.002c2.671,-0.17 6.856,4.137 6.856,4.137c0,0 1.48,1.291 5.784,3.453c2.526,1.276 6.001,2.345 6.001,2.345c0,0 2.266,-1.461 4.892,0.252c4.299,2.797 -5.488,17.619 -10.821,15.901c-6.203,-1.998 -1.581,-7.672 -0.334,-9.496l0.086,-0.215c-8.238,-2.211 -17.07,-8.412 -17.07,-8.412c-3.452,-3.252 1.937,-7.795 4.606,-7.965zM267.183,219.379l2.271,0.711" id="Back_Leg" fill="#faa51d" stroke="#000000" stroke-width="1"/><g id="Tail" stroke-width="1"><path d="M265.805,203.217c2.415,-0.451 5.305,-1.311 7.742,-3.504c5.451,-4.906 7.194,-13 11.048,-10.914c3.856,2.088 3.782,15.166 -8.353,19.195c-4.182,1.391 -7.998,1.395 -11.091,1.312c-0.812,-0.026 -7.718,-0.655 -10.079,-4.075c-2.361,-3.419 -0.719,-4.271 0.09,-4.744c0.81,-0.471 7.227,3.368 10.643,2.73z" id="Tail_1_" fill="#faa51d" stroke="#000000"/><path d="M284.459,189.107c1.437,0.778 2.256,3.397 1.994,6.374c-0.141,1.594 -1.104,5.652 -4.968,9.072c-0.275,-0.545 0.975,-2.936 -0.742,-4.379c-1.837,-1.543 -4.86,-1.225 -5.853,-1.061c1.663,-1.812 3.004,-3.812 4.176,-5.64c2.283,-3.551 3.559,-5.357 5.393,-4.366z" id="Tail_Tip" fill="#ffffff" stroke="none"/></g><path d="M236.16,199.096c0,0 -1.234,0.166 -4.744,3.677c-3.509,3.509 -6.025,2.16 -8.911,0.724c-2.877,-1.442 -10.536,-6.127 -6.489,-9.817c4.05,-3.688 6.207,1.146 9.716,2.405c3.511,1.26 5.06,-2.487 6.856,-4.287c0.59,-0.594 1.188,-1.098 1.729,-1.506c0,0 0.972,-0.758 1.905,2.791c0.935,3.541 1.945,4.544 -0.062,6.013z" id="R_Arm" fill="#faa51d" stroke="#000000" stroke-width="1"/><g id="Front_Leg_x2F_Body_1_" stroke-width="1"><path d="M241.576,206.224c-1.188,-0.912 -2.396,-2.401 -3.951,-4.714c-1.296,-1.926 -2.699,-5.577 -2.699,-5.577c-0.875,-2.521 -1.935,-6.576 1.901,-7.296c1.553,-0.291 4.079,-0.098 7.67,-0.776c3.593,-0.681 6.798,-2.522 9.517,2.233c2.719,4.757 9.591,8.271 1.057,16.562c0,0 -4.901,3.842 -10.765,9.639c-4.832,4.774 -12.044,10.603 -12.044,10.603c0,0 -18.973,2.188 -19.534,-0.694c-1.923,-9.789 14.775,-6.91 14.775,-6.91c0,0 4.604,-3.933 6.727,-5.795c3.477,-3.058 11.125,-10.771 11.125,-10.771" id="Front_Leg_x2F_Body" fill="#faa51d" stroke="#000000"/><path d="M239.36,194.551c4.94,-2.656 7.214,-0.015 8.74,1.522c2.645,2.654 -3.442,6.61 -3.442,6.61l-3.062,3.089c-2.999,-3.496 -4.579,-5.874 -5.292,-7.934c0.142,-0.941 0.878,-2.113 3.056,-3.287z" id="Belly" fill="#ffffff" stroke="none"/></g><path d="M258.403,197.43c-0.749,-0.571 -2.89,-2.202 -4.854,-3.657c-2.428,-1.799 -6.117,-5.849 -1.077,-7.646c5.04,-1.801 7.508,1.604 11.52,4.945c2.159,1.801 5.308,2.698 4.319,6.209c-0.993,3.512 -4.862,13.407 -11.789,10.17c-6.93,-3.238 1.799,-9.181 3.06,-11.156" id="L_Arm" fill="#faa51d" stroke="#000000" stroke-width="1"/><g id="Head"><g id="Head_1_" stroke-width="1"><path d="M202.648,167.457c1.472,-6.447 8.891,-7.579 8.891,-7.579c0,0 -0.176,-5.351 2.628,-10.347c1.856,-3.307 8.351,-8.042 8.351,-8.042l2.854,-11.55l7.43,7.32l2.854,1.105c1.539,-0.143 4.718,-0.312 6.485,-0.227c4.729,0.225 9.227,2.036 9.227,2.036l12.878,-8.524l-2.233,18.91c-0.646,-0.786 10.553,12.802 3.477,24.22c-3.319,5.36 -10.159,10.124 -15.599,11.947c-4.062,1.36 -10.833,1.737 -14,1.737c-2.646,0 -7.768,-0.541 -10.32,-0.979c-3.021,-0.519 -6.479,-1.629 -10.055,-3.108c-9.497,-3.934 -14.338,-10.472 -12.868,-16.919zM249.329,142.212l2.035,-2.039M235.412,138.212c-2,0.333 -4.333,1.366 -4.333,1.366" id="Head_Fill" fill="#faa51d" stroke="#000000"/><path d="M211.954,160.129l2.881,-3.107l9.113,2.661c0,0.01 0.005,1.619 1.42,2.933c0.646,0.6 1.583,1.138 2.948,1.435c4.371,0.951 11.212,-2.277 11.212,-2.277l7.784,3.417c0,0 4.744,0.522 7.244,2.956c0.833,0.812 1.417,1.835 1.492,3.123c0.493,8.398 -8.68,13.252 -15.083,15.602c-1.778,0.652 -2.388,0.851 -3.472,1.139c0,0 -7.424,-0.195 -10.181,-0.588c-3.032,-0.432 -7.578,-1.758 -11.154,-3.236c-9.498,-3.933 -14.601,-10.024 -13.129,-16.471c1.474,-6.451 8.925,-7.587 8.925,-7.587z" id="Muzzle" fill="#ffffff" stroke="none"/></g><g id="L_Eye" stroke-width="1"><path d="M240.462,152.831c2.929,-4.482 7.977,-6.366 11.279,-4.21c3.302,2.157 3.606,7.537 0.678,12.017c-2.923,4.48 -7.972,6.367 -11.275,4.208c-3.3,-2.153 -3.608,-7.535 -0.682,-12.015" id="Eyeball_1_" fill="#ffffff" stroke="#000000"/><path d="M242.25,158.719c0,-1.08 0.805,-1.957 1.801,-1.957c0.992,0 1.804,0.877 1.804,1.957c0,1.079 -0.812,1.957 -1.804,1.957c-0.998,0 -1.801,-0.876 -1.801,-1.957" id="Pupil_1_" fill="#000000" stroke="none"/></g><g id="R_Eye" stroke-width="1"><path d="M216.739,149.75c2.927,-4.482 7.111,-6.573 9.898,-4.75c2.793,1.825 2.647,6.479 -0.286,10.959c-2.923,4.482 -7.311,6.859 -10.104,5.034c-2.791,-1.824 -2.433,-6.764 0.492,-11.243" id="Eyeball" fill="#ffffff" stroke="#000000"/><path d="M217.24,156.734c0,-1.08 0.802,-1.958 1.8,-1.958c0.993,0 1.804,0.878 1.804,1.958c0,1.079 -0.811,1.956 -1.804,1.956c-0.998,0 -1.8,-0.876 -1.8,-1.956" id="Pupil" fill="#000000" stroke="none"/></g><path d="M228.564,162.138c1.711,0 4.559,-0.571 4.485,0.995c-0.069,1.566 -4.912,4.061 -6.194,3.919c-1.278,-0.142 -3.132,-3.49 -2.987,-4.345c0.14,-0.853 2.842,-0.569 4.696,-0.569" id="Nose" fill="#5e4a42" stroke="#000000" stroke-width="1"/><path d="M266.35,166.602l-0.716,-0.962c0.099,-0.074 2.481,-1.837 6.232,-3.498c4.144,-1.836 6.43,-2.322 6.525,-2.342l0.245,1.175c-0.021,0.005 -2.272,0.488 -6.284,2.265c-3.62,1.602 -5.979,3.345 -6.002,3.362z" id="Whisker_3_" fill="#000000" stroke="none" stroke-width="1"/><path d="M272.472,171.254c-0.301,0 -0.581,-0.006 -0.823,-0.021c-1.867,-0.107 -5.389,-0.571 -5.537,-0.591l0.157,-1.189c0.035,0.005 3.627,0.479 5.447,0.583c1.799,0.101 5.846,-0.262 5.887,-0.266l0.107,1.195c-0.146,0.013 -3.203,0.289 -5.238,0.289z" id="Whisker_2_" fill="#000000" stroke="none" stroke-width="1"/><path d="M206.576,165.475c-0.187,-0.031 -4.627,-0.761 -6.961,-1.575c-2.794,-0.97 -4.664,-2.593 -4.742,-2.661l0.791,-0.902c0.019,0.015 1.772,1.536 4.345,2.43c2.237,0.779 6.715,1.516 6.761,1.523l-0.194,1.185z" id="Whisker_1_" fill="#000000" stroke="none" stroke-width="1"/><path d="M197.549,172.979c-0.957,0 -1.526,-0.048 -1.569,-0.052l0.104,-1.195c0.017,0.001 1.863,0.157 4.535,-0.11c2.682,-0.269 5.341,-1.333 5.368,-1.344l0.45,1.112c-0.115,0.047 -2.841,1.14 -5.699,1.426c-1.284,0.128 -2.377,0.163 -3.189,0.163z" id="Whisker" fill="#000000" stroke="none" stroke-width="1"/><path d="M233.814,182.672c-9.338,2.6 -17.327,-7.645 -17.327,-7.645c0,0 6.984,-0.842 10.851,-1.684c3.87,-0.842 14.217,-3.896 14.217,-3.896c1.43,4.74 1.598,10.628 -7.741,13.225z" id="Mouth" fill="none" stroke="#231f20" stroke-width="1.2"/></g></g><text transform="translate(121,260.01)" font-size="22" xml:space="preserve" data-paper-data="{&quot;origPos&quot;:null}" id="ID0.27340895123779774" fill="#ffffff" fill-rule="nonzero" stroke="none" stroke-width="1" stroke-linecap="butt" stroke-linejoin="miter" stroke-miterlimit="10" stroke-dasharray="" stroke-dashoffset="0" font-family="Sans Serif" font-weight="400" text-anchor="start" style="mix-blend-mode: normal"><tspan x="0" dy="0">Well, the programmer </tspan><tspan x="0" dy="24.86px">  pays me for doing it.</tspan></text></g></g></svg>