<svg xmlns="http://www.w3.org/2000/svg" xmlns:xlink="http://www.w3.org/1999/xlink" version="1.1" width="58.122825622558594" height="68.14932250976562" viewBox="0.5726392269134521 1.1324999332427979 58.122825622558594 68.14932250976562">
  <!-- Exported by Scratch - http://scratch.mit.edu/ -->
  <g id="ID0.6178100248798728">
    <path id="Back_Leg" fill="#B2B2B2" stroke="#000000" d="M 25.92 56.4318 C 25.92 56.4318 19.947 60.6256 14.3756 62.1209 L 14.4337 62.2663 C 15.2771 63.4998 18.403 67.3372 14.2079 68.6884 C 10.6012 69.8503 3.9822 59.8262 6.8896 57.9346 C 8.6656 56.7761 10.1981 57.7641 10.1981 57.7641 C 10.1981 57.7641 12.5482 57.0412 14.2566 56.1782 C 17.1674 54.716 18.1683 53.8429 18.1683 53.8429 C 18.1683 53.8429 20.9986 50.9301 22.805 51.0451 C 24.61 51.1601 28.2546 54.2325 25.92 56.4318 Z M 12.839 62.6017 L 14.3749 62.1209 " stroke-width="0.6763005869891714"/>
    <g id="Tail">
      <path id="Tail_1_" fill="#B2B2B2" stroke="#000000" d="M 15.3069 51.1905 C 13.6736 50.8855 11.7191 50.3039 10.0709 48.8207 C 6.3844 45.5028 5.2056 40.0288 2.5992 41.4396 C -0.0086 42.8517 0.0414 51.6964 8.2483 54.4212 C 11.0766 55.3619 13.6574 55.3646 15.7492 55.3085 C 16.2983 55.2909 20.9688 54.8655 22.5656 52.5526 C 24.1623 50.2403 23.0518 49.6641 22.5047 49.3442 C 21.9569 49.0256 17.6171 51.622 15.3069 51.1905 Z " stroke-width="0.6763005869891714"/>
      <path id="Tail_Tip" fill="#FFFFFF" d="M 2.6911 41.6479 C 1.7193 42.174 1.1654 43.9453 1.3426 45.9586 C 1.438 47.0366 2.0892 49.7811 4.7025 52.094 C 4.8884 51.7254 4.0431 50.1084 5.2043 49.1325 C 6.4466 48.089 8.4911 48.304 9.1627 48.4149 C 8.038 47.1895 7.1311 45.8369 6.3384 44.6006 C 4.7944 42.1991 3.9315 40.9777 2.6911 41.6479 Z " stroke-width="0.6763005869891714"/>
    </g>
    <path id="R_Arm" fill="#B2B2B2" stroke="#000000" d="M 35.3558 48.4034 C 35.3558 48.4034 36.1903 48.5157 38.5642 50.8902 C 40.9373 53.2633 42.6389 52.351 44.5907 51.3798 C 46.5364 50.4046 51.7162 47.2362 48.9792 44.7406 C 46.2402 42.2464 44.7814 45.5156 42.4082 46.3671 C 40.0338 47.2192 38.9862 44.6851 37.7715 43.4678 C 37.3725 43.0661 36.9681 42.7252 36.6022 42.4493 C 36.6022 42.4493 35.9448 41.9367 35.3139 44.3369 C 34.6815 46.7316 33.9984 47.41 35.3558 48.4034 Z " stroke-width="0.6763005869891714"/>
    <g id="Front_Leg_x2F_Body_1_">
      <path id="Front_Leg_x2F_Body" fill="#B2B2B2" stroke="#000000" d="M 31.6929 53.2241 C 32.4964 52.6073 33.3134 51.6003 34.365 50.036 C 35.2415 48.7335 36.1903 46.2643 36.1903 46.2643 C 36.7821 44.5594 37.499 41.817 34.9047 41.33 C 33.8544 41.1332 32.1461 41.2637 29.7175 40.8052 C 27.2875 40.3447 25.12 39.0996 23.2811 42.3154 C 21.4423 45.5326 16.7947 47.9091 22.5663 53.5163 C 22.5663 53.5163 25.8808 56.1146 29.8466 60.0351 C 33.1145 63.2638 37.992 67.206 37.992 67.206 C 37.992 67.206 50.8235 68.6857 51.2029 66.7366 C 52.5034 60.1163 41.2105 62.0634 41.2105 62.0634 C 41.2105 62.0634 38.0968 59.4035 36.661 58.1442 C 34.3095 56.0761 29.1372 50.8598 29.1372 50.8598 " stroke-width="0.6763005869891714"/>
      <path id="Belly" fill="#FFFFFF" d="M 33.1916 45.3297 C 29.8507 43.5334 28.3128 45.3195 27.2808 46.359 C 25.4919 48.1539 29.6086 50.8293 29.6086 50.8293 L 31.6794 52.9184 C 33.7076 50.5541 34.7762 48.9458 35.2584 47.5527 C 35.1624 46.9163 34.6646 46.1236 33.1916 45.3297 Z " stroke-width="0.6763005869891714"/>
    </g>
    <path id="L_Arm" fill="#B2B2B2" stroke="#000000" d="M 20.3128 47.2767 C 20.8194 46.8906 22.2673 45.7875 23.5956 44.8035 C 25.2377 43.5868 27.7325 40.8478 24.324 39.6325 C 20.9154 38.4145 19.2463 40.7173 16.533 42.9768 C 15.0729 44.1948 12.9432 44.8015 13.612 47.176 C 14.2836 49.5511 16.9002 56.2431 21.585 54.0539 C 26.2717 51.8641 20.3683 47.8448 19.5155 46.5091 " stroke-width="0.6763005869891714"/>
    <g id="Head_1_">
      <path id="Head_Fill" fill="#B2B2B2" stroke="#000000" d="M 58.02 27.006 C 57.0245 22.6459 52.007 21.8803 52.007 21.8803 C 52.007 21.8803 52.126 18.2614 50.2297 14.8826 C 48.9744 12.6461 44.5819 9.4438 44.5819 9.4438 L 42.6517 1.6325 L 37.6268 6.5831 L 35.6966 7.3304 C 34.6558 7.2337 32.5059 7.1194 31.3108 7.1768 C 28.1126 7.329 25.0706 8.5538 25.0706 8.5538 L 16.3612 2.789 L 17.8714 15.5778 C 18.3083 15.0463 10.7344 24.2358 15.5199 31.9578 C 17.7645 35.5828 22.3904 38.8047 26.0695 40.0376 C 28.8166 40.9574 33.3959 41.2123 35.5377 41.2123 C 37.3272 41.2123 40.7912 40.8465 42.5171 40.5502 C 44.5602 40.1992 46.8989 39.4486 49.3173 38.4483 C 55.7402 35.7877 59.0141 31.3661 58.02 27.006 Z M 26.4496 9.9328 L 25.0733 8.5538 M 35.8617 7.2276 C 37.2143 7.4528 38.7921 8.1514 38.7921 8.1514 " stroke-width="0.6763005869891714"/>
      <path id="Muzzle" fill="#FFFFFF" d="M 51.7263 22.05 L 49.7779 19.9488 L 43.6148 21.7484 C 43.6148 21.7552 43.6114 22.8433 42.6544 23.732 C 42.2175 24.1378 41.5838 24.5016 40.6607 24.7025 C 37.7046 25.3457 33.078 23.1626 33.078 23.1626 L 27.8137 25.4735 C 27.8137 25.4735 24.6053 25.8265 22.9146 27.4726 C 22.3512 28.0218 21.9562 28.7136 21.9055 29.5847 C 21.5721 35.2643 27.7758 38.547 32.1062 40.1364 C 33.3086 40.5773 33.7212 40.7119 34.4543 40.9067 C 34.4543 40.9067 39.4751 40.7748 41.3397 40.509 C 43.3902 40.2168 46.4647 39.3201 48.8831 38.3205 C 55.3067 35.6606 58.7578 31.5412 57.7623 27.1811 C 56.7654 22.8183 51.7263 22.05 51.7263 22.05 Z " stroke-width="0.6763005869891714"/>
    </g>
    <g id="L_Eye">
      <path id="Eyeball_1_" fill="#FFFFFF" stroke="#000000" d="M 32.4463 17.1144 C 34.4252 20.1442 34.2169 23.7841 31.9851 25.2402 C 29.7513 26.7003 25.895 24.6274 24.3598 22.3943 C 22.8638 20.2179 22.5426 15.6495 24.5079 14.3206 C 26.5862 13.0093 32.4463 17.1144 32.4463 17.1144 " stroke-width="0.6763005869891714"/>
      <path id="Pupil_1_" d="M 31.2371 21.0965 C 31.2371 21.8275 30.694 22.42 30.0191 22.42 C 29.3482 22.42 28.7991 21.8262 28.7991 21.0965 C 28.7991 20.3661 29.3482 19.7729 30.0191 19.7729 C 30.6927 19.7729 31.2371 20.3661 31.2371 21.0965 " stroke-width="0.6763005869891714" fill="undefined"/>
    </g>
    <g id="R_Eye">
      <path id="Eyeball" fill="#FFFFFF" stroke="#000000" d="M 48.4902 15.0307 C 48.4902 15.0307 51.0717 19.7736 50.0721 21.8952 C 49.3741 23.4872 46.535 23.4953 44.966 22.7405 C 43.2381 21.9087 42.2297 19.7912 41.7874 17.9388 C 41.5162 16.7364 42.5645 15.5853 43.0386 14.4897 C 43.4667 13.5003 43.4998 11.516 44.5264 11.6154 C 46.2253 11.7865 48.4902 15.0307 48.4902 15.0307 " stroke-width="0.6763005869891714"/>
      <path id="Pupil" d="M 48.1514 19.754 C 48.1514 20.4844 47.609 21.0768 46.9341 21.0768 C 46.2625 21.0768 45.714 20.4837 45.714 19.754 C 45.714 19.0236 46.2625 18.4298 46.9341 18.4298 C 47.609 18.4298 48.1514 19.0236 48.1514 19.754 " stroke-width="0.6763005869891714" fill="undefined"/>
    </g>
    <path id="Nose" fill="#5E4A42" stroke="#000000" d="M 40.493 23.4087 C 41.7468 23.4087 43.5742 23.2167 43.6689 23.7935 C 43.7669 24.3718 42.5131 26.636 41.6488 26.7321 C 40.7817 26.8281 37.5064 25.1407 37.4598 24.0817 C 37.4097 23.0226 39.3358 23.4087 40.493 23.4087 " stroke-width="0.6763005869891714"/>
    <path id="ID0.18181932624429464" fill="none" stroke="#000000" stroke-width="0.792687177658081" stroke-linecap="round" d="M 15.6638 19.7272 L 14.8711 21.1144 L 14.0784 23.4925 L 13.9793 25.276 L 14.0784 27.4559 L 15.3665 28.7441 L 16.7537 29.4377 L 18.24 29.2395 L 19.6272 21.808 L 18.24 21.808 L 16.8528 21.1144 L 15.6638 19.7272 Z "/>
    <path id="ID0.14710577484220266" fill="none" stroke="#000000" d="M 18.4061 22.3436 C 18.5302 22.3436 18.6426 22.394 18.7241 22.4755 C 18.8056 22.557 18.856 22.6694 18.856 22.7935 C 18.856 22.9177 18.8056 23.0301 18.7241 23.1116 C 18.6426 23.1931 18.5302 23.2434 18.4061 23.2434 C 18.2819 23.2434 18.1695 23.1931 18.088 23.1116 C 18.0066 23.0301 17.9562 22.9177 17.9562 22.7935 C 17.9562 22.6694 18.0066 22.557 18.088 22.4755 C 18.1695 22.394 18.2819 22.3436 18.4061 22.3436 Z " stroke-width="0.2570877218017955"/>
    <path id="ID0.09315776498988271" fill="none" stroke="#000000" stroke-linecap="round" d="M 18.4061 22.3565 L 18.4061 23.1792 Z " stroke-width="0.2570877218017955"/>
    <path id="ID0.14710577484220266" fill="none" stroke="#000000" d="M 17.6648 28.0116 C 17.7507 28.1012 17.7921 28.2172 17.7896 28.3324 C 17.7872 28.4477 17.7409 28.5618 17.6513 28.6477 C 17.5616 28.7336 17.4456 28.775 17.3304 28.7725 C 17.2152 28.7701 17.1011 28.7238 17.0151 28.6342 C 16.9292 28.5445 16.8879 28.4285 16.8903 28.3133 C 16.8928 28.1981 16.939 28.084 17.0287 27.9981 C 17.1183 27.9121 17.2343 27.8708 17.3495 27.8732 C 17.4648 27.8757 17.5789 27.9219 17.6648 28.0116 Z " stroke-width="0.2570877183093715"/>
    <path id="ID0.09315776498988271" fill="none" stroke="#000000" stroke-linecap="round" d="M 17.6555 28.0205 L 17.0615 28.5897 Z " stroke-width="0.2570877183093715"/>
    <path id="ID0.9625102812424302" fill="none" stroke="#000000" stroke-width="0.792687177658081" stroke-linecap="round" d="M 44.1015 11.8202 L 41.7234 17.2501 "/>
    <g id="ID0.8435089820995927">
      <path id="ID0.8404736882075667" fill="#FFFFFF" stroke="#000000" stroke-width="0.4623162528076125" d="M 40.3384 30.4886 C 43.2297 30.1607 45.3792 29.9486 47.8324 30.4057 C 48.658 30.5594 49.4398 31.3939 49.52 32.2158 C 49.6174 32.9596 48.9541 33.7779 48.2467 34.0591 C 45.9278 34.9812 43.8158 35.3286 40.9245 35.6565 C 38.0332 35.9844 35.8985 36.1094 33.4306 35.7393 C 32.6929 35.6289 31.8824 34.9976 31.8164 34.2699 C 31.7063 33.444 32.2414 32.4271 33.0163 32.0859 C 35.3 31.0797 37.4472 30.8164 40.3384 30.4886 Z "/>
      <path id="ID0.6830179141834378" fill="none" stroke="#000000" stroke-width="0.4623162528076125" stroke-linecap="round" d="M 31.8303 34.1869 L 49.5252 32.2617 "/>
      <path id="ID0.720943711232394" fill="none" stroke="#000000" stroke-width="0.4623162528076125" stroke-linecap="round" d="M 34.0136 31.6943 L 34.4504 35.7509 "/>
      <path id="ID0.14236313942819834" fill="none" stroke="#000000" stroke-width="0.4623162528076125" stroke-linecap="round" d="M 36.7971 31.0065 L 37.367 35.8273 "/>
      <path id="ID0.3628630032762885" fill="none" stroke="#000000" stroke-width="0.4623162528076125" stroke-linecap="round" d="M 39.8913 30.5974 L 40.5103 35.6453 "/>
      <path id="ID0.07688325829803944" fill="none" stroke="#000000" stroke-width="0.4623162528076125" stroke-linecap="round" d="M 42.1921 30.3714 L 42.7612 35.39 "/>
      <path id="ID0.43129883660003543" fill="none" stroke="#000000" stroke-width="0.4623162528076125" stroke-linecap="round" d="M 44.7507 30.1627 L 45.3077 34.8686 "/>
      <path id="ID0.2841416848823428" fill="none" stroke="#000000" stroke-width="0.4623162528076125" stroke-linecap="round" d="M 47.7683 34.2057 L 47.3129 30.3956 "/>
    </g>
    <path id="ID0.43284247629344463" fill="none" stroke="#000000" stroke-width="0.3963435888290405" stroke-linecap="round" d="M 17.7446 55.2991 L 19.0922 57.5384 L 14.2964 59.5201 L 13.1074 56.9835 "/>
    <path id="ID0.9875291283242404" fill="none" stroke="#000000" stroke-width="0.3963435888290405" stroke-linecap="round" d="M 33.7172 55.6954 L 31.2203 58.7671 L 35.8575 62.6909 L 38.3148 59.9957 "/>
    <path id="ID0.09315776498988271" fill="none" stroke="#000000" stroke-linecap="round" d="M 34.2196 56.8299 L 33.492 57.2138 Z " stroke-width="0.25708772048503636"/>
    <path id="ID0.14710577484220266" fill="none" stroke="#000000" d="M 34.231 56.8239 C 34.2889 56.9337 34.2968 57.0566 34.2627 57.1667 C 34.2287 57.2768 34.1528 57.3738 34.043 57.4317 C 33.9332 57.4897 33.8103 57.4975 33.7002 57.4635 C 33.5901 57.4294 33.4931 57.3536 33.4351 57.2438 C 33.3772 57.1339 33.3693 57.0111 33.4034 56.901 C 33.4374 56.7908 33.5133 56.6939 33.6231 56.6359 C 33.7329 56.578 33.8558 56.5701 33.9659 56.6042 C 34.076 56.6382 34.173 56.7141 34.231 56.8239 Z " stroke-width="0.25708772048503636"/>
    <path id="ID0.09315776498988271" fill="none" stroke="#000000" stroke-linecap="round" d="M 37.272 59.4741 L 37.272 60.2967 Z " stroke-width="0.2570877218017955"/>
    <path id="ID0.14710577484220266" fill="none" stroke="#000000" d="M 37.272 59.4612 C 37.3962 59.4612 37.5085 59.5116 37.59 59.5931 C 37.6715 59.6746 37.7219 59.7869 37.7219 59.9111 C 37.7219 60.0353 37.6715 60.1476 37.59 60.2291 C 37.5085 60.3106 37.3962 60.361 37.272 60.361 C 37.1478 60.361 37.0355 60.3106 36.954 60.2291 C 36.8725 60.1476 36.8221 60.0353 36.8221 59.9111 C 36.8221 59.7869 36.8725 59.6746 36.954 59.5931 C 37.0355 59.5116 37.1478 59.4612 37.272 59.4612 Z " stroke-width="0.2570877218017955"/>
    <g id="ID0.28120887838304043">
      <path id="ID0.14710577484220266" fill="none" stroke="#000000" d="M 14.6409 58.2462 C 14.7335 58.2462 14.8173 58.2838 14.8781 58.3445 C 14.9389 58.4053 14.9764 58.4891 14.9764 58.5817 C 14.9764 58.6743 14.9389 58.7581 14.8781 58.8189 C 14.8173 58.8796 14.7335 58.9172 14.6409 58.9172 C 14.5483 58.9172 14.4645 58.8796 14.4037 58.8189 C 14.343 58.7581 14.3054 58.6743 14.3054 58.5817 C 14.3054 58.4891 14.343 58.4053 14.4037 58.3445 C 14.4645 58.2838 14.5483 58.2462 14.6409 58.2462 Z " stroke-width="0.19172643339470596"/>
      <path id="ID0.09315776498988271" fill="none" stroke="#000000" stroke-linecap="round" d="M 14.9142 58.3868 L 14.3716 58.6731 Z " stroke-width="0.19172643334882858"/>
    </g>
    <g id="ID0.28120887838304043">
      <path id="ID0.14710577484220266" fill="none" stroke="#000000" d="M 18.4657 57.187 C 18.4868 57.2771 18.4692 57.3673 18.4239 57.4403 C 18.3785 57.5133 18.3054 57.5689 18.2152 57.5899 C 18.1251 57.611 18.0349 57.5934 17.9619 57.5481 C 17.8889 57.5027 17.8333 57.4296 17.8123 57.3394 C 17.7912 57.2493 17.8088 57.1591 17.8541 57.0861 C 17.8995 57.0131 17.9726 56.9575 18.0628 56.9365 C 18.1529 56.9154 18.2431 56.933 18.3161 56.9784 C 18.3891 57.0237 18.4447 57.0968 18.4657 57.187 Z " stroke-width="0.19172644199448421"/>
      <path id="ID0.09315776498988271" fill="none" stroke="#000000" stroke-linecap="round" d="M 18.379 57.5098 L 17.9769 57.0464 Z " stroke-width="0.19172643703392975"/>
    </g>
  </g>
</svg>