<svg version="1.1" xmlns="http://www.w3.org/2000/svg" xmlns:xlink="http://www.w3.org/1999/xlink" width="462.57518" height="217.34595" viewBox="0,0,462.57518,217.34595"><g transform="translate(-13.34899,-124.31373)"><g data-paper-data="{&quot;isPaintingLayer&quot;:true}" fill="none" fill-rule="nonzero" stroke="none" stroke-width="none" stroke-linecap="none" stroke-linejoin="miter" stroke-miterlimit="10" stroke-dasharray="" stroke-dashoffset="0" font-family="none" font-weight="none" font-size="none" text-anchor="none" style="mix-blend-mode: normal"><g id="ID0.36224168399348855" stroke-linecap="butt"><path d="M231.988,210.967c0,0 -8.832,6.201 -17.07,8.412l0.086,0.215c1.247,1.824 5.869,7.498 -0.334,9.496c-5.333,1.718 -15.12,-13.104 -10.821,-15.901c2.626,-1.713 4.892,-0.252 4.892,-0.252c0,0 3.475,-1.069 6.001,-2.345c4.304,-2.162 5.784,-3.453 5.784,-3.453c0,0 4.185,-4.307 6.856,-4.137c2.669,0.17 8.058,4.713 4.606,7.965zM212.646,220.09l2.271,-0.711" id="Back_Leg" fill="#faa51d" stroke="#000000" stroke-width="1"/><g id="Tail" stroke-width="1"><path d="M226.938,200.487c0.809,0.473 2.451,1.325 0.09,4.744c-2.361,3.42 -9.267,4.049 -10.079,4.075c-3.093,0.083 -6.909,0.079 -11.091,-1.312c-12.135,-4.029 -12.209,-17.107 -8.353,-19.195c3.854,-2.086 5.597,6.008 11.048,10.914c2.437,2.193 5.327,3.053 7.742,3.504c3.416,0.638 9.833,-3.201 10.643,-2.73z" id="Tail_1_" fill="#faa51d" stroke="#000000"/><path d="M203.034,193.473c1.172,1.828 2.513,3.828 4.176,5.64c-0.993,-0.164 -4.016,-0.482 -5.853,1.061c-1.717,1.443 -0.467,3.834 -0.742,4.379c-3.864,-3.42 -4.827,-7.478 -4.968,-9.072c-0.262,-2.977 0.557,-5.596 1.994,-6.374c1.834,-0.991 3.11,0.815 5.393,4.366z" id="Tail_Tip" fill="#ffffff" stroke="none"/></g><path d="M245.878,193.083c0.933,-3.549 1.905,-2.791 1.905,-2.791c0.541,0.408 1.139,0.912 1.729,1.506c1.796,1.8 3.345,5.547 6.856,4.287c3.509,-1.259 5.666,-6.093 9.716,-2.405c4.047,3.69 -3.612,8.375 -6.489,9.817c-2.886,1.436 -5.402,2.785 -8.911,-0.724c-3.51,-3.511 -4.744,-3.677 -4.744,-3.677c-2.007,-1.469 -0.997,-2.472 -0.062,-6.013z" id="R_Arm" fill="#faa51d" stroke="#000000" stroke-width="1"/><g id="Front_Leg_x2F_Body_1_" stroke-width="1"><path d="M236.745,202.728c0,0 7.648,7.713 11.125,10.771c2.123,1.862 6.727,5.795 6.727,5.795c0,0 16.698,-2.879 14.775,6.91c-0.561,2.882 -19.534,0.694 -19.534,0.694c0,0 -7.212,-5.829 -12.044,-10.603c-5.864,-5.797 -10.765,-9.639 -10.765,-9.639c-8.534,-8.291 -1.662,-11.805 1.057,-16.562c2.719,-4.755 5.924,-2.914 9.517,-2.233c3.591,0.678 6.117,0.485 7.67,0.776c3.836,0.72 2.776,4.775 1.901,7.296c0,0 -1.403,3.651 -2.699,5.577c-1.555,2.313 -2.763,3.802 -3.951,4.714" id="Front_Leg_x2F_Body" fill="#faa51d" stroke="#000000"/><path d="M245.796,197.838c-0.713,2.06 -2.293,4.438 -5.292,7.934l-3.062,-3.089c0,0 -6.087,-3.956 -3.442,-6.61c1.526,-1.537 3.8,-4.178 8.74,-1.522c2.178,1.174 2.914,2.346 3.056,3.287z" id="Belly" fill="#ffffff" stroke="none"/></g><path d="M222.518,196.295c1.261,1.975 9.99,7.918 3.06,11.156c-6.927,3.237 -10.796,-6.658 -11.789,-10.17c-0.989,-3.511 2.16,-4.408 4.319,-6.209c4.012,-3.341 6.48,-6.746 11.52,-4.945c5.04,1.797 1.351,5.847 -1.077,7.646c-1.964,1.455 -4.105,3.086 -4.854,3.657" id="L_Arm" fill="#faa51d" stroke="#000000" stroke-width="1"/><g id="Head"><g id="Head_1_" stroke-width="1"><path d="M266.584,184.376c-3.576,1.479 -7.034,2.589 -10.055,3.108c-2.552,0.438 -7.674,0.979 -10.32,0.979c-3.167,0 -9.938,-0.377 -14,-1.737c-5.44,-1.823 -12.28,-6.587 -15.599,-11.947c-7.076,-11.418 4.123,-25.006 3.477,-24.22l-2.233,-18.91l12.878,8.524c0,0 4.498,-1.811 9.227,-2.036c1.767,-0.085 4.946,0.084 6.485,0.227l2.854,-1.105l7.43,-7.32l2.854,11.55c0,0 6.495,4.735 8.351,8.042c2.804,4.996 2.628,10.347 2.628,10.347c0,0 7.419,1.132 8.891,7.579c1.47,6.447 -3.371,12.985 -12.868,16.919zM230.736,140.173l2.035,2.039M251.021,139.578c0,0 -2.333,-1.033 -4.333,-1.366" id="Head_Fill" fill="#faa51d" stroke="#000000"/><path d="M279.071,167.716c1.472,6.447 -3.631,12.538 -13.129,16.471c-3.576,1.478 -8.122,2.804 -11.154,3.236c-2.757,0.393 -10.181,0.588 -10.181,0.588c-1.084,-0.288 -1.694,-0.487 -3.472,-1.139c-6.403,-2.35 -15.576,-7.204 -15.083,-15.602c0.075,-1.288 0.659,-2.311 1.492,-3.123c2.5,-2.434 7.244,-2.956 7.244,-2.956l7.784,-3.417c0,0 6.841,3.228 11.212,2.277c1.365,-0.297 2.302,-0.835 2.948,-1.435c1.415,-1.314 1.42,-2.923 1.42,-2.933l9.113,-2.661l2.881,3.107c0,0 7.451,1.136 8.925,7.587z" id="Muzzle" fill="#ffffff" stroke="none"/></g><g id="L_Eye" stroke-width="1"><path d="M241.638,152.831c2.926,4.48 2.618,9.862 -0.682,12.015c-3.303,2.159 -8.352,0.272 -11.275,-4.208c-2.928,-4.48 -2.624,-9.86 0.678,-12.017c3.302,-2.156 8.35,-0.272 11.279,4.21" id="Eyeball_1_" fill="#ffffff" stroke="#000000"/><path d="M239.85,158.719c0,1.081 -0.803,1.957 -1.801,1.957c-0.992,0 -1.804,-0.878 -1.804,-1.957c0,-1.08 0.812,-1.957 1.804,-1.957c0.996,0 1.801,0.877 1.801,1.957" id="Pupil_1_" fill="#000000" stroke="none"/></g><g id="R_Eye" stroke-width="1"><path d="M265.361,149.75c2.925,4.479 3.283,9.419 0.492,11.243c-2.793,1.825 -7.181,-0.552 -10.104,-5.034c-2.933,-4.48 -3.079,-9.134 -0.286,-10.959c2.787,-1.823 6.971,0.268 9.898,4.75" id="Eyeball" fill="#ffffff" stroke="#000000"/><path d="M264.86,156.734c0,1.08 -0.802,1.956 -1.8,1.956c-0.993,0 -1.804,-0.877 -1.804,-1.956c0,-1.08 0.811,-1.958 1.804,-1.958c0.998,0 1.8,0.878 1.8,1.958" id="Pupil" fill="#000000" stroke="none"/></g><path d="M253.536,162.138c1.854,0 4.556,-0.284 4.696,0.569c0.145,0.855 -1.709,4.203 -2.987,4.345c-1.282,0.142 -6.125,-2.353 -6.194,-3.919c-0.074,-1.566 2.774,-0.995 4.485,-0.995" id="Nose" fill="#5e4a42" stroke="#000000" stroke-width="1"/><path d="M215.75,166.602c-0.023,-0.017 -2.382,-1.76 -6.002,-3.362c-4.012,-1.777 -6.263,-2.26 -6.284,-2.265l0.245,-1.175c0.095,0.02 2.381,0.506 6.525,2.342c3.751,1.661 6.133,3.424 6.232,3.498l-0.716,0.962z" id="Whisker_3_" fill="#000000" stroke="none" stroke-width="1"/><path d="M209.628,171.254c-2.035,0 -5.092,-0.276 -5.238,-0.289l0.107,-1.195c0.041,0.004 4.088,0.367 5.887,0.266c1.82,-0.104 5.412,-0.578 5.447,-0.583l0.157,1.189c-0.148,0.02 -3.67,0.484 -5.537,0.591c-0.242,0.015 -0.522,0.021 -0.823,0.021z" id="Whisker_2_" fill="#000000" stroke="none" stroke-width="1"/><path d="M275.524,165.475l-0.194,-1.185c0.046,-0.007 4.524,-0.744 6.761,-1.523c2.573,-0.894 4.326,-2.415 4.345,-2.43l0.791,0.902c-0.078,0.068 -1.948,1.691 -4.742,2.661c-2.334,0.814 -6.774,1.544 -6.961,1.575z" id="Whisker_1_" fill="#000000" stroke="none" stroke-width="1"/><path d="M284.551,172.979c-0.812,0 -1.905,-0.035 -3.189,-0.163c-2.858,-0.286 -5.584,-1.379 -5.699,-1.426l0.45,-1.112c0.027,0.011 2.686,1.075 5.368,1.344c2.672,0.267 4.518,0.111 4.535,0.11l0.104,1.195c-0.043,0.004 -0.612,0.052 -1.569,0.052z" id="Whisker" fill="#000000" stroke="none" stroke-width="1"/><path d="M240.545,169.447c0,0 10.347,3.054 14.217,3.896c3.867,0.842 10.851,1.684 10.851,1.684c0,0 -7.989,10.245 -17.327,7.645c-9.339,-2.597 -9.171,-8.485 -7.741,-13.225z" id="Mouth" fill="none" stroke="#231f20" stroke-width="1.2"/></g></g><text transform="translate(14.86129,242.44398) scale(0.93065,0.93065)" font-size="22" xml:space="preserve" data-paper-data="{&quot;origPos&quot;:null}" id="ID0.48503392143175006" fill="#ffffff" fill-rule="nonzero" stroke="none" stroke-width="1" stroke-linecap="butt" stroke-linejoin="miter" stroke-miterlimit="10" stroke-dasharray="" stroke-dashoffset="0" font-family="Sans Serif" font-weight="400" text-anchor="start" style="mix-blend-mode: normal"><tspan x="0" dy="0">What you have to do is to turn off the cameras.</tspan><tspan x="0" dy="24.86px">Don't ask me why, I didn't program this thing.</tspan><tspan x="0" dy="24.86px">When you don't hear the robot noises, means</tspan><tspan x="0" dy="24.86px">that it is gone. Then you can turn on the </tspan><tspan x="0" dy="24.86px">cameras.</tspan></text><g id="ID0.6178100248798728"><path d="M402.139,206.5268c0,0 -8.8549,6.217 -17.1142,8.4338l0.0862,0.2155c1.2502,1.8287 5.8842,7.5174 -0.3349,9.5206c-5.3468,1.7225 -15.1591,-13.1379 -10.849,-15.9422c2.6328,-1.7174 4.9047,-0.2526 4.9047,-0.2526c0,0 3.484,-1.0718 6.0165,-2.3511c4.3152,-2.1676 5.799,-3.462 5.799,-3.462c0,0 4.1959,-4.3181 6.8738,-4.1477c2.6759,0.1705 8.0789,4.7252 4.6179,7.9857zM382.7469,215.6734l2.2769,-0.7128" id="Back_Leg" fill="#b2b2b2" stroke="#000000" stroke-width="1.00259" stroke-linecap="butt"/><g id="Tail" stroke-width="1.00259" stroke-linecap="butt"><path d="M397.0759,196.0196c0.8111,0.4742 2.4574,1.3284 0.0903,4.7563c-2.3672,3.4289 -9.291,4.0595 -10.1052,4.0856c-3.101,0.0832 -6.9269,0.0792 -11.1197,-1.3154c-12.1664,-4.0395 -12.2406,-17.1514 -8.3746,-19.2448c3.864,-2.0914 5.6115,6.0236 11.0766,10.9423c2.4433,2.1987 5.3408,3.0609 7.7621,3.5131c3.4248,0.6396 9.8584,-3.2093 10.6705,-2.7371z" id="Tail_1_" fill="#b2b2b2" stroke="#000000"/><path d="M373.11,188.9874c1.175,1.8328 2.5195,3.838 4.1868,5.6547c-0.9956,-0.1645 -4.0264,-0.4833 -5.8681,1.0637c-1.7215,1.4467 -0.4683,3.8439 -0.744,4.3904c-3.874,-3.4289 -4.8395,-7.4974 -4.9808,-9.0956c-0.2627,-2.9847 0.5584,-5.6105 1.9991,-6.3905c1.8388,-0.9935 3.1181,0.8171 5.407,4.3773z" id="Tail_Tip" fill="#ffffff" stroke="none"/></g><path d="M416.065,188.5964c0.9354,-3.5582 1.9099,-2.7982 1.9099,-2.7982c0.5424,0.4091 1.142,0.9144 1.7335,1.5099c1.8007,1.8047 3.3537,5.5614 6.8738,4.2981c3.5181,-1.2623 5.6807,-6.1088 9.7411,-2.4112c4.0575,3.6995 -3.6213,8.3967 -6.5058,9.8424c-2.8934,1.4397 -5.416,2.7922 -8.9341,-0.7259c-3.519,-3.5201 -4.7562,-3.6865 -4.7562,-3.6865c-2.0122,-1.4728 -0.9996,-2.4784 -0.0622,-6.0286z" id="R_Arm" fill="#b2b2b2" stroke="#000000" stroke-width="1.00259" stroke-linecap="butt"/><g id="Front_Leg_x2F_Body_1_" stroke-width="1.00259" stroke-linecap="butt"><path d="M406.9083,198.2664c0,0 7.6678,7.733 11.1539,10.7989c2.1285,1.8669 6.7444,5.81 6.7444,5.81c0,0 16.7412,-2.8864 14.8133,6.9279c-0.5625,2.8895 -19.5846,0.6958 -19.5846,0.6958c0,0 -7.2307,-5.8441 -12.0752,-10.6304c-5.8792,-5.812 -10.7929,-9.664 -10.7929,-9.664c-8.5561,-8.3125 -1.6663,-11.8356 1.0597,-16.6049c2.726,-4.7673 5.9393,-2.9216 9.5417,-2.2388c3.6003,0.6798 6.1328,0.4863 7.6898,0.778c3.846,0.7219 2.7832,4.7874 1.906,7.3149c0,0 -1.4067,3.6605 -2.706,5.5915c-1.5591,2.319 -2.7702,3.8118 -3.9613,4.7262" id="Front_Leg_x2F_Body" fill="#b2b2b2" stroke="#000000"/><path d="M415.9828,193.3638c-0.7149,2.0653 -2.299,4.4495 -5.3057,7.9545l-3.07,-3.097c0,0 -6.1027,-3.9662 -3.4509,-6.6271c1.53,-1.541 3.8099,-4.1888 8.7627,-1.526c2.1836,1.1771 2.9215,2.3521 3.0639,3.2956z" id="Belly" fill="#ffffff" stroke="none"/></g><path d="M392.6445,191.8168c1.2642,1.9801 10.0159,7.9385 3.0679,11.1849c-6.9449,3.2453 -10.824,-6.6753 -11.8195,-10.1964c-0.9916,-3.5201 2.1656,-4.4194 4.3301,-6.2251c4.0224,-3.3496 6.4968,-6.7635 11.5499,-4.9578c5.0531,1.8017 1.3545,5.8622 -1.0798,7.6658c-1.9691,1.4588 -4.1156,3.094 -4.8666,3.6665" id="L_Arm" fill="#b2b2b2" stroke="#000000" stroke-width="1.00259" stroke-linecap="butt"/><g id="Head_1_" stroke-width="1.00259" stroke-linecap="butt"><path d="M436.8246,179.8669c-3.5852,1.4828 -7.0522,2.5957 -10.081,3.116c-2.5586,0.4392 -7.6939,0.9816 -10.3467,0.9816c-3.1753,0 -9.9638,-0.378 -14.0363,-1.7415c-5.4541,-1.8278 -12.3118,-6.6041 -15.6394,-11.978c-7.0944,-11.4476 4.1336,-25.0708 3.486,-24.2827l-2.2388,-18.959l12.9114,8.5461c0,0 4.5096,-1.8157 9.2509,-2.0413c1.7715,-0.0852 4.9588,0.0842 6.5018,0.2276l2.8614,-1.1079l7.4492,-7.339l2.8614,11.58c0,0 6.5118,4.7472 8.3726,8.0628c2.8113,5.0089 2.6348,10.3738 2.6348,10.3738c0,0 7.4383,1.1349 8.9141,7.5986c1.4738,6.4637 -3.3798,13.0187 -12.9014,16.9629zM400.8838,135.5494l2.0402,2.0442M421.2213,134.9528c0,0 -2.339,-1.0357 -4.3442,-1.3695" id="Head_Fill" fill="#b2b2b2" stroke="#000000"/><path d="M449.344,163.1637c1.4758,6.4637 -3.6404,12.5705 -13.163,16.5137c-3.5853,1.4818 -8.1431,2.8113 -11.1829,3.2444c-2.7642,0.394 -10.2074,0.5895 -10.2074,0.5895c-1.0868,-0.2888 -1.6984,-0.4883 -3.481,-1.142c-6.4196,-2.356 -15.6163,-7.2226 -15.1221,-15.6424c0.0752,-1.2913 0.6607,-2.317 1.4959,-3.1311c2.5065,-2.4403 7.2628,-2.9636 7.2628,-2.9636l7.8041,-3.4259c0,0 6.8588,3.2364 11.2411,2.2829c1.3685,-0.2978 2.3079,-0.8371 2.9556,-1.4387c1.4187,-1.3174 1.4237,-2.9306 1.4237,-2.9406l9.1366,-2.6679l2.8885,3.1151c0,0 7.4703,1.1389 8.9481,7.6066z" id="Muzzle" fill="#ffffff" stroke="none"/></g><g id="L_Eye" stroke-width="1.00259" stroke-linecap="butt"><path d="M411.814,148.2401c2.9336,4.4917 2.6248,9.8876 -0.6838,12.0462c-3.3115,2.1646 -9.0283,-0.9084 -11.3042,-4.2189c-2.2177,-3.2264 -2.6939,-9.9989 0.2196,-11.969c3.081,-1.944 11.7684,4.1417 11.7684,4.1417" id="Eyeball_1_" fill="#ffffff" stroke="#000000"/><path d="M410.0214,154.1434c0,1.0838 -0.8051,1.9621 -1.8057,1.9621c-0.9946,0 -1.8087,-0.8803 -1.8087,-1.9621c0,-1.0828 0.8141,-1.9621 1.8087,-1.9621c0.9986,0 1.8057,0.8793 1.8057,1.9621" id="Pupil_1_" fill="#000000" stroke="none"/></g><g id="R_Eye" stroke-width="1.00259" stroke-linecap="butt"><path d="M435.5985,145.1512c0,0 3.8269,7.0311 2.345,10.1763c-1.0346,2.3601 -5.2435,2.3721 -7.5695,1.2532c-2.5616,-1.2332 -4.0565,-4.3723 -4.7122,-7.1184c-0.402,-1.7826 1.152,-3.489 1.8548,-5.1132c0.6346,-1.4668 0.6838,-4.4084 2.2057,-4.261c2.5185,0.2536 5.8762,5.0631 5.8762,5.0631" id="Eyeball" fill="#ffffff" stroke="#000000"/><path d="M435.0962,152.1533c0,1.0828 -0.8041,1.961 -1.8047,1.961c-0.9956,0 -1.8087,-0.8792 -1.8087,-1.961c0,-1.0828 0.8131,-1.9631 1.8087,-1.9631c1.0006,0 1.8047,0.8803 1.8047,1.9631" id="Pupil" fill="#000000" stroke="none"/></g><path d="M423.7428,157.5713c1.8588,0 4.5678,-0.2848 4.7082,0.5704c0.1454,0.8573 -1.7134,4.2139 -2.9947,4.3563c-1.2854,0.1424 -6.1409,-2.3591 -6.2101,-3.9292c-0.0742,-1.57 2.7812,-0.9975 4.4966,-0.9975" id="Nose" fill="#5e4a42" stroke="#000000" stroke-width="1.00259" stroke-linecap="butt"/><path d="M388.7228,154.2624l2.0565,1.0283h2.0565l-2.0565,11.0168l-2.2034,0.2938l-2.0565,-1.0282l-1.9096,-1.9096l-0.1468,-3.2316l0.1468,-2.6441l1.1752,-3.5254l1.1751,-2.0564z" id="ID0.18181932624429464" fill="none" stroke="#000000" stroke-width="1.17513" stroke-linecap="round"/><path d="M391.022,156.0989c0.1841,0 0.3507,0.0747 0.4715,0.1955c0.1208,0.1209 0.1955,0.2874 0.1955,0.4715c0,0.1841 -0.0747,0.3506 -0.1955,0.4714c-0.1208,0.1209 -0.2874,0.1956 -0.4715,0.1956c-0.184,0 -0.3506,-0.0747 -0.4714,-0.1956c-0.1208,-0.1208 -0.1955,-0.2873 -0.1955,-0.4714c0,-0.1841 0.0747,-0.3506 0.1955,-0.4715c0.1208,-0.1208 0.2874,-0.1955 0.4714,-0.1955z" id="ID0.14710577484220266" fill="none" stroke="#000000" stroke-width="0.38112" stroke-linecap="butt"/><path d="M391.022,156.118v1.2196z" id="ID0.09315776498988271" fill="none" stroke="#000000" stroke-width="0.38112" stroke-linecap="round"/><path d="M389.8793,164.4498c0.1274,0.1329 0.1887,0.3048 0.185,0.4757c-0.0036,0.1708 -0.0722,0.34 -0.2051,0.4673c-0.1329,0.1274 -0.3048,0.1887 -0.4756,0.1851c-0.1708,-0.0037 -0.34,-0.0722 -0.4674,-0.2051c-0.1273,-0.1329 -0.1887,-0.3049 -0.185,-0.4757c0.0036,-0.1708 0.0722,-0.34 0.2051,-0.4674c0.1329,-0.1273 0.3048,-0.1886 0.4756,-0.185c0.1709,0.0036 0.34,0.0722 0.4674,0.2051z" id="ID0.14710577484220266" fill="none" stroke="#000000" stroke-width="0.38112" stroke-linecap="butt"/><path d="M389.8655,164.463l-0.8805,0.8438z" id="ID0.09315776498988271" fill="none" stroke="#000000" stroke-width="0.38112" stroke-linecap="round"/><path d="M429.1179,140.484l-3.5254,8.0497" id="ID0.9625102812424302" fill="none" stroke="#000000" stroke-width="1.17513" stroke-linecap="round"/><g id="ID0.8435089820995927" stroke="#000000" stroke-width="0.68537"><path d="M423.5401,168.0491c4.2862,-0.4861 7.4728,-0.8006 11.1095,-0.1228c1.2239,0.2278 2.383,1.4648 2.5018,2.6833c0.1444,1.1027 -0.8389,2.3158 -1.8876,2.7327c-3.4376,1.3669 -6.5687,1.882 -10.8549,2.368c-4.2862,0.4861 -7.4509,0.6715 -11.1095,0.1228c-1.0935,-0.1636 -2.295,-1.0996 -2.3929,-2.1783c-0.1633,-1.2244 0.63,-2.7319 1.7787,-3.2377c3.3855,-1.4917 6.5687,-1.882 10.8549,-2.368z" id="ID0.8404736882075667" fill="#ffffff" stroke-linecap="butt"/><path d="M410.9271,173.5317l26.2321,-2.854" id="ID0.6830179141834378" fill="none" stroke-linecap="round"/><path d="M414.1638,169.8366l0.6474,6.0137" id="ID0.720943711232394" fill="none" stroke-linecap="round"/><path d="M418.2901,168.8169l0.845,7.1466" id="ID0.14236313942819834" fill="none" stroke-linecap="round"/><path d="M423.7949,175.6937l-0.9176,-7.4833" id="ID0.3628630032762885" fill="none" stroke-linecap="round"/><path d="M426.2881,167.8754l0.8437,7.4399" id="ID0.07688325829803944" fill="none" stroke-linecap="round"/><path d="M430.0811,167.566l0.8257,6.9764" id="ID0.43129883660003543" fill="none" stroke-linecap="round"/><path d="M433.8795,167.9112l0.675,5.6484" id="ID0.2841416848823428" fill="none" stroke-linecap="round"/></g><path d="M390.0448,204.9399l1.9977,3.3197l-7.1095,2.9379l-1.7627,-3.7605" id="ID0.43284247629344463" fill="none" stroke="#000000" stroke-width="0.58756" stroke-linecap="round"/><path d="M420.5394,211.9025l-3.6429,3.9955l-6.8745,-5.8169l3.7017,-4.5536" id="ID0.9875291283242404" fill="none" stroke="#000000" stroke-width="0.58756" stroke-linecap="round"/><path d="M413.3692,207.6775l1.0787,-0.5691z" id="ID0.09315776498988271" fill="none" stroke="#000000" stroke-width="0.38112" stroke-linecap="round"/><path d="M414.4648,207.0995c0.0859,0.1629 0.0975,0.345 0.047,0.5082c-0.0504,0.1633 -0.1629,0.3071 -0.3257,0.393c-0.1628,0.0859 -0.345,0.0975 -0.5082,0.047c-0.1632,-0.0504 -0.307,-0.1629 -0.3929,-0.3257c-0.0859,-0.1628 -0.0976,-0.345 -0.0471,-0.5082c0.0505,-0.1632 0.1629,-0.307 0.3257,-0.3929c0.1628,-0.0859 0.345,-0.0976 0.5082,-0.0471c0.1633,0.0505 0.3071,0.1629 0.393,0.3257z" id="ID0.14710577484220266" fill="none" stroke="#000000" stroke-width="0.38112" stroke-linecap="butt"/><path d="M418.972,211.018v1.2196z" id="ID0.09315776498988271" fill="none" stroke="#000000" stroke-width="0.38112" stroke-linecap="round"/><path d="M418.972,210.9989c0.1841,0 0.3507,0.0747 0.4715,0.1955c0.1208,0.1209 0.1955,0.2874 0.1955,0.4715c0,0.1841 -0.0747,0.3506 -0.1955,0.4714c-0.1208,0.1209 -0.2874,0.1956 -0.4715,0.1956c-0.184,0 -0.3506,-0.0747 -0.4714,-0.1956c-0.1208,-0.1208 -0.1955,-0.2873 -0.1955,-0.4714c0,-0.1841 0.0747,-0.3506 0.1955,-0.4715c0.1208,-0.1208 0.2874,-0.1955 0.4714,-0.1955z" id="ID0.14710577484220266" fill="none" stroke="#000000" stroke-width="0.38112" stroke-linecap="butt"/><g id="ID0.28120887838304043" fill="none" stroke="#000000"><path d="M385.4029,209.1941c0.1373,0 0.2615,0.0557 0.3516,0.1458c0.0901,0.0901 0.1458,0.2143 0.1458,0.3516c0,0.1373 -0.0557,0.2615 -0.1458,0.3516c-0.0901,0.0901 -0.2143,0.1458 -0.3516,0.1458c-0.1373,0 -0.2615,-0.0557 -0.3516,-0.1458c-0.0901,-0.0901 -0.1458,-0.2143 -0.1458,-0.3516c0,-0.1373 0.0557,-0.2615 0.1458,-0.3516c0.0901,-0.0901 0.2143,-0.1458 0.3516,-0.1458z" id="ID0.14710577484220266" stroke-width="0.28423" stroke-linecap="butt"/><path d="M385.79,209.4097l-0.8045,0.4244z" id="ID0.09315776498988271" stroke-width="0.28423" stroke-linecap="round"/></g><g id="ID0.28120887838304043" fill="none" stroke="#000000"><path d="M391.0365,207.6832c0.0312,0.1337 0.0052,0.2673 -0.0621,0.3756c-0.0672,0.1082 -0.1755,0.1907 -0.3092,0.2218c-0.1337,0.0312 -0.2673,0.0052 -0.3756,-0.0621c-0.1082,-0.0672 -0.1907,-0.1755 -0.2218,-0.3092c-0.0312,-0.1337 -0.0052,-0.2673 0.0621,-0.3755c0.0672,-0.1083 0.1755,-0.1907 0.3092,-0.2219c0.1337,-0.0312 0.2673,-0.0052 0.3755,0.0621c0.1083,0.0672 0.1907,0.1755 0.2219,0.3092z" id="ID0.14710577484220266" stroke-width="0.28423" stroke-linecap="butt"/><path d="M390.3215,207.4575l0.5962,0.687z" id="ID0.09315776498988271" stroke-width="0.28423" stroke-linecap="round"/></g></g></g></g></svg>