<svg version="1.1" xmlns="http://www.w3.org/2000/svg" xmlns:xlink="http://www.w3.org/1999/xlink" width="302.70919" height="395.94619" viewBox="0,0,302.70919,395.94619"><g transform="translate(-88.68937,28.87326)"><g data-paper-data="{&quot;isPaintingLayer&quot;:true}" fill-rule="nonzero" stroke-miterlimit="10" stroke-dasharray="" stroke-dashoffset="0" style="mix-blend-mode: normal"><path d="M181.7761,124.0526v0c-0.0001,-0.0048 -2.9803,4.8151 -6.5,5.0026c-3.5174,0.1849 -4.1165,-3.1216 -4.1165,-3.1216c-6.105,-22.7719 -19.9019,-73.0632 -24.4364,-78.9086c-5.8836,-7.5861 -24.299,-36.3747 -8.1758,-47.5497c16.1423,-11.1799 42.8382,11.8941 46.8499,50.8046c3.3253,32.4897 6.5346,52.2775 -3.6212,73.7727z" fill="#66ff6f" stroke="#000000" stroke-width="2.40532" stroke-linecap="butt" stroke-linejoin="miter"/><path d="M199.48,-7.0188v0c-0.0632,4.9942 -1.3674,10.2601 -3.5531,17.6823c0,0 -1.6262,5.2978 -2.5652,9.5114c-0.023,0.1085 -0.5633,4.2509 -5.3517,3.5796c-3.8177,-0.5338 -6.8367,-2.3308 -6.8859,-7.7521c-0.0021,-0.2285 0.2611,-0.8733 0.2611,-0.8733c1.1219,-3.6933 2.7405,-10.3044 2.9156,-18.1983c0.2691,-12.1788 -0.7967,-24.0875 4.7089,-24.3876c8.3689,-0.4572 10.5765,11.8784 10.4703,20.438z" fill="#1b75bb" stroke="#66ff6f" stroke-width="2.40532" stroke-linecap="butt" stroke-linejoin="miter"/><path d="M221.9687,-7.2326v0c-0.068,4.9943 -1.3674,10.2601 -3.5555,17.6824c0,0 -1.6215,5.2977 -2.5652,9.5113c-0.0206,0.1085 -0.561,4.2509 -5.3493,3.5796c-3.8153,-0.5338 -6.8343,-2.3308 -6.8859,-7.7521c-0.0021,-0.2285 0.2635,-0.8733 0.2635,-0.8733c1.1219,-3.6934 2.7381,-10.3044 2.9108,-18.1982c0.2739,-12.1789 -0.7943,-24.0876 4.7137,-24.3877c8.3689,-0.4572 10.5717,11.8785 10.4679,20.438z" fill="#66ff6f" stroke="#000000" stroke-width="2.40532" stroke-linecap="butt" stroke-linejoin="miter"/><g stroke="#000000" stroke-width="2.40532" stroke-linecap="butt" stroke-linejoin="miter"><path d="M186.3193,15.9482v0c0.0001,0.0048 5.4587,-0.4296 9.274,0.1066c3.8152,0.5315 12.0038,1.601 16.7854,3.8335c4.7768,2.2373 9.939,6.3111 9.939,6.3111c1.8181,1.4669 3.2893,2.8914 4.3569,4.1176c6.1088,6.9754 9.7614,21.5223 9.7614,21.5223c1.3404,6.1307 1.4833,10.7887 1.4889,12.3931c-0.5018,0.0985 -0.3912,4.6461 -0.7249,4.7167c-2.2563,0.5049 -0.458,3.6966 -9.8449,24.8478c-5.1527,11.6094 -1.9544,14.8095 -5.0372,21.7424c0,0 -8.4022,6.8174 -27.2352,6.9772c-5.1207,0.0439 -15.3278,-1.3143 -20.1475,-3.7678c-4.0681,-2.0756 -3.4687,-5.5692 -4.6663,-7.0588l-2.2734,-17.7425l-0.2017,-0.4599c-1.1667,-7.3495 -2.5825,-15.0839 -4.0469,-20.3499c-3.6431,-13.0364 -14.0122,-46.6186 12.0464,-54.9052c3.6596,-1.1654 7.1717,-1.8987 10.526,-2.2842z" fill="#66ff6f"/><path d="M158.6729,41.9178v0l0.1547,-0.4345c3.6231,-6.5195 13.9499,-8.2605 19.5732,-8.314c11.2372,-0.1068 22.3077,17.4365 22.4958,37.2194c0.188,19.778 -6.002,33.3481 -20.0244,36.0095c-6.4038,1.2107 -8.7374,-3.3784 -11.4974,-5.7648l-0.5527,-0.4445c-1.3027,-9.0008 -3.1419,-20.284 -5.0988,-27.2555c-1.9222,-6.8613 -5.7076,-19.4393 -5.0504,-31.0156z" fill="#d0d2d3"/></g><path d="M222.006,116.8797v0c-0.0049,0 -5.0533,2.5857 -8.1625,0.9219c-3.1117,-1.6711 -1.9003,-4.8121 -1.9003,-4.8121c6.5921,-22.6351 20.8581,-72.7964 20.0161,-80.1417c-1.1033,-9.5367 -1.9213,-43.7076 17.6716,-44.9041c19.5953,-1.1893 30.4646,32.3809 13.7125,67.7242c-14.0029,29.5154 -21.5116,48.0941 -41.3374,61.2118z" fill="#66ff6f" stroke="#000000" stroke-width="2.40532" stroke-linecap="butt" stroke-linejoin="miter"/><path d="M93.6102,201.2341c-0.2959,-1.0123 -7.2946,-25.6903 9.5814,-48.7648c11.4313,-15.6189 31.4153,-35.6295 82.9238,-40.5668c25.2196,-2.4119 47.7485,3.8854 63.9941,13.6798c-0.2395,-0.1444 -0.4647,-0.2962 -0.7066,-0.4383l0.2322,0.1373c15.0705,6.6328 34.1978,16.9363 46.9992,34.3621c0,0 6.6646,-14.2505 37.145,-15.1344c38.5169,-1.1263 54.272,20.0841 56.4166,36.1608c2.178,16.3121 -2.6325,35.0769 -35.1368,40.9087c-27.212,4.8699 -42.1064,-3.2223 -46.2314,-5.9806l-0.321,-0.3601c-2.9157,9.3198 -7.8827,13.6487 -7.8827,13.6487l0.4127,0.1428c11.5138,4.1987 26.6742,10.9293 45.2507,21.7406c38.8871,22.6358 38.8905,63.2225 28.3333,77.9166c-10.9278,15.1883 -43.545,34.4555 -90.1217,9.0953c-26.2104,-14.2603 -39.6178,-36.4817 -46.336,-53.1668l-1.3802,0.5616c-1.7773,1.0464 -3.7183,2.0799 -5.792,3.0594l-0.2649,0.4788c10.3866,23.7775 26.1936,72.7219 -17.4465,76.9253c-41.5037,3.9979 -38.4053,-46.0884 -35.2572,-67.4015l-0.33,-0.0474c-5.3672,-0.3266 -10.8249,-1.0613 -16.2872,-2.2891c0.1226,0.249 6.442,13.1927 -1.3343,32.2093c-6.0934,14.885 -33.6823,50.6946 -56.543,32.0245c-24.1188,-19.702 -11.345,-42.3671 0.9777,-56.3106c10.676,-12.0733 23.0403,-17.0835 28.6504,-19.2969l-0.1573,-0.0995c-1.3937,-0.8575 -2.7877,-1.7511 -4.1655,-2.705c-38.3436,-26.4415 -35.6049,-81.9655 -35.6049,-81.9655l0.0855,0.3937c0.1575,0.6191 0.2643,0.9789 0.2966,1.082v0zM138.9115,287.7667c-2.3133,-1.1927 -4.5771,-2.4845 -6.7792,-3.866M178.1129,296.8979c0.4677,-2.6745 1.0028,-5.3351 1.5887,-7.9819M224.5329,275.9095c2.3285,4.3076 4.4249,8.7473 6.3751,13.239M310.4833,197.9553c0.2937,5.3372 -0.153,10.7272 -1.5665,15.8882" fill="#66ff6f" stroke="#000000" stroke-width="2.40532" stroke-linecap="round" stroke-linejoin="round"/><path d="M344.4573,144.8044c30.7958,2.6899 43.8038,21.3622 45.7386,35.8654c2.178,16.3121 -2.6325,35.0769 -35.1368,40.9087c-4.7283,0.8484 -9.085,1.3035 -13.0692,1.4641l-0.3081,-0.0163c12.7399,-25.2242 13.6859,-54.7549 2.9757,-77.9135l-0.2002,-0.3084v0z" fill="#f1f1f2" stroke="#000000" stroke-width="2.40532" stroke-linecap="butt" stroke-linejoin="miter"/><path d="M352.3378,254.6453c32.8062,23.1362 32.2609,60.1536 22.2853,74.0436c-10.4078,14.4737 -40.5313,32.6444 -83.6439,12.3821l0.4291,-0.146c24.5585,-7.9453 45.6842,-27.5459 55.4301,-54.714c3.735,-10.4317 5.462,-21.0705 5.3922,-31.4492l0.1072,-0.1165v0z" fill="#f1f1f2" stroke="#000000" stroke-width="2.40532" stroke-linecap="butt" stroke-linejoin="miter"/><path d="M241.8848,326.9367c1.9929,18.8565 -3.3522,36.2792 -28.6102,38.7083c-25.4838,2.4504 -34.1574,-15.4837 -36.3215,-34.6296l0.1991,0.1954c21.3911,8.0665 44.6615,6.0701 64.632,-3.9748l0.1006,-0.2993v0z" fill="#f1f1f2" stroke="#000000" stroke-width="2.40532" stroke-linecap="butt" stroke-linejoin="miter"/><path d="M127.7188,363.1461c-7.9033,3.3874 -16.3292,3.4122 -24.1863,-3.0102c-15.445,-12.6284 -15.7593,-26.4638 -10.7425,-38.4472l0.2572,-0.0217c6.4077,17.1691 18.2941,31.965 34.7069,41.3921l-0.0353,0.087v0z" fill="#f1f1f2" stroke="#000000" stroke-width="2.40532" stroke-linecap="butt" stroke-linejoin="miter"/><path d="M127.5868,234.6568v0c-21.121,-15.0785 -28.533,-15.9341 -33.7166,-33.3771c0,0 -7.6583,-25.2491 9.5714,-48.8128c11.4336,-15.6189 31.4153,-35.6271 82.9214,-40.5668c51.499,-4.9252 91.8353,26.4237 90.1771,49.8683c-2.2025,31.2072 -24.843,27.3477 -67.8614,54.4424c-43.0137,27.0779 -43.3115,58.7601 -43.3115,58.7601c0,0 -23.0989,-29.8145 -37.7804,-40.3141z" fill="#e6e7e8" stroke="#000000" stroke-width="2.40532" stroke-linecap="butt" stroke-linejoin="miter"/><path d="M153.3074,144.0762c30.242,-5.4592 38.5588,37.1797 38.5588,37.1797c0,0 -13.3912,3.7715 -38.1328,7.6293c-24.7344,3.8529 -30.6242,-1.5972 -30.6242,-1.5972c0,0 -0.0487,-37.7647 30.1982,-43.2118v0z" fill="#ffffff" stroke="#000000" stroke-width="2.40532" stroke-linecap="round" stroke-linejoin="miter"/><path d="M147.5,145.5v9" fill="none" stroke="#000000" stroke-width="1" stroke-linecap="round" stroke-linejoin="miter"/><path d="M158.5,143.5l0.5,10" fill="none" stroke="#000000" stroke-width="1" stroke-linecap="round" stroke-linejoin="miter"/><path d="M168.5,145l0.25,9" fill="none" stroke="#000000" stroke-width="1" stroke-linecap="round" stroke-linejoin="miter"/><path d="M178,176l-0.25,7.5" fill="none" stroke="#000000" stroke-width="1" stroke-linecap="round" stroke-linejoin="miter"/><path d="M167,186l0.5,-10" fill="none" stroke="#000000" stroke-width="1" stroke-linecap="round" stroke-linejoin="miter"/><path d="M157.25,188.25l-0.25,-11.25" fill="none" stroke="#000000" stroke-width="1" stroke-linecap="round" stroke-linejoin="miter"/><path d="M145.5,189.75l-0.25,-12" fill="none" stroke="#000000" stroke-width="1" stroke-linecap="round" stroke-linejoin="miter"/><path d="M138,178v11.25" fill="none" stroke="#000000" stroke-width="1" stroke-linecap="round" stroke-linejoin="miter"/><path d="M130.5,179l-0.5,10" fill="none" stroke="#000000" stroke-width="1" stroke-linecap="round" stroke-linejoin="miter"/><path d="M189.7,174.7l-65.7,4.2l3,-12.65l7,-10.75l43,-2l4.65,3.25l6.5,11.9l1.35,5.85z" fill="#000000" stroke="#000000" stroke-width="1" stroke-linecap="round" stroke-linejoin="miter"/><g stroke-linecap="butt" stroke-linejoin="miter"><g fill="#000000" stroke="none" stroke-width="3.02811"><path d="M137.023,198.7363c1.4958,-0.0142 2.8531,1.0086 3.2006,2.5285c0.623,2.777 0.1414,5.6342 -1.374,8.0409c-1.5125,2.4097 -3.8949,4.0858 -6.6748,4.7209c-2.7738,0.6502 -5.6251,0.1474 -8.0288,-1.3712c-2.4189,-1.5183 -4.0919,-3.8917 -4.7331,-6.6837c-0.1329,-0.6014 -0.2114,-1.2063 -0.2475,-1.8176c-0.0746,-1.7981 1.3039,-3.3223 3.1049,-3.4061c1.8221,-0.096 3.3313,1.2978 3.4121,3.1018c0.0112,0.2271 0.0438,0.466 0.0943,0.6866c0.2435,1.0848 0.9004,2.0143 1.8418,2.611c0.9292,0.5877 2.0362,0.771 3.1089,0.5276c1.0848,-0.2495 2.0113,-0.9003 2.605,-1.8417c0.5907,-0.9353 0.7831,-2.0394 0.5336,-3.1181c-0.3982,-1.7526 0.7056,-3.4983 2.4582,-3.8995c0.2357,-0.0538 0.4687,-0.0772 0.6988,-0.0794v0v0z"/><path d="M137.023,208.7421v0v0c-0.2301,-0.0021 -0.4631,-0.0256 -0.6988,-0.0793c-1.7526,-0.4012 -2.8564,-2.1469 -2.4582,-3.8995c0.2495,-1.0787 0.0571,-2.1828 -0.5336,-3.1181c-0.5937,-0.9414 -1.5202,-1.5922 -2.605,-1.8417c-1.0727,-0.2434 -2.1797,-0.0601 -3.1089,0.5276c-0.9414,0.5967 -1.5983,1.5262 -1.8418,2.611c-0.0505,0.2206 -0.0831,0.4595 -0.0943,0.6865c-0.0808,1.8041 -1.59,3.1979 -3.4121,3.1018c-1.801,-0.0837 -3.1795,-1.6079 -3.1049,-3.406c0.0361,-0.6113 0.1146,-1.2162 0.2475,-1.8176c0.6412,-2.792 2.3142,-5.1654 4.7331,-6.6838c2.4037,-1.5185 5.255,-2.0213 8.0288,-1.3711c2.7799,0.6351 5.1623,2.3111 6.6748,4.7209c1.5154,2.4067 1.997,5.2639 1.374,8.0409c-0.3475,1.5199 -1.7048,2.5427 -3.2006,2.5284z"/></g><g stroke="#000000"><path d="M128.9038,197.9797c1.7021,0 3.2443,0.6697 4.3609,1.7524c1.1167,1.0827 1.8079,2.5783 1.8079,4.2275c0,1.6491 -0.6912,3.1447 -1.8079,4.2274c-1.1166,1.0827 -2.6588,1.7524 -4.3609,1.7524c-1.702,0 -3.2442,-0.6697 -4.3609,-1.7524c-1.1166,-1.0827 -1.8078,-2.5783 -1.8078,-4.2274c0,-1.6492 0.6912,-3.1448 1.8078,-4.2275c1.1167,-1.0827 2.6589,-1.7524 4.3609,-1.7524z" fill="none" stroke-width="2.51785"/><path d="M129.6654,199.6716c1.1536,0 2.1995,0.4607 2.9569,1.2043c0.7564,0.7435 1.2255,1.7708 1.2255,2.9048c0,1.134 -0.4691,2.1612 -1.2255,2.9048c-0.7574,0.7436 -1.8033,1.2043 -2.9569,1.2043c-1.1537,0 -2.1995,-0.4607 -2.957,-1.2043c-0.7564,-0.7436 -1.2254,-1.7708 -1.2254,-2.9048c0,-1.134 0.469,-2.1613 1.2254,-2.9048c0.7575,-0.7436 1.8033,-1.2043 2.957,-1.2043z" fill="#ff0000" stroke-width="0.91593"/></g></g><g stroke-linecap="butt" stroke-linejoin="miter"><g fill="#000000" stroke="none" stroke-width="2.89763"><path d="M209.9167,195.1548c1.4313,-0.0136 2.7302,0.9651 3.0627,2.4195c0.5962,2.6574 0.1353,5.3914 -1.3148,7.6944c-1.4473,2.3059 -3.7271,3.9098 -6.3872,4.5175c-2.6543,0.6222 -5.3827,0.141 -7.6829,-1.3121c-2.3146,-1.4529 -3.9155,-3.724 -4.5291,-6.3957c-0.1272,-0.5755 -0.2023,-1.1543 -0.2368,-1.7393c-0.0714,-1.7206 1.2477,-3.1792 2.9711,-3.2593c1.7436,-0.0919 3.1878,1.2418 3.265,2.9682c0.0108,0.2172 0.0419,0.4458 0.0903,0.6569c0.233,1.0381 0.8616,1.9275 1.7624,2.4985c0.8892,0.5624 1.9485,0.7378 2.975,0.5049c1.038,-0.2388 1.9246,-0.8616 2.4927,-1.7624c0.5653,-0.8949 0.7494,-1.9515 0.5106,-2.9837c-0.381,-1.6771 0.6753,-3.3476 2.3523,-3.7315c0.2256,-0.0514 0.4485,-0.0738 0.6687,-0.0759v0v0z"/><path d="M209.9167,204.7294v0v0c-0.2202,-0.002 -0.4431,-0.0244 -0.6687,-0.0759c-1.677,-0.3839 -2.7333,-2.0544 -2.3523,-3.7315c0.2388,-1.0322 0.0547,-2.0887 -0.5106,-2.9837c-0.5681,-0.9008 -1.4547,-1.5236 -2.4927,-1.7624c-1.0265,-0.2328 -2.0858,-0.0575 -2.975,0.5049c-0.9008,0.571 -1.5294,1.4605 -1.7624,2.4985c-0.0484,0.2111 -0.0795,0.4398 -0.0903,0.657c-0.0772,1.7263 -1.5214,3.06 -3.265,2.9681c-1.7234,-0.0801 -3.0425,-1.5386 -2.9711,-3.2592c0.0345,-0.585 0.1096,-1.1639 0.2368,-1.7393c0.6136,-2.6717 2.2145,-4.9428 4.5291,-6.3958c2.3002,-1.4531 5.0286,-1.9343 7.6829,-1.3121c2.6601,0.6077 4.9399,2.2116 6.3872,4.5175c1.4501,2.303 1.911,5.0371 1.3148,7.6945c-0.3325,1.4544 -1.6314,2.4331 -3.0627,2.4194z"/></g><g stroke="#000000"><path d="M202.1474,194.4307c1.6287,0 3.1044,0.6409 4.173,1.6769c1.0685,1.036 1.7299,2.4672 1.7299,4.0453c0,1.5782 -0.6614,3.0093 -1.7299,4.0453c-1.0686,1.0361 -2.5443,1.677 -4.173,1.677c-1.6288,0 -3.1045,-0.6409 -4.173,-1.677c-1.0686,-1.036 -1.7299,-2.4671 -1.7299,-4.0453c0,-1.5781 0.6613,-3.0093 1.7299,-4.0453c1.0685,-1.036 2.5442,-1.6769 4.173,-1.6769z" fill="none" stroke-width="2.40936"/><path d="M202.8761,196.0497c1.1039,0 2.1047,0.4409 2.8295,1.1524c0.7239,0.7116 1.1727,1.6946 1.1727,2.7797c0,1.0851 -0.4488,2.0681 -1.1727,2.7797c-0.7248,0.7115 -1.7256,1.1524 -2.8295,1.1524c-1.1039,0 -2.1047,-0.4409 -2.8295,-1.1524c-0.7239,-0.7116 -1.1727,-1.6946 -1.1727,-2.7797c0,-1.0851 0.4488,-2.0681 1.1727,-2.7797c0.7248,-0.7115 1.7256,-1.1524 2.8295,-1.1524z" fill="#ff0000" stroke-width="0.87646"/></g></g></g></g></svg>