<svg xmlns="http://www.w3.org/2000/svg" xmlns:xlink="http://www.w3.org/1999/xlink" version="1.1" width="114.87339854240417" height="134.76048350334167" viewBox="0.3062095642089844 0.4684668779373169 114.87339854240417 134.76048350334167">
  <!-- Exported by Scratch - http://scratch.mit.edu/ -->
  <g id="ID0.6178100248798728">
    <path id="Back_Leg" fill="#B2B2B2" stroke="#000000" d="M 50.3763 109.947 C 50.3763 109.947 38.5289 118.2651 27.4783 121.231 L 27.5937 121.5194 C 29.2665 123.9662 35.4665 131.5774 27.1457 134.2575 C 19.9919 136.5621 6.8634 116.6796 12.6302 112.9276 C 16.1528 110.6298 19.1924 112.5896 19.1924 112.5896 C 19.1924 112.5896 23.8538 111.1556 27.2423 109.444 C 33.0157 106.5438 35.001 104.8121 35.001 104.8121 C 35.001 104.8121 40.6148 99.0346 44.1978 99.2626 C 47.778 99.4906 55.0069 105.5847 50.3763 109.947 Z M 24.4306 122.1848 L 27.477 121.231 " stroke-width="1.341417748120719"/>
    <g id="Tail">
      <path id="Tail_1_" fill="#B2B2B2" stroke="#000000" d="M 29.3255 99.551 C 26.0859 98.946 22.2093 97.7924 18.9402 94.8507 C 11.6281 88.2697 9.2901 77.4123 4.1202 80.2104 C -1.0523 83.0113 -0.953 100.5544 15.3251 105.959 C 20.9349 107.8249 26.0538 107.8302 30.2028 107.7189 C 31.292 107.684 40.5558 106.8403 43.7229 102.2526 C 46.89 97.6663 44.6874 96.5234 43.6022 95.8889 C 42.5156 95.2571 33.9078 100.4068 29.3255 99.551 Z " stroke-width="1.341417748120719"/>
      <path id="Tail_Tip" fill="#FFFFFF" d="M 4.3027 80.6236 C 2.375 81.6672 1.2764 85.1804 1.6279 89.1738 C 1.817 91.312 3.1088 96.7555 8.292 101.3431 C 8.6609 100.6121 6.9842 97.4047 9.2874 95.4691 C 11.7516 93.3993 15.8067 93.8258 17.1387 94.0458 C 14.9079 91.6152 13.1091 88.9323 11.5369 86.4802 C 8.4745 81.7169 6.7628 79.2943 4.3027 80.6236 Z " stroke-width="1.341417748120719"/>
    </g>
    <path id="R_Arm" fill="#B2B2B2" stroke="#000000" d="M 69.0918 94.023 C 69.0918 94.023 70.7471 94.2457 75.4555 98.9554 C 80.1625 103.6625 83.5375 101.8529 87.4089 99.9266 C 91.2681 97.9923 101.542 91.7077 96.1133 86.7579 C 90.6806 81.8108 87.7871 88.2952 83.0801 89.984 C 78.3704 91.6742 76.2925 86.6479 73.8833 84.2334 C 73.0919 83.4366 72.2897 82.7605 71.564 82.2132 C 71.564 82.2132 70.2602 81.1964 69.0086 85.9571 C 67.7544 90.707 66.3996 92.0525 69.0918 94.023 Z " stroke-width="1.341417748120719"/>
    <g id="Front_Leg_x2F_Body_1_">
      <path id="Front_Leg_x2F_Body" fill="#B2B2B2" stroke="#000000" d="M 61.8267 103.5847 C 63.4203 102.3613 65.0407 100.3639 67.1266 97.2612 C 68.8651 94.6776 70.7471 89.7801 70.7471 89.7801 C 71.9209 86.3984 73.3428 80.959 68.1971 79.9931 C 66.1139 79.6028 62.7254 79.8617 57.9084 78.9522 C 53.0887 78.0387 48.7894 75.5691 45.1421 81.9476 C 41.4948 88.3287 32.2766 93.0425 43.7243 104.1641 C 43.7243 104.1641 50.2985 109.3179 58.1646 117.0941 C 64.6463 123.498 74.3206 131.3171 74.3206 131.3171 C 74.3206 131.3171 99.7714 134.2521 100.5239 130.3862 C 103.1034 117.255 80.7045 121.117 80.7045 121.117 C 80.7045 121.117 74.5286 115.8412 71.6807 113.3435 C 67.0166 109.2414 56.7575 98.8951 56.7575 98.8951 " stroke-width="1.341417748120719"/>
      <path id="Belly" fill="#FFFFFF" d="M 64.7993 87.9263 C 58.1727 84.3635 55.1223 87.9062 53.0753 89.9679 C 49.5272 93.528 57.6924 98.8347 57.6924 98.8347 L 61.7999 102.9783 C 65.8228 98.2887 67.9422 95.0988 68.8986 92.3355 C 68.7082 91.0732 67.7209 89.5011 64.7993 87.9263 Z " stroke-width="1.341417748120719"/>
    </g>
    <path id="L_Arm" fill="#B2B2B2" stroke="#000000" d="M 39.2546 91.7882 C 40.2594 91.0223 43.1313 88.8344 45.7659 86.8827 C 49.0229 84.4694 53.9713 79.0367 47.2106 76.6262 C 40.4499 74.2103 37.1392 78.7778 31.7575 83.2595 C 28.8613 85.6754 24.6372 86.8786 25.9639 91.5884 C 27.2959 96.2994 32.4859 109.5727 41.7779 105.2306 C 51.0739 100.8871 39.3646 92.915 37.6731 90.2657 " stroke-width="1.341417748120719"/>
    <g id="Head_1_">
      <path id="Head_Fill" fill="#B2B2B2" stroke="#000000" d="M 114.0454 51.5819 C 112.0708 42.9338 102.1188 41.4153 102.1188 41.4153 C 102.1188 41.4153 102.3549 34.2374 98.5936 27.5357 C 96.1039 23.0996 87.3914 16.748 87.3914 16.748 L 83.563 1.2546 L 73.5963 11.0738 L 69.7679 12.556 C 67.7034 12.3642 63.4391 12.1375 61.0688 12.2515 C 54.7252 12.5534 48.6915 14.9827 48.6915 14.9827 L 31.4167 3.5484 L 34.4121 28.9146 C 35.2787 27.8603 20.2561 46.0875 29.748 61.4038 C 34.2002 68.5938 43.3755 74.9843 50.6728 77.4297 C 56.1216 79.254 65.2044 79.7597 69.4526 79.7597 C 73.002 79.7597 79.8728 79.034 83.2961 78.4465 C 87.3485 77.7503 91.9871 76.2613 96.784 74.2774 C 109.5235 69.0002 116.0173 60.23 114.0454 51.5819 Z M 51.4267 17.7178 L 48.6969 14.9827 M 70.0952 12.3521 C 72.778 12.7988 75.9075 14.1845 75.9075 14.1845 " stroke-width="1.341417748120719"/>
      <path id="Muzzle" fill="#FFFFFF" d="M 101.5622 41.752 L 97.6975 37.5842 L 85.4732 41.1537 C 85.4732 41.1671 85.4665 43.3255 83.5684 45.0881 C 82.7018 45.893 81.4449 46.6146 79.6139 47.013 C 73.7505 48.2887 64.5739 43.9586 64.5739 43.9586 L 54.1323 48.5423 C 54.1323 48.5423 47.7686 49.2425 44.4151 52.5075 C 43.2977 53.5967 42.5143 54.969 42.4137 56.6967 C 41.7524 67.962 54.0572 74.4732 62.6463 77.6255 C 65.0313 78.5001 65.8496 78.7671 67.3037 79.1534 C 67.3037 79.1534 77.2624 78.8918 80.9607 78.3647 C 85.0278 77.7852 91.1259 76.0064 95.9228 74.0238 C 108.6636 68.748 115.5089 60.5775 113.5343 51.9293 C 111.5571 43.2759 101.5622 41.752 101.5622 41.752 Z " stroke-width="1.341417748120719"/>
    </g>
    <g id="L_Eye">
      <path id="Eyeball_1_" fill="#FFFFFF" stroke="#000000" d="M 63.321 31.9623 C 67.246 37.9719 66.8329 45.1914 62.4062 48.0795 C 57.9755 50.9756 50.3267 46.8641 47.2817 42.4348 C 44.3145 38.1181 43.6773 29.0568 47.5755 26.4209 C 51.6976 23.8199 63.321 31.9623 63.321 31.9623 " stroke-width="1.341417748120719"/>
      <path id="Pupil_1_" d="M 60.9226 39.8606 C 60.9226 41.3107 59.8454 42.4858 58.5067 42.4858 C 57.176 42.4858 56.0868 41.308 56.0868 39.8606 C 56.0868 38.4119 57.176 37.2354 58.5067 37.2354 C 59.8427 37.2354 60.9226 38.4119 60.9226 39.8606 " stroke-width="1.341417748120719" fill="undefined"/>
    </g>
    <g id="R_Eye">
      <path id="Eyeball" fill="#FFFFFF" stroke="#000000" d="M 95.1435 27.8294 C 95.1435 27.8294 100.2637 37.2368 98.2811 41.4448 C 96.8967 44.6025 91.2654 44.6186 88.1533 43.1216 C 84.726 41.4716 82.726 37.2717 81.8487 33.5975 C 81.3108 31.2125 83.39 28.9294 84.3303 26.7563 C 85.1794 24.7938 85.2452 20.8581 87.2814 21.0553 C 90.6511 21.3946 95.1435 27.8294 95.1435 27.8294 " stroke-width="1.341417748120719"/>
      <path id="Pupil" d="M 94.4714 37.1979 C 94.4714 38.6466 93.3956 39.8217 92.0569 39.8217 C 90.7248 39.8217 89.637 38.6453 89.637 37.1979 C 89.637 35.7492 90.7248 34.5714 92.0569 34.5714 C 93.3956 34.5714 94.4714 35.7492 94.4714 37.1979 " stroke-width="1.341417748120719" fill="undefined"/>
    </g>
    <path id="Nose" fill="#5E4A42" stroke="#000000" d="M 79.2812 44.4469 C 81.7682 44.4469 85.3927 44.0659 85.5805 45.2102 C 85.775 46.3571 83.288 50.8482 81.5737 51.0386 C 79.854 51.2291 73.3575 47.8823 73.265 45.7816 C 73.1657 43.681 76.986 44.4469 79.2812 44.4469 " stroke-width="1.341417748120719"/>
    <path id="ID0.18181932624429464" fill="none" stroke="#000000" stroke-width="1.5722663402557373" stroke-linecap="round" d="M 30.0335 37.1448 L 28.4612 39.8963 L 26.8889 44.6131 L 26.6924 48.1507 L 26.8889 52.4744 L 29.4439 55.0293 L 32.1953 56.4051 L 35.1433 56.012 L 37.8948 41.272 L 35.1433 41.272 L 32.3919 39.8963 L 30.0335 37.1448 Z "/>
    <path id="ID0.14710577484220266" fill="none" stroke="#000000" d="M 35.4726 42.3343 C 35.7189 42.3343 35.9418 42.4343 36.1034 42.5959 C 36.2651 42.7576 36.365 42.9804 36.365 43.2267 C 36.365 43.473 36.2651 43.6958 36.1034 43.8575 C 35.9418 44.0191 35.7189 44.1191 35.4726 44.1191 C 35.2264 44.1191 35.0035 44.0191 34.8419 43.8575 C 34.6802 43.6958 34.5803 43.473 34.5803 43.2267 C 34.5803 42.9804 34.6802 42.7576 34.8419 42.5959 C 35.0035 42.4343 35.2264 42.3343 35.4726 42.3343 Z " stroke-width="0.5099241956659313"/>
    <path id="ID0.09315776498988271" fill="none" stroke="#000000" stroke-linecap="round" d="M 35.4726 42.3598 L 35.4726 43.9916 Z " stroke-width="0.5099241956659313"/>
    <path id="ID0.14710577484220266" fill="none" stroke="#000000" d="M 34.0024 53.5765 C 34.1728 53.7543 34.2548 53.9844 34.2499 54.2129 C 34.2451 54.4415 34.1533 54.6678 33.9755 54.8382 C 33.7977 55.0086 33.5677 55.0907 33.3391 55.0858 C 33.1106 55.0809 32.8842 54.9892 32.7138 54.8114 C 32.5434 54.6336 32.4614 54.4035 32.4662 54.175 C 32.4711 53.9464 32.5628 53.7201 32.7406 53.5497 C 32.9185 53.3793 33.1485 53.2972 33.3771 53.3021 C 33.6056 53.307 33.8319 53.3987 34.0024 53.5765 Z " stroke-width="0.5099241887388345"/>
    <path id="ID0.09315776498988271" fill="none" stroke="#000000" stroke-linecap="round" d="M 33.9839 53.5942 L 32.8058 54.7232 Z " stroke-width="0.5099241887388345"/>
    <path id="ID0.9625102812424302" fill="none" stroke="#000000" stroke-width="1.5722663402557373" stroke-linecap="round" d="M 86.4385 21.4614 L 81.7217 32.2315 "/>
    <g id="ID0.8435089820995927">
      <path id="ID0.8404736882075667" fill="#FFFFFF" stroke="#000000" stroke-width="0.916987562470837" d="M 78.9747 58.4895 C 84.7095 57.8391 88.9729 57.4184 93.8387 58.3252 C 95.4763 58.63 97.027 60.2851 97.1861 61.9153 C 97.3792 63.3908 96.0636 65.0138 94.6604 65.5716 C 90.0611 67.4004 85.8719 68.0895 80.1372 68.7399 C 74.4024 69.3902 70.1683 69.6383 65.2732 68.9041 C 63.8101 68.6852 62.2026 67.4329 62.0717 65.9897 C 61.8531 64.3514 62.9146 62.3346 64.4514 61.6578 C 68.9811 59.662 73.24 59.1398 78.9747 58.4895 Z "/>
      <path id="ID0.6830179141834378" fill="none" stroke="#000000" stroke-width="0.916987562470837" stroke-linecap="round" d="M 62.0991 65.825 L 97.1964 62.0064 "/>
      <path id="ID0.720943711232394" fill="none" stroke="#000000" stroke-width="0.916987562470837" stroke-linecap="round" d="M 66.4297 60.8811 L 67.296 68.9272 "/>
      <path id="ID0.14236313942819834" fill="none" stroke="#000000" stroke-width="0.916987562470837" stroke-linecap="round" d="M 71.9506 59.5167 L 73.081 69.0786 "/>
      <path id="ID0.3628630032762885" fill="none" stroke="#000000" stroke-width="0.916987562470837" stroke-linecap="round" d="M 78.0879 58.7054 L 79.3156 68.7177 "/>
      <path id="ID0.07688325829803944" fill="none" stroke="#000000" stroke-width="0.916987562470837" stroke-linecap="round" d="M 82.6514 58.2571 L 83.7802 68.2114 "/>
      <path id="ID0.43129883660003543" fill="none" stroke="#000000" stroke-width="0.916987562470837" stroke-linecap="round" d="M 87.7263 57.8431 L 88.831 67.1772 "/>
      <path id="ID0.2841416848823428" fill="none" stroke="#000000" stroke-width="0.916987562470837" stroke-linecap="round" d="M 93.7115 65.8624 L 92.8083 58.305 "/>
    </g>
    <path id="ID0.43284247629344463" fill="none" stroke="#000000" stroke-width="0.7861331701278687" stroke-linecap="round" d="M 34.1607 107.7002 L 36.8335 112.1419 L 27.3213 116.0726 L 24.9629 111.0413 "/>
    <path id="ID0.9875291283242404" fill="none" stroke="#000000" stroke-width="0.7861331701278687" stroke-linecap="round" d="M 65.8418 108.4864 L 60.8892 114.5789 L 70.0869 122.3616 L 74.961 117.0159 "/>
    <path id="ID0.09315776498988271" fill="none" stroke="#000000" stroke-linecap="round" d="M 66.8382 110.7365 L 65.395 111.498 Z " stroke-width="0.5099241930541871"/>
    <path id="ID0.14710577484220266" fill="none" stroke="#000000" d="M 66.8607 110.7246 C 66.9757 110.9425 66.9913 111.1862 66.9237 111.4046 C 66.8562 111.623 66.7057 111.8154 66.4879 111.9303 C 66.2701 112.0452 66.0264 112.0608 65.808 111.9933 C 65.5896 111.9258 65.3972 111.7753 65.2822 111.5575 C 65.1673 111.3396 65.1517 111.0959 65.2193 110.8775 C 65.2868 110.6591 65.4372 110.4667 65.6551 110.3518 C 65.8729 110.2369 66.1166 110.2213 66.335 110.2888 C 66.5534 110.3564 66.7458 110.5068 66.8607 110.7246 Z " stroke-width="0.5099241930541871"/>
    <path id="ID0.09315776498988271" fill="none" stroke="#000000" stroke-linecap="round" d="M 72.8926 115.9812 L 72.8926 117.613 Z " stroke-width="0.5099241956659313"/>
    <path id="ID0.14710577484220266" fill="none" stroke="#000000" d="M 72.8926 115.9557 C 73.1389 115.9557 73.3617 116.0556 73.5234 116.2173 C 73.685 116.3789 73.785 116.6018 73.785 116.8481 C 73.785 117.0944 73.685 117.3172 73.5234 117.4788 C 73.3617 117.6405 73.1389 117.7404 72.8926 117.7404 C 72.6463 117.7404 72.4235 117.6405 72.2618 117.4788 C 72.1002 117.3172 72.0002 117.0944 72.0002 116.8481 C 72.0002 116.6018 72.1002 116.3789 72.2618 116.2173 C 72.4235 116.0556 72.6463 115.9557 72.8926 115.9557 Z " stroke-width="0.5099241956659313"/>
    <g id="ID0.28120887838304043">
      <path id="ID0.14710577484220266" fill="none" stroke="#000000" d="M 28.0046 113.5457 C 28.1883 113.5457 28.3545 113.6203 28.475 113.7408 C 28.5956 113.8614 28.6701 114.0276 28.6701 114.2112 C 28.6701 114.3949 28.5956 114.5611 28.475 114.6816 C 28.3545 114.8022 28.1883 114.8767 28.0046 114.8767 C 27.8209 114.8767 27.6547 114.8022 27.5342 114.6816 C 27.4136 114.5611 27.3391 114.3949 27.3391 114.2112 C 27.3391 114.0276 27.4136 113.8614 27.5342 113.7408 C 27.6547 113.6203 27.8209 113.5457 28.0046 113.5457 Z " stroke-width="0.3802824446515842"/>
      <path id="ID0.09315776498988271" fill="none" stroke="#000000" stroke-linecap="round" d="M 28.5467 113.8246 L 27.4704 114.3925 Z " stroke-width="0.3802824445605881"/>
    </g>
    <g id="ID0.28120887838304043">
      <path id="ID0.14710577484220266" fill="none" stroke="#000000" d="M 35.591 111.4448 C 35.6328 111.6237 35.5979 111.8025 35.5079 111.9472 C 35.4179 112.092 35.273 112.2024 35.0942 112.2441 C 34.9153 112.2859 34.7365 112.251 34.5917 112.161 C 34.4469 112.071 34.3366 111.9261 34.2948 111.7472 C 34.2531 111.5684 34.2879 111.3896 34.3779 111.2448 C 34.4679 111.1 34.6128 110.9897 34.7917 110.9479 C 34.9706 110.9062 35.1494 110.941 35.2941 111.031 C 35.4389 111.121 35.5493 111.2659 35.591 111.4448 Z " stroke-width="0.3802824617089333"/>
      <path id="ID0.09315776498988271" fill="none" stroke="#000000" stroke-linecap="round" d="M 35.419 112.0851 L 34.6214 111.166 Z " stroke-width="0.38028245186985293"/>
    </g>
  </g>
</svg>