<svg xmlns="http://www.w3.org/2000/svg" xmlns:xlink="http://www.w3.org/1999/xlink" version="1.1" width="45.529666900634766" height="49.06856918334961" viewBox="0.06743323802947998 0.44470006227493286 45.529666900634766 49.06856918334961">
  <!-- Exported by Scratch - http://scratch.mit.edu/ -->
  <g id="ID0.4814988384023309">
    <path id="Back_Leg" fill="#000000" stroke="#000000" d="M 18.3544 40.1725 C 18.3544 40.1725 14.0786 43.1746 10.0903 44.245 L 10.132 44.3491 C 10.7357 45.2321 12.9733 47.9791 9.9703 48.9464 C 7.3884 49.7781 2.6503 42.6024 4.7315 41.2483 C 6.0029 40.4189 7.0999 41.1263 7.0999 41.1263 C 7.0999 41.1263 8.7822 40.6087 10.0051 39.991 C 12.0888 38.9443 12.8053 38.3193 12.8053 38.3193 C 12.8053 38.3193 14.8314 36.2341 16.1245 36.3165 C 17.4166 36.3988 20.0256 38.5981 18.3544 40.1725 Z M 8.9904 44.5892 L 10.0899 44.245 " stroke-width="0.48412696765046803"/>
    <g id="Tail">
      <path id="Tail_1_" fill="#000000" stroke="#000000" d="M 10.757 36.4205 C 9.5878 36.2022 8.1887 35.7858 7.0089 34.7242 C 4.3699 32.349 3.5261 28.4305 1.6602 29.4404 C -0.2066 30.4513 -0.1707 36.7827 5.7041 38.7332 C 7.7288 39.4066 9.5762 39.4086 11.0736 39.3684 C 11.4667 39.3558 14.8101 39.0513 15.9531 37.3956 C 17.0961 35.7403 16.3012 35.3279 15.9095 35.0989 C 15.5174 34.8708 12.4108 36.7294 10.757 36.4205 Z " stroke-width="0.48412696765046803"/>
      <path id="Tail_Tip" fill="#000000" d="M 1.7261 29.5895 C 1.0304 29.9662 0.6339 31.2341 0.7607 32.6753 C 0.829 33.447 1.2952 35.4116 3.1659 37.0673 C 3.299 36.8035 2.6938 35.6459 3.5251 34.9473 C 4.4144 34.2003 5.878 34.3543 6.3587 34.4337 C 5.5536 33.5564 4.9044 32.5882 4.337 31.7032 C 3.2317 29.9841 2.614 29.1097 1.7261 29.5895 Z " stroke-width="0.48412696765046803"/>
    </g>
    <path id="R_Arm" fill="#000000" stroke="#000000" d="M 25.1089 34.4255 C 25.1089 34.4255 25.7063 34.5058 27.4056 36.2056 C 29.1044 37.9044 30.3225 37.2513 31.7197 36.5561 C 33.1125 35.858 36.8204 33.5898 34.8612 31.8034 C 32.9005 30.018 31.8562 32.3582 30.1574 32.9677 C 28.4576 33.5777 27.7077 31.7637 26.8382 30.8923 C 26.5526 30.6047 26.2631 30.3607 26.0012 30.1632 C 26.0012 30.1632 25.5306 29.7962 25.0789 31.5144 C 24.6263 33.2287 24.1373 33.7143 25.1089 34.4255 Z " stroke-width="0.48412696765046803"/>
    <g id="Front_Leg_x2F_Body_1_">
      <path id="Front_Leg_x2F_Body" fill="#000000" stroke="#000000" d="M 22.4869 37.8763 C 23.062 37.4348 23.6469 36.7139 24.3997 35.5941 C 25.0271 34.6617 25.7063 32.8942 25.7063 32.8942 C 26.13 31.6737 26.6431 29.7105 24.786 29.362 C 24.0342 29.2211 22.8113 29.3145 21.0728 28.9863 C 19.3333 28.6566 17.7817 27.7653 16.4653 30.0673 C 15.149 32.3703 11.8221 34.0716 15.9536 38.0855 C 15.9536 38.0855 18.3263 39.9455 21.1652 42.752 C 23.5045 45.0632 26.9961 47.8851 26.9961 47.8851 C 26.9961 47.8851 36.1814 48.9444 36.453 47.5492 C 37.384 42.81 29.3 44.2038 29.3 44.2038 C 29.3 44.2038 27.0711 42.2998 26.0433 41.3983 C 24.36 39.9179 20.6574 36.1838 20.6574 36.1838 " stroke-width="0.48412696765046803"/>
      <path id="Belly" fill="#000000" d="M 23.5597 32.2251 C 21.1681 30.9393 20.0672 32.2178 19.3285 32.9619 C 18.0479 34.2468 20.9948 36.162 20.9948 36.162 L 22.4772 37.6575 C 23.9291 35.965 24.694 34.8137 25.0392 33.8164 C 24.9705 33.3609 24.6141 32.7935 23.5597 32.2251 Z " stroke-width="0.48412696765046803"/>
    </g>
    <path id="L_Arm" fill="#000000" stroke="#000000" d="M 14.3405 33.6189 C 14.7031 33.3425 15.7396 32.5528 16.6904 31.8484 C 17.8659 30.9775 19.6518 29.0168 17.2118 28.1468 C 14.7718 27.2749 13.577 28.9233 11.6347 30.5408 C 10.5895 31.4127 9.065 31.847 9.5438 33.5468 C 10.0245 35.247 11.8976 40.0375 15.2511 38.4703 C 18.6061 36.9027 14.3802 34.0256 13.7697 33.0694 " stroke-width="0.48412696765046803"/>
    <g id="Head">
      <g id="Head_1_">
        <path id="Head_Fill" fill="#000000" stroke="#000000" d="M 41.333 19.1082 C 40.6204 15.987 37.0286 15.439 37.0286 15.439 C 37.0286 15.439 37.1138 12.8484 35.7563 10.4297 C 34.8578 8.8287 31.7134 6.5363 31.7134 6.5363 L 30.3317 0.9447 L 26.7346 4.4885 L 25.3529 5.0235 C 24.6079 4.9542 23.0688 4.8724 22.2134 4.9136 C 19.9239 5.0225 17.7463 5.8992 17.7463 5.8992 L 11.5117 1.7725 L 12.5928 10.9274 C 12.9055 10.5469 7.4838 17.1252 10.9095 22.6529 C 12.5163 25.2479 15.8277 27.5542 18.4614 28.4368 C 20.4279 29.0952 23.7059 29.2777 25.2392 29.2777 C 26.5202 29.2777 28.9999 29.0158 30.2353 28.8038 C 31.6979 28.5525 33.372 28.0151 35.1032 27.2991 C 39.701 25.3945 42.0447 22.2293 41.333 19.1082 Z M 18.7335 6.8864 L 17.7483 5.8992 M 25.4711 4.9499 C 26.4393 5.1111 27.5688 5.6112 27.5688 5.6112 " stroke-width="0.48412696765046803"/>
        <path id="Muzzle" fill="#000000" d="M 36.8277 15.5605 L 35.4329 14.0563 L 31.0211 15.3446 C 31.0211 15.3494 31.0187 16.1284 30.3336 16.7645 C 30.0209 17.055 29.5673 17.3154 28.9064 17.4592 C 26.7903 17.9196 23.4784 16.3569 23.4784 16.3569 L 19.7099 18.0111 C 19.7099 18.0111 17.4132 18.2638 16.2029 19.4422 C 15.7996 19.8353 15.5169 20.3306 15.4806 20.9541 C 15.2419 25.0198 19.6828 27.3698 22.7827 28.5075 C 23.6435 28.8231 23.9388 28.9195 24.4636 29.0589 C 24.4636 29.0589 28.0577 28.9645 29.3925 28.7742 C 30.8604 28.5651 33.0612 27.9231 34.7924 27.2076 C 39.3907 25.3035 41.8612 22.3547 41.1485 19.2335 C 40.4349 16.1104 36.8277 15.5605 36.8277 15.5605 Z " stroke-width="0.48412696765046803"/>
      </g>
      <g id="L_Eye">
        <path id="Eyeball_1_" fill="#FFFFFF" stroke="#000000" d="M 23.0262 12.0273 C 24.4428 14.1962 24.2937 16.8018 22.696 17.8441 C 21.097 18.8893 18.6526 17.9758 17.2375 15.8069 C 15.82 13.638 15.9672 11.0334 17.5657 9.9891 C 19.1643 8.9454 21.6082 9.8575 23.0262 12.0273 " stroke-width="0.48412696765046803"/>
        <path id="Pupil_1_" d="M 22.1606 14.8779 C 22.1606 15.4012 21.7718 15.8253 21.2887 15.8253 C 20.8084 15.8253 20.4153 15.4002 20.4153 14.8779 C 20.4153 14.355 20.8084 13.9304 21.2887 13.9304 C 21.7709 13.9304 22.1606 14.355 22.1606 14.8779 " stroke-width="0.48412696765046803" fill="undefined"/>
      </g>
      <g id="R_Eye">
        <path id="Eyeball" fill="#FFFFFF" stroke="#000000" d="M 34.5112 10.5357 C 35.9272 12.7041 36.1005 15.0957 34.7493 15.9788 C 33.3972 16.8623 31.2728 15.7115 29.8577 13.5417 C 28.4378 11.3728 28.3671 9.1197 29.7193 8.2361 C 31.0685 7.3536 33.0941 8.3659 34.5112 10.5357 " stroke-width="0.48412696765046803"/>
        <path id="Pupil" d="M 34.2686 13.9169 C 34.2686 14.4397 33.8803 14.8638 33.3972 14.8638 C 32.9164 14.8638 32.5238 14.4392 32.5238 13.9169 C 32.5238 13.394 32.9164 12.9689 33.3972 12.9689 C 33.8803 12.9689 34.2686 13.394 34.2686 13.9169 " stroke-width="0.48412696765046803" fill="undefined"/>
      </g>
      <path id="Nose" fill="#000000" stroke="#000000" d="M 28.7864 16.5331 C 29.6839 16.5331 30.992 16.3956 31.0598 16.8086 C 31.13 17.2225 30.2324 18.8433 29.6137 18.9121 C 28.9931 18.9808 26.6485 17.7729 26.615 17.0148 C 26.5792 16.2566 27.958 16.5331 28.7864 16.5331 " stroke-width="0.48412696765046803"/>
      <path id="Whisker_3_" d="M 10.4931 18.6942 C 10.482 18.686 9.3399 17.8422 7.5874 17.0666 C 5.6451 16.2063 4.5553 15.9725 4.5451 15.97 L 4.6638 15.4012 C 4.7098 15.4109 5.8165 15.6462 7.8227 16.535 C 9.6386 17.3392 10.7918 18.1927 10.8398 18.2285 L 10.4931 18.6942 L 10.4931 18.6942 Z " stroke-width="0.48412696765046803" fill="undefined"/>
      <path id="Whisker_2_" d="M 7.5293 20.9464 C 6.5441 20.9464 5.0641 20.8128 4.9935 20.8065 L 5.0453 20.2279 C 5.0651 20.2299 7.0244 20.4056 7.8953 20.3567 C 8.7764 20.3064 10.5154 20.0769 10.5323 20.0745 L 10.6084 20.6501 C 10.5367 20.6598 8.8316 20.8844 7.9277 20.9362 C 7.8106 20.9435 7.675 20.9464 7.5293 20.9464 L 7.5293 20.9464 Z " stroke-width="0.48412696765046803" fill="undefined"/>
      <path id="Whisker_1_" d="M 39.4313 18.1486 L 39.3374 17.5749 C 39.3597 17.5715 41.5276 17.2147 42.6106 16.8376 C 43.8563 16.4048 44.7049 15.6684 44.7141 15.6612 L 45.0971 16.0979 C 45.0593 16.1308 44.154 16.9165 42.8013 17.3861 C 41.6714 17.7802 39.5219 18.1336 39.4313 18.1486 L 39.4313 18.1486 Z " stroke-width="0.48412696765046803" fill="undefined"/>
      <path id="Whisker" d="M 43.8016 21.7815 C 43.4084 21.7815 42.8793 21.7646 42.2577 21.7026 C 40.874 21.5641 39.5543 21.035 39.4986 21.0122 L 39.7165 20.4739 C 39.7296 20.4792 41.0169 20.9943 42.3153 21.1245 C 43.6089 21.2538 44.5026 21.1783 44.5108 21.1778 L 44.5611 21.7563 C 44.5403 21.7583 44.2649 21.7815 43.8016 21.7815 L 43.8016 21.7815 Z " stroke-width="0.48412696765046803" fill="undefined"/>
      <path id="Mouth" fill="#FFFFFF" stroke="#000000" stroke-width="0.9682539353009361" d="M 22.4971 20.0716 C 22.4971 20.0716 27.5063 21.5501 29.3799 21.9577 C 31.252 22.3654 34.6332 22.773 34.6332 22.773 C 34.6332 22.773 30.7655 27.7329 26.2447 26.4741 C 21.7234 25.2169 21.8048 22.3663 22.4971 20.0716 Z "/>
    </g>
  </g>
</svg>