<svg version="1.1" xmlns="http://www.w3.org/2000/svg" xmlns:xlink="http://www.w3.org/1999/xlink" width="107.78241" height="93.83914" viewBox="0,0,107.78241,93.83914"><g transform="translate(-192.7277,-135.88899)"><g data-paper-data="{&quot;isPaintingLayer&quot;:true}" fill-rule="nonzero" stroke-linecap="butt" stroke-linejoin="miter" stroke-miterlimit="10" stroke-dasharray="" stroke-dashoffset="0" style="mix-blend-mode: normal"><path d="M231.988,210.967c0,0 -8.832,6.201 -17.07,8.412l0.086,0.215c1.247,1.824 5.869,7.498 -0.334,9.496c-5.333,1.718 -15.12,-13.104 -10.821,-15.901c2.626,-1.713 4.892,-0.252 4.892,-0.252c0,0 3.475,-1.069 6.001,-2.345c4.304,-2.162 5.784,-3.453 5.784,-3.453c0,0 4.185,-4.307 6.856,-4.137c2.669,0.17 8.058,4.713 4.606,7.965zM212.646,220.09l2.271,-0.711" fill="#000000" stroke="#000000" stroke-width="1"/><g fill="#000000" stroke-width="1"><path d="M226.938,200.487c0.809,0.473 2.451,1.325 0.09,4.744c-2.361,3.42 -9.267,4.049 -10.079,4.075c-3.093,0.083 -6.909,0.079 -11.091,-1.312c-12.135,-4.029 -12.209,-17.107 -8.353,-19.195c3.854,-2.086 5.597,6.008 11.048,10.914c2.437,2.193 5.327,3.053 7.742,3.504c3.416,0.638 9.833,-3.201 10.643,-2.73z" stroke="#000000"/><path d="M203.034,193.473c1.172,1.828 2.513,3.828 4.176,5.64c-0.993,-0.164 -4.016,-0.482 -5.853,1.061c-1.717,1.443 -0.467,3.834 -0.742,4.379c-3.864,-3.42 -4.827,-7.478 -4.968,-9.072c-0.262,-2.977 0.557,-5.596 1.994,-6.374c1.834,-0.991 3.11,0.815 5.393,4.366z" stroke="none"/></g><path d="M245.878,193.083c0.933,-3.549 1.905,-2.791 1.905,-2.791c0.541,0.408 1.139,0.912 1.729,1.506c1.796,1.8 3.345,5.547 6.856,4.287c3.509,-1.259 5.666,-6.093 9.716,-2.405c4.047,3.69 -3.612,8.375 -6.489,9.817c-2.886,1.436 -5.402,2.785 -8.911,-0.724c-3.51,-3.511 -4.744,-3.677 -4.744,-3.677c-2.007,-1.469 -0.997,-2.472 -0.062,-6.013z" fill="#000000" stroke="#000000" stroke-width="1"/><g fill="#000000" stroke-width="1"><path d="M236.745,202.728c0,0 7.648,7.713 11.125,10.771c2.123,1.862 6.727,5.795 6.727,5.795c0,0 16.698,-2.879 14.775,6.91c-0.561,2.882 -19.534,0.694 -19.534,0.694c0,0 -7.212,-5.829 -12.044,-10.603c-5.864,-5.797 -10.765,-9.639 -10.765,-9.639c-8.534,-8.291 -1.662,-11.805 1.057,-16.562c2.719,-4.755 5.924,-2.914 9.517,-2.233c3.591,0.678 6.117,0.485 7.67,0.776c3.836,0.72 2.776,4.775 1.901,7.296c0,0 -1.403,3.651 -2.699,5.577c-1.555,2.313 -2.763,3.802 -3.951,4.714" stroke="#000000"/><path d="M245.796,197.838c-0.713,2.06 -2.293,4.438 -5.292,7.934l-3.062,-3.089c0,0 -6.087,-3.956 -3.442,-6.61c1.526,-1.537 3.8,-4.178 8.74,-1.522c2.178,1.174 2.914,2.346 3.056,3.287z" stroke="none"/></g><path d="M222.518,196.295c1.261,1.975 9.99,7.918 3.06,11.156c-6.927,3.237 -10.796,-6.658 -11.789,-10.17c-0.989,-3.511 2.16,-4.408 4.319,-6.209c4.012,-3.341 6.48,-6.746 11.52,-4.945c5.04,1.797 1.351,5.847 -1.077,7.646c-1.964,1.455 -4.105,3.086 -4.854,3.657" fill="#000000" stroke="#000000" stroke-width="1"/><g><g fill="#000000" stroke-width="1"><path d="M266.584,184.376c-3.576,1.479 -7.034,2.589 -10.055,3.108c-2.552,0.438 -7.674,0.979 -10.32,0.979c-3.167,0 -9.938,-0.377 -14,-1.737c-5.44,-1.823 -12.28,-6.587 -15.599,-11.947c-7.076,-11.418 4.123,-25.006 3.477,-24.22l10.645,-10.386c0,0 4.498,-1.811 9.227,-2.036c1.767,-0.085 4.946,0.084 6.485,0.227l2.854,-1.105l10.284,4.23c0,0 6.495,4.735 8.351,8.042c2.804,4.996 2.628,10.347 2.628,10.347c0,0 7.419,1.132 8.891,7.579c1.47,6.447 -3.371,12.985 -12.868,16.919zM230.736,140.173l2.035,2.039M251.021,139.578c0,0 -2.333,-1.033 -4.333,-1.366" stroke="#000000"/><path d="M279.071,167.716c1.472,6.447 -3.631,12.538 -13.129,16.471c-3.576,1.478 -8.122,2.804 -11.154,3.236c-2.757,0.393 -10.181,0.588 -10.181,0.588c-1.084,-0.288 -1.694,-0.487 -3.472,-1.139c-6.403,-2.35 -15.576,-7.204 -15.083,-15.602c0.075,-1.288 0.659,-2.311 1.492,-3.123c2.5,-2.434 7.244,-2.956 7.244,-2.956l7.784,-3.417c0,0 6.841,3.228 11.212,2.277c1.365,-0.297 2.302,-0.835 2.948,-1.435c1.415,-1.314 1.42,-2.923 1.42,-2.933l9.113,-2.661l2.881,3.107c0,0 7.451,1.136 8.925,7.587z" stroke="none"/></g><g stroke-width="1"><path d="M241.638,152.831c2.926,4.48 2.618,9.862 -0.682,12.015c-3.303,2.159 -8.352,0.272 -11.275,-4.208c-2.928,-4.48 -2.624,-9.86 0.678,-12.017c3.302,-2.156 8.35,-0.272 11.279,4.21" fill="#ffffff" stroke="#000000"/><path d="M239.85,158.719c0,1.081 -0.803,1.957 -1.801,1.957c-0.992,0 -1.804,-0.878 -1.804,-1.957c0,-1.08 0.812,-1.957 1.804,-1.957c0.996,0 1.801,0.877 1.801,1.957" fill="#000000" stroke="none"/></g><g stroke-width="1"><path d="M265.361,149.75c2.925,4.479 3.283,9.419 0.492,11.243c-2.793,1.825 -7.181,-0.552 -10.104,-5.034c-2.933,-4.48 -3.079,-9.134 -0.286,-10.959c2.787,-1.823 6.971,0.268 9.898,4.75" fill="#ffffff" stroke="#000000"/><path d="M264.86,156.734c0,1.08 -0.802,1.956 -1.8,1.956c-0.993,0 -1.804,-0.877 -1.804,-1.956c0,-1.08 0.811,-1.958 1.804,-1.958c0.998,0 1.8,0.878 1.8,1.958" fill="#000000" stroke="none"/></g><path d="M253.536,162.138c1.854,0 4.556,-0.284 4.696,0.569c0.145,0.855 -1.709,4.203 -2.987,4.345c-1.282,0.142 -6.125,-2.353 -6.194,-3.919c-0.074,-1.566 2.774,-0.995 4.485,-0.995" fill="#000000" stroke="#000000" stroke-width="1"/><path d="M215.75,166.602c-0.023,-0.017 -2.382,-1.76 -6.002,-3.362c-4.012,-1.777 -6.263,-2.26 -6.284,-2.265l0.245,-1.175c0.095,0.02 2.381,0.506 6.525,2.342c3.751,1.661 6.133,3.424 6.232,3.498l-0.716,0.962z" fill="#000000" stroke="none" stroke-width="1"/><path d="M209.628,171.254c-2.035,0 -5.092,-0.276 -5.238,-0.289l0.107,-1.195c0.041,0.004 4.088,0.367 5.887,0.266c1.82,-0.104 5.412,-0.578 5.447,-0.583l0.157,1.189c-0.148,0.02 -3.67,0.484 -5.537,0.591c-0.242,0.015 -0.522,0.021 -0.823,0.021z" fill="#000000" stroke="none" stroke-width="1"/><path d="M275.524,165.475l-0.194,-1.185c0.046,-0.007 4.524,-0.744 6.761,-1.523c2.573,-0.894 4.326,-2.415 4.345,-2.43l0.791,0.902c-0.078,0.068 -1.948,1.691 -4.742,2.661c-2.334,0.814 -6.774,1.544 -6.961,1.575z" fill="#000000" stroke="none" stroke-width="1"/><path d="M284.551,172.979c-0.812,0 -1.905,-0.035 -3.189,-0.163c-2.858,-0.286 -5.584,-1.379 -5.699,-1.426l0.45,-1.112c0.027,0.011 2.686,1.075 5.368,1.344c2.672,0.267 4.518,0.111 4.535,0.11l0.104,1.195c-0.043,0.004 -0.612,0.052 -1.569,0.052z" fill="#000000" stroke="none" stroke-width="1"/><path d="M240.545,169.447c0,0 10.347,3.054 14.217,3.896c3.867,0.842 10.851,1.684 10.851,1.684c0,0 -7.989,10.245 -17.327,7.645c-9.339,-2.597 -9.171,-8.485 -7.741,-13.225z" fill="#ffffff" stroke="#000000" stroke-width="2"/></g><path d="M231.13912,209.44857c0,0 -8.8605,6.22102 -17.12509,8.43916l0.08626,0.21569c1.25102,1.82989 5.88796,7.52221 -0.33507,9.52666c-5.35021,1.72353 -15.16882,-13.14631 -10.85593,-15.95233c2.63446,-1.71855 4.90778,-0.25281 4.90778,-0.25281c0,0 3.48621,-1.07248 6.02039,-2.35257c4.31789,-2.169 5.80266,-3.46418 5.80266,-3.46418c0,0 4.19852,-4.3209 6.87815,-4.15034c2.6776,0.17056 8.08399,4.72821 4.62085,7.99072zM211.73467,218.60104l2.27836,-0.71331" fill="#000000" stroke="#000000" stroke-width="3.10516"/><g fill="#000000" stroke-width="3.10516"><path d="M226.07283,198.93473c0.81162,0.47455 2.4589,1.3293 0.09027,4.75933c-2.3686,3.43103 -9.29692,4.06208 -10.11154,4.08815c-3.10297,0.08329 -6.93129,0.07925 -11.1268,-1.31621c-12.17418,-4.04201 -12.24842,-17.16225 -8.37997,-19.257c3.86645,-2.09272 5.61508,6.0274 11.08367,10.94924c2.44488,2.20008 5.34421,3.06287 7.76702,3.51532c3.42702,0.64006 9.86474,-3.21133 10.67736,-2.73882z" stroke="#000000"/><path d="M202.09166,191.89808c1.17577,1.83392 2.52109,3.84038 4.18947,5.65821c-0.9962,-0.16451 -4.02896,-0.48353 -5.8719,1.06443c-1.72252,1.44768 -0.4685,3.84639 -0.74439,4.39314c-3.87646,-3.43103 -4.84258,-7.50215 -4.98403,-9.10129c-0.26286,-2.98663 0.55877,-5.61408 2.00041,-6.39459c1.83993,-0.9942 3.12006,0.81763 5.41044,4.38009z" stroke="none"/></g><path d="M245.07398,191.50682c0.93601,-3.56046 1.91114,-2.80001 1.91114,-2.80001c0.54275,0.40932 1.14269,0.91494 1.73458,1.51087c1.80181,1.80582 3.35581,5.5649 6.87815,4.30084c3.52033,-1.26307 5.68428,-6.11266 9.74736,-2.41276c4.06007,3.7019 -3.62365,8.40204 -6.50993,9.84871c-2.89532,1.44063 -5.41945,2.79397 -8.93978,-0.72636c-3.52133,-3.52233 -4.75933,-3.68885 -4.75933,-3.68885c-2.01346,-1.47375 -1.0002,-2.48 -0.06219,-6.03244z" fill="#000000" stroke="#000000" stroke-width="3.10516"/><g fill="#000000" stroke-width="3.10516"><path d="M235.9115,201.18298c0,0 7.67268,7.73791 11.16092,10.80579c2.12984,1.86801 6.74872,5.81371 6.74872,5.81371c0,0 16.7519,-2.88831 14.8227,6.93229c-0.56281,2.89132 -19.59708,0.69625 -19.59708,0.69625c0,0 -7.23528,-5.84783 -12.08288,-10.63723c-5.88295,-5.81571 -10.79978,-9.67011 -10.79978,-9.67011c-8.56155,-8.31778 -1.66734,-11.84311 1.06043,-16.61549c2.72777,-4.77034 5.94314,-2.9234 9.54773,-2.2402c3.60259,0.68019 6.13676,0.48657 7.69477,0.7785c3.84839,0.72232 2.78496,4.79041 1.90714,7.31954c0,0 -1.40755,3.66281 -2.70774,5.59502c-1.56001,2.32046 -2.7719,3.81427 -3.96373,4.72921" stroke="#000000"/><path d="M244.99172,196.2772c-0.71531,2.06664 -2.30043,4.45233 -5.30909,7.95961l-3.07189,-3.09896c0,0 -6.10665,-3.9688 -3.45313,-6.63134c1.53094,-1.54199 3.81227,-4.1915 8.76822,-1.52693c2.18502,1.1778 2.9234,2.35357 3.06588,3.29763z" stroke="none"/></g><path d="M221.63856,194.7292c1.26507,1.98138 10.02224,7.94358 3.06988,11.19203c-6.94939,3.24745 -10.83086,-6.67951 -11.82709,-10.20285c-0.99219,-3.52233 2.16699,-4.42225 4.33295,-6.22904c4.02495,-3.35181 6.50094,-6.76778 11.55722,-4.96099c5.05627,1.80281 1.35534,5.86589 -1.08049,7.6707c-1.97033,1.4597 -4.11826,3.09596 -4.86966,3.66882" fill="#000000" stroke="#000000" stroke-width="3.10516"/><g stroke-width="0.5"><g fill="#000000"><path d="M264.71458,182.44863c-3.58753,1.48377 -7.05671,2.59737 -10.08747,3.11802c-2.56022,0.43943 -7.69878,0.98218 -10.35331,0.98218c-3.17721,0 -9.9701,-0.3782 -14.04519,-1.74262c-5.45758,-1.82888 -12.31966,-6.60824 -15.64937,-11.98556c-7.09884,-11.45486 4.13632,-25.08674 3.48821,-24.29818l10.6794,-10.41954c0,0 4.51252,-1.81687 9.25679,-2.04257c1.7727,-0.08529 4.96196,0.08426 6.50592,0.22771l13.18043,3.13511c0,0 6.51597,4.75028 8.37797,8.06797c2.81303,5.01211 2.63647,10.38038 2.63647,10.38038c0,0 7.44296,1.13567 8.91972,7.60347c1.47475,6.46783 -3.38189,13.02693 -12.90955,16.97363zM230.20618,138.10293l2.04157,2.04558M250.55666,137.506c0,0 -2.34052,-1.03633 -4.34697,-1.3704" stroke="#000000"/><path d="M300.45158,164.11943c1.47675,6.4678 -25.39707,14.19391 -34.92574,18.13958c-3.58756,1.4828 -8.14822,2.81306 -11.19,3.24645c-2.76593,0.39429 -10.2139,0.58992 -10.2139,0.58992c-1.0875,-0.28893 -1.69946,-0.48857 -3.48321,-1.14269c-6.42366,-2.35758 -15.62627,-7.22727 -15.13169,-15.65238c0.07525,-1.29214 0.66113,-2.31845 1.49682,-3.13308c2.50807,-2.44187 7.2674,-2.96556 7.2674,-2.96556l7.80911,-3.42802c0,0 6.86309,3.23844 11.24822,2.28437c1.36939,-0.29798 2.30941,-0.83769 2.95752,-1.43963c1.41957,-1.31825 1.42458,-2.93244 1.42458,-2.94249l9.14242,-2.66958l2.89031,3.11702c0,0 29.2294,-0.47574 30.70816,5.99609z" stroke="none"/></g><g fill="#ffffff"><path d="M241.14337,150.80179c2.93545,4.49446 2.62645,9.89385 -0.6842,12.0538c-3.31365,2.16596 -8.37897,0.27288 -11.31141,-4.22158c-2.93745,-4.49449 -2.63246,-9.89185 0.68019,-12.0558c3.31268,-2.16299 8.37697,-0.27288 11.31542,4.22359" stroke="#000000"/><path d="M239.3496,156.70881c0,1.08447 -0.80561,1.96332 -1.80682,1.96332c-0.9952,0 -1.80982,-0.88086 -1.80982,-1.96332c0,-1.0835 0.81463,-1.96332 1.80982,-1.96332c0.9992,0 1.80682,0.87982 1.80682,1.96332" stroke="none"/></g><g fill="#ffffff"><path d="M264.94297,147.71084c2.93445,4.49346 3.29359,9.44941 0.49358,11.2793c-2.80201,1.83089 -7.20417,-0.5538 -10.13661,-5.05026c-2.94246,-4.49446 -3.08895,-9.16348 -0.28693,-10.99437c2.79601,-1.82888 6.99352,0.26887 9.92997,4.76533" stroke="#000000"/><path d="M264.44034,154.71738c0,1.0835 -0.80458,1.96232 -1.80582,1.96232c-0.9962,0 -1.80982,-0.87982 -1.80982,-1.96232c0,-1.0835 0.81362,-1.96432 1.80982,-1.96432c1.00124,0 1.80582,0.88083 1.80582,1.96432" stroke="none"/></g><path d="M253.07979,160.13884c1.86,0 4.57071,-0.28493 4.71115,0.57083c0.14548,0.85776 -1.71451,4.21658 -2.99664,4.35902c-1.28613,0.14248 -6.14478,-2.36058 -6.21398,-3.93165c-0.07424,-1.57106 2.78295,-0.9982 4.49947,-0.9982" fill="#000000" stroke="#000000"/><path d="M215.1718,164.61724c-0.0231,-0.01706 -2.38969,-1.76569 -6.02139,-3.37284c-4.02495,-1.78275 -6.28322,-2.26731 -6.30428,-2.27232l0.24577,-1.17881c0.09531,0.02006 2.38869,0.50763 6.54608,2.34957c3.76313,1.66637 6.15279,3.43507 6.25214,3.50931l-0.71831,0.96509z" fill="#000000" stroke="none"/><path d="M209.03003,169.28426c-2.04157,0 -5.10845,-0.27688 -5.2549,-0.28994l0.10733,-1.19884c0.04113,0.00401 4.1012,0.36819 5.90602,0.26684c1.82588,-0.10432 5.42947,-0.57984 5.46459,-0.58488l0.1575,1.19286c-0.14849,0.02006 -3.68184,0.48556 -5.55489,0.59289c-0.24277,0.01506 -0.52369,0.02107 -0.82564,0.02107z" fill="#000000" stroke="none"/><path d="M275.13877,163.48661l-0.19463,-1.18882c0.04617,-0.00701 4.53863,-0.74639 6.78284,-1.52793c2.58132,-0.89688 4.33996,-2.42278 4.35902,-2.43783l0.79356,0.90493c-0.07825,0.0682 -1.95431,1.69645 -4.75732,2.66958c-2.34152,0.81663 -6.79586,1.54896 -6.98347,1.58008z" fill="#000000" stroke="none"/><path d="M284.19493,171.01483c-0.81463,0 -1.91114,-0.03512 -3.19931,-0.16351c-2.86721,-0.28693 -5.60203,-1.38345 -5.7174,-1.43062l0.45148,-1.11558c0.02707,0.01102 2.69465,1.07846 5.38533,1.34833c2.6806,0.26787 4.53258,0.11137 4.54964,0.11037l0.10432,1.19887c-0.04313,0.00401 -0.61399,0.05215 -1.57407,0.05215z" fill="#000000" stroke="none"/><path d="M253.29332,173.93312c0,0 8.11882,0.3715 12.0013,1.21621c3.8795,0.8447 12.17838,-5.8492 12.17838,-5.8492c0,0 -4.13778,15.12433 -13.50593,12.51594c-9.36916,-2.60539 -12.10837,-3.12763 -10.67374,-7.88295z" fill="#ffffff" stroke="#000000"/></g></g></g></svg>