<svg xmlns="http://www.w3.org/2000/svg" xmlns:xlink="http://www.w3.org/1999/xlink" version="1.1" width="114.87339091300964" height="134.76045298576355" viewBox="0.2975250482559204 1.432066798210144 114.87339091300964 134.76045298576355">
  <!-- Exported by Scratch - http://scratch.mit.edu/ -->
  <g id="ID0.6178100248798728">
    <path id="Back_Leg" fill="#B2B2B2" stroke="#000000" d="M 65.1008 110.9106 C 65.1008 110.9106 76.9482 119.2287 87.9988 122.1946 L 87.8834 122.483 C 86.2107 124.9297 80.0107 132.5409 88.3315 135.2211 C 95.4853 137.5256 108.6137 117.6432 102.847 113.8912 C 99.3244 111.5934 96.2847 113.5532 96.2847 113.5532 C 96.2847 113.5532 91.6233 112.1192 88.2349 110.4075 C 82.4614 107.5074 80.4761 105.7756 80.4761 105.7756 C 80.4761 105.7756 74.8623 99.9981 71.2794 100.2262 C 67.6991 100.4542 60.4702 106.5483 65.1008 110.9106 Z M 91.0465 123.1483 L 88.0001 122.1946 " stroke-width="1.3414177894592285"/>
    <g id="Tail">
      <path id="Tail_1_" fill="#B2B2B2" stroke="#000000" d="M 86.1517 100.5146 C 89.3912 99.9096 93.2679 98.756 96.5369 95.8143 C 103.849 89.2333 106.1871 78.3758 111.3569 81.174 C 116.5294 83.9749 116.4302 101.518 100.1521 106.9225 C 94.5422 108.7885 89.4234 108.7938 85.2744 108.6825 C 84.1852 108.6476 74.9213 107.8039 71.7542 103.2162 C 68.5871 98.6299 70.7898 97.487 71.875 96.8525 C 72.9615 96.2207 81.5694 101.3704 86.1517 100.5146 Z " stroke-width="1.3414177894592285"/>
      <path id="Tail_Tip" fill="#FFFFFF" d="M 111.1745 81.5872 C 113.1021 82.6308 114.2007 86.144 113.8493 90.1374 C 113.6601 92.2756 112.3683 97.7191 107.1851 102.3067 C 106.8162 101.5756 108.493 98.3683 106.1898 96.4327 C 103.7256 94.3628 99.6705 94.7894 98.3385 95.0094 C 100.5692 92.5788 102.3681 89.8959 103.9402 87.4438 C 107.0027 82.6804 108.7143 80.2578 111.1745 81.5872 Z " stroke-width="1.3414177894592285"/>
    </g>
    <path id="R_Arm" fill="#B2B2B2" stroke="#000000" d="M 46.3853 94.9866 C 46.3853 94.9866 44.73 95.2093 40.0217 99.919 C 35.3146 104.626 31.9396 102.8165 28.0683 100.8902 C 24.209 98.9559 13.9351 92.6713 19.3638 87.7215 C 24.7966 82.7743 27.69 89.2587 32.397 90.9476 C 37.1068 92.6378 39.1846 87.6115 41.5938 85.1969 C 42.3852 84.4001 43.1874 83.7241 43.9131 83.1768 C 43.9131 83.1768 45.217 82.16 46.4685 86.9207 C 47.7227 91.6706 49.0776 93.0161 46.3853 94.9866 Z " stroke-width="1.3414177894592285"/>
    <g id="Front_Leg_x2F_Body_1_">
      <path id="Front_Leg_x2F_Body" fill="#B2B2B2" stroke="#000000" d="M 53.6505 104.5482 C 52.0569 103.3249 50.4364 101.3275 48.3505 98.2248 C 46.612 95.6412 44.73 90.7437 44.73 90.7437 C 43.5563 87.362 42.1344 81.9225 47.2801 80.9567 C 49.3633 80.5664 52.7517 80.8253 57.5687 79.9158 C 62.3885 79.0023 66.6877 76.5327 70.335 82.9112 C 73.9823 89.2923 83.2006 94.006 71.7529 105.1277 C 71.7529 105.1277 65.1786 110.2814 57.3125 118.0576 C 50.8308 124.4616 41.1565 132.2807 41.1565 132.2807 C 41.1565 132.2807 15.7058 135.2157 14.9532 131.3498 C 12.3737 118.2186 34.7727 122.0806 34.7727 122.0806 C 34.7727 122.0806 40.9486 116.8048 43.7964 114.307 C 48.4605 110.205 58.7197 99.8586 58.7197 99.8586 " stroke-width="1.3414177894592285"/>
      <path id="Belly" fill="#FFFFFF" d="M 50.6779 88.8899 C 57.3045 85.3271 60.3549 88.8697 62.4019 90.9315 C 65.9499 94.4916 57.7847 99.7983 57.7847 99.7983 L 53.6773 103.9419 C 49.6544 99.2523 47.5349 96.0624 46.5785 93.2991 C 46.769 92.0368 47.7563 90.4647 50.6779 88.8899 Z " stroke-width="1.3414177894592285"/>
    </g>
    <path id="L_Arm" fill="#B2B2B2" stroke="#000000" d="M 76.2225 92.7518 C 75.2178 91.9859 72.3458 89.798 69.7113 87.8462 C 66.4543 85.433 61.5058 80.0003 68.2665 77.5898 C 75.0273 75.1739 78.3379 79.7414 83.7197 84.2231 C 86.6158 86.639 90.8399 87.8422 89.5133 92.5519 C 88.1812 97.263 82.9913 110.5363 73.6993 106.1941 C 64.4033 101.8506 76.1125 93.8786 77.804 91.2293 " stroke-width="1.3414177894592285"/>
    <g id="Head_1_">
      <path id="Head_Fill" fill="#B2B2B2" stroke="#000000" d="M 1.4317 52.5455 C 3.4063 43.8974 13.3583 42.3789 13.3583 42.3789 C 13.3583 42.3789 13.1222 35.201 16.8835 28.4992 C 19.3732 24.0632 28.0857 17.7115 28.0857 17.7115 L 31.9141 2.2182 L 41.8809 12.0374 L 45.7093 13.5196 C 47.7737 13.3278 52.0381 13.1011 54.4084 13.2151 C 60.7519 13.5169 66.7856 15.9462 66.7856 15.9462 L 84.0604 4.512 L 81.065 29.8782 C 80.1985 28.8239 95.221 47.051 85.7291 62.3673 C 81.277 69.5573 72.1017 75.9479 64.8043 78.3933 C 59.3555 80.2176 50.2728 80.7233 46.0245 80.7233 C 42.4751 80.7233 35.6044 79.9976 32.1811 79.4101 C 28.1286 78.7139 23.49 77.2249 18.6931 75.2409 C 5.9537 69.9638 -0.5401 61.1936 1.4317 52.5455 Z M 64.0505 18.6814 L 66.7803 15.9462 M 45.382 13.3157 C 42.6991 13.7624 39.5696 15.1481 39.5696 15.1481 " stroke-width="1.3414177894592285"/>
      <path id="Muzzle" fill="#FFFFFF" d="M 13.915 42.7156 L 17.7796 38.5478 L 30.0039 42.1173 C 30.0039 42.1307 30.0107 44.2891 31.9088 46.0517 C 32.7753 46.8565 34.0322 47.5782 35.8633 47.9766 C 41.7266 49.2523 50.9032 44.9222 50.9032 44.9222 L 61.3448 49.5058 C 61.3448 49.5058 67.7085 50.2061 71.0621 53.4711 C 72.1795 54.5603 72.9629 55.9326 73.0635 57.6603 C 73.7248 68.9255 61.42 75.4368 52.8309 78.5891 C 50.4458 79.4637 49.6275 79.7307 48.1735 80.117 C 48.1735 80.117 38.2148 79.8554 34.5165 79.3282 C 30.4493 78.7487 24.3512 76.97 19.5543 74.9874 C 6.8135 69.7116 -0.0317 61.541 1.9428 52.8929 C 3.9201 44.2394 13.915 42.7156 13.915 42.7156 Z " stroke-width="1.3414177894592285"/>
    </g>
    <g id="L_Eye">
      <path id="Eyeball_1_" fill="#FFFFFF" stroke="#000000" d="M 52.1561 32.9259 C 48.2311 38.9355 48.6443 46.155 53.071 49.043 C 57.5017 51.9392 65.1504 47.8277 68.1955 43.3984 C 71.1627 39.0817 71.7998 30.0204 67.9017 27.3845 C 63.7795 24.7835 52.1561 32.9259 52.1561 32.9259 " stroke-width="1.3414177894592285"/>
      <path id="Pupil_1_" d="M 54.5546 40.8242 C 54.5546 42.2743 55.6317 43.4493 56.9705 43.4493 C 58.3012 43.4493 59.3904 42.2716 59.3904 40.8242 C 59.3904 39.3754 58.3012 38.199 56.9705 38.199 C 55.6344 38.199 54.5546 39.3754 54.5546 40.8242 " stroke-width="1.3414177894592285" fill="undefined"/>
    </g>
    <g id="R_Eye">
      <path id="Eyeball" fill="#FFFFFF" stroke="#000000" d="M 20.3337 28.793 C 20.3337 28.793 15.2135 38.2004 17.1961 42.4084 C 18.5804 45.5661 24.2117 45.5822 27.3238 44.0852 C 30.7511 42.4352 32.7512 38.2352 33.6285 34.5611 C 34.1664 32.1761 32.0872 29.893 31.1468 27.7199 C 30.2977 25.7574 30.232 21.8217 28.1957 22.0188 C 24.8261 22.3582 20.3337 28.793 20.3337 28.793 " stroke-width="1.3414177894592285"/>
      <path id="Pupil" d="M 21.0057 38.1615 C 21.0057 39.6102 22.0815 40.7853 23.4203 40.7853 C 24.7523 40.7853 25.8402 39.6089 25.8402 38.1615 C 25.8402 36.7127 24.7523 35.535 23.4203 35.535 C 22.0815 35.535 21.0057 36.7127 21.0057 38.1615 " stroke-width="1.3414177894592285" fill="undefined"/>
    </g>
    <path id="Nose" fill="#5E4A42" stroke="#000000" d="M 36.1959 45.4105 C 33.7089 45.4105 30.0844 45.0295 29.8966 46.1738 C 29.7021 47.3207 32.1891 51.8117 33.9034 52.0022 C 35.6231 52.1927 42.1196 48.8459 42.2122 46.7452 C 42.3115 44.6445 38.4911 45.4105 36.1959 45.4105 " stroke-width="1.3414177894592285"/>
    <path id="ID0.18181932624429464" fill="none" stroke="#000000" stroke-width="1.5722663402557373" stroke-linecap="round" d="M 85.4323 38.1552 L 87.0046 40.9066 L 88.5768 45.6234 L 88.7734 49.161 L 88.5768 53.4848 L 86.0219 56.0397 L 83.2704 57.4154 L 80.3224 57.0224 L 77.571 42.2824 L 80.3224 42.2824 L 83.0739 40.9066 L 85.4323 38.1552 Z "/>
    <path id="ID0.14710577484220266" fill="none" stroke="#000000" d="M 80.003 43.3585 C 79.7567 43.3585 79.5338 43.4584 79.3722 43.62 C 79.2105 43.7817 79.1106 44.0045 79.1106 44.2508 C 79.1106 44.4971 79.2105 44.72 79.3722 44.8816 C 79.5338 45.0432 79.7567 45.1432 80.003 45.1432 C 80.2493 45.1432 80.4721 45.0432 80.6337 44.8816 C 80.7954 44.72 80.8953 44.4971 80.8953 44.2508 C 80.8953 44.0045 80.7954 43.7817 80.6337 43.62 C 80.4721 43.4584 80.2493 43.3585 80.003 43.3585 Z " stroke-width="0.5099241733551025"/>
    <path id="ID0.09315776498988271" fill="none" stroke="#000000" stroke-linecap="round" d="M 80.003 43.384 L 80.003 45.0157 Z " stroke-width="0.5099241733551025"/>
    <path id="ID0.14710577484220266" fill="none" stroke="#000000" d="M 81.5209 54.5789 C 81.3505 54.7568 81.2685 54.9868 81.2733 55.2153 C 81.2782 55.4439 81.3699 55.6702 81.5477 55.8406 C 81.7256 56.0111 81.9556 56.0931 82.1841 56.0882 C 82.4127 56.0834 82.639 55.9916 82.8094 55.8138 C 82.9799 55.636 83.0619 55.4059 83.057 55.1774 C 83.0522 54.9488 82.9604 54.7225 82.7826 54.5521 C 82.6048 54.3817 82.3747 54.2997 82.1462 54.3045 C 81.9176 54.3094 81.6913 54.4011 81.5209 54.5789 Z " stroke-width="0.5099241865204047"/>
    <path id="ID0.09315776498988271" fill="none" stroke="#000000" stroke-linecap="round" d="M 81.5393 54.5966 L 82.7174 55.7256 Z " stroke-width="0.5099241865204047"/>
    <path id="ID0.9625102812424302" fill="none" stroke="#000000" stroke-width="1.5722663402557373" stroke-linecap="round" d="M 29.0272 22.4718 L 33.744 33.2418 "/>
    <g id="ID0.8435089820995927">
      <path id="ID0.8404736882075667" fill="#FFFFFF" stroke="#000000" stroke-width="0.9169875704104772" d="M 36.4811 59.4513 C 30.7463 58.801 26.4829 58.3802 21.6171 59.287 C 19.9795 59.5918 18.4288 61.2469 18.2697 62.8771 C 18.0766 64.3526 19.3922 65.9756 20.7954 66.5334 C 25.3947 68.3622 29.5839 69.0514 35.3187 69.7017 C 41.0534 70.352 45.2875 70.6001 50.1826 69.866 C 51.6457 69.647 53.2532 68.3947 53.3842 66.9515 C 53.6027 65.3132 52.5412 63.2964 51.0044 62.6196 C 46.4747 60.6238 42.2158 60.1016 36.4811 59.4513 Z "/>
      <path id="ID0.6830179141834378" fill="none" stroke="#000000" stroke-width="0.9169875704104772" stroke-linecap="round" d="M 53.3567 66.7868 L 18.2594 62.9682 "/>
      <path id="ID0.720943711232394" fill="none" stroke="#000000" stroke-width="0.9169875704104772" stroke-linecap="round" d="M 49.0261 61.8429 L 48.1598 69.889 "/>
      <path id="ID0.14236313942819834" fill="none" stroke="#000000" stroke-width="0.9169875704104772" stroke-linecap="round" d="M 43.5052 60.4786 L 42.3748 70.0404 "/>
      <path id="ID0.3628630032762885" fill="none" stroke="#000000" stroke-width="0.9169875704104772" stroke-linecap="round" d="M 37.3679 59.6672 L 36.1402 69.6795 "/>
      <path id="ID0.07688325829803944" fill="none" stroke="#000000" stroke-width="0.9169875704104772" stroke-linecap="round" d="M 32.8044 59.2189 L 31.6756 69.1732 "/>
      <path id="ID0.43129883660003543" fill="none" stroke="#000000" stroke-width="0.9169875704104772" stroke-linecap="round" d="M 27.7295 58.8049 L 26.6248 68.139 "/>
      <path id="ID0.2841416848823428" fill="none" stroke="#000000" stroke-width="0.9169875704104772" stroke-linecap="round" d="M 21.7443 66.8242 L 22.6475 59.2668 "/>
    </g>
    <path id="ID0.43284247629344463" fill="none" stroke="#000000" stroke-width="0.7861331701278687" stroke-linecap="round" d="M 81.3051 108.7106 L 78.6322 113.1523 L 88.1445 117.0829 L 90.5029 112.0517 "/>
    <path id="ID0.9875291283242404" fill="none" stroke="#000000" stroke-width="0.7861331701278687" stroke-linecap="round" d="M 49.6239 109.4968 L 54.5766 115.5893 L 45.3788 123.372 L 40.5048 118.0263 "/>
    <path id="ID0.09315776498988271" fill="none" stroke="#000000" stroke-linecap="round" d="M 48.6647 111.7088 L 50.1079 112.4702 Z " stroke-width="0.509924189197128"/>
    <path id="ID0.14710577484220266" fill="none" stroke="#000000" d="M 48.6422 111.6969 C 48.5272 111.9147 48.5116 112.1584 48.5792 112.3768 C 48.6467 112.5952 48.7972 112.7876 49.015 112.9025 C 49.2328 113.0175 49.4766 113.033 49.695 112.9655 C 49.9134 112.898 50.1057 112.7475 50.2207 112.5297 C 50.3356 112.3119 50.3512 112.0681 50.2837 111.8497 C 50.2161 111.6313 50.0657 111.439 49.8478 111.324 C 49.63 111.2091 49.3863 111.1935 49.1679 111.261 C 48.9495 111.3286 48.7571 111.479 48.6422 111.6969 Z " stroke-width="0.509924189197128"/>
    <path id="ID0.09315776498988271" fill="none" stroke="#000000" stroke-linecap="round" d="M 42.603 116.934 L 42.603 118.5657 Z " stroke-width="0.5099241733551025"/>
    <path id="ID0.14710577484220266" fill="none" stroke="#000000" d="M 42.603 116.9085 C 42.3567 116.9085 42.1338 117.0084 41.9722 117.17 C 41.8105 117.3317 41.7106 117.5545 41.7106 117.8008 C 41.7106 118.0471 41.8105 118.27 41.9722 118.4316 C 42.1338 118.5932 42.3567 118.6932 42.603 118.6932 C 42.8493 118.6932 43.0721 118.5932 43.2337 118.4316 C 43.3954 118.27 43.4953 118.0471 43.4953 117.8008 C 43.4953 117.5545 43.3954 117.3317 43.2337 117.17 C 43.0721 117.0084 42.8493 116.9085 42.603 116.9085 Z " stroke-width="0.5099241733551025"/>
    <g id="ID0.28120887838304043">
      <path id="ID0.14710577484220266" fill="none" stroke="#000000" d="M 87.4717 114.4987 C 87.288 114.4987 87.1218 114.5732 87.0013 114.6938 C 86.8807 114.8143 86.8062 114.9805 86.8062 115.1642 C 86.8062 115.3479 86.8807 115.514 87.0013 115.6346 C 87.1218 115.7551 87.288 115.8297 87.4717 115.8297 C 87.6554 115.8297 87.8216 115.7551 87.9421 115.6346 C 88.0627 115.514 88.1372 115.3479 88.1372 115.1642 C 88.1372 114.9805 88.0627 114.8143 87.9421 114.6938 C 87.8216 114.5732 87.6554 114.4987 87.4717 114.4987 Z " stroke-width="0.3802824318408966"/>
      <path id="ID0.09315776498988271" fill="none" stroke="#000000" stroke-linecap="round" d="M 86.9805 114.7845 L 88.0568 115.3524 Z " stroke-width="0.38028244363741764"/>
    </g>
    <g id="ID0.28120887838304043">
      <path id="ID0.14710577484220266" fill="none" stroke="#000000" d="M 79.9361 112.4318 C 79.8943 112.6107 79.9292 112.7894 80.0192 112.9342 C 80.1092 113.079 80.2541 113.1894 80.4329 113.2311 C 80.6118 113.2728 80.7906 113.238 80.9354 113.148 C 81.0802 113.058 81.1905 112.9131 81.2322 112.7342 C 81.274 112.5554 81.2391 112.3766 81.1491 112.2318 C 81.0591 112.087 80.9142 111.9767 80.7354 111.9349 C 80.5565 111.8932 80.3777 111.928 80.2329 112.018 C 80.0881 112.108 79.9778 112.2529 79.9361 112.4318 Z " stroke-width="0.38028247189618797"/>
      <path id="ID0.09315776498988271" fill="none" stroke="#000000" stroke-linecap="round" d="M 80.0986 113.0548 L 80.8962 112.1357 Z " stroke-width="0.3802824548853584"/>
    </g>
  </g>
</svg>